<svg version="1.1" xmlns="http://www.w3.org/2000/svg" xmlns:xlink="http://www.w3.org/1999/xlink" width="2815" height="1415"><defs/><g transform="matrix(1,0,0,1,0,0)"><g><g><path fill="none" stroke="#d3d3d3" paint-order="fill stroke markers" d=" M 0 0 L 2800 0 L 2800 1400 L 0 1400 L 0 0 Z Z" stroke-miterlimit="10" stroke-opacity="0.8" stroke-dasharray=""/></g><g id="_4" bpmn2nodeid="_4" transform="matrix(1,0,0,1,706,198)"><g><path fill="none" stroke="none"/></g><g transform="matrix(0.10714285714285714,0,0,0.10714285714285714,0,0)"><g transform="matrix(1,0,0,1,0,0)"><path fill="#fbefcf" stroke="none" id="_4?shapeType=BACKGROUND" paint-order="stroke fill markers" d=" M 0 0 M 444 224 C 444 263.9 434.2 300.8 414.4 334.5 C 394.7 368.2 368 394.9 334.4 414.5 C 300.79999999999995 434.1 263.9 444 224 444 C 184.10000000000002 444 147.2 434.2 113.5 414.4 C 79.8 394.7 53.1 368 33.5 334.4 C 13.899999999999999 300.79999999999995 4 263.9 4 224 C 4 184.10000000000002 13.8 147.2 33.6 113.5 C 53.400000000000006 79.80000000000001 80.1 53.1 113.6 33.5 C 147.1 13.899999999999999 184.1 4 224 4 C 263.9 4 300.8 13.8 334.5 33.6 C 368.2 53.400000000000006 394.9 80.1 414.5 113.6 C 434.1 147.1 444 184.1 444 224 Z"/></g><g><g transform="matrix(1,0,0,1,0,0)"><g transform="matrix(1,0,0,1,0,0)"><path fill="rgb(229,160,0)" stroke="none" id="_4?shapeType=BORDER&amp;renderType=FILL" paint-order="stroke fill markers" d=" M 0 0 M 224 408 C 122.5 408 40 325.5 40 224 C 40 122.5 122.5 40 224 40 C 325.5 40 408 122.5 408 224 C 408 325.5 325.5 408 224 408 Z M 0 0 M 224 56 C 131.4 56 56 131.4 56 224 C 56 316.6 131.4 392 224 392 C 316.6 392 392 316.6 392 224 C 392 131.39999999999998 316.6 56 224 56 Z M 0 0 M 224 16 C 252.1 16 279.3 21.5 305 32.3 C 329.8 42.8 352 57.8 371.1 76.9 C 390.20000000000005 96.00000000000001 405.20000000000005 118.30000000000001 415.70000000000005 143 C 426.50000000000006 168.6 432.00000000000006 195.9 432.00000000000006 224 C 432.00000000000006 252.1 426.50000000000006 279.3 415.70000000000005 305 C 405.20000000000005 329.8 390.20000000000005 352 371.1 371.1 C 352 390.20000000000005 329.70000000000005 405.20000000000005 305 415.70000000000005 C 279.4 426.50000000000006 252.1 432.00000000000006 224 432.00000000000006 C 195.9 432.00000000000006 168.7 426.50000000000006 143 415.70000000000005 C 118.2 405.20000000000005 96 390.20000000000005 76.9 371.1 C 57.80000000000001 352 42.8 329.7 32.3 305 C 21.5 279.3 16 252.1 16 224 C 16 195.9 21.5 168.7 32.3 143 C 42.8 118.2 57.8 96 76.9 76.9 C 96.00000000000001 57.80000000000001 118.30000000000001 42.800000000000004 143 32.300000000000004 C 168.7 21.5 195.9 16 224 16 M 224 0 C 100.3 0 0 100.3 0 224 C 0 347.7 100.3 448 224 448 C 347.7 448 448 347.7 448 224 C 448 100.30000000000001 347.7 0 224 0 L 224 0 Z"/></g></g></g><g><g transform="matrix(1,0,0,1,0,0)"><g transform="matrix(1,0,0,1,0,0)"><path fill="#e5a000" stroke="none" id="_4undefined" paint-order="stroke fill markers" d=" M 0 0 M 224.6 124.8 L 320.5 300.7 L 128.8 300.7 L 224.6 124.8 M 224.6 108.7 C 221.7 108.7 219 109.5 216.5 110.9 C 214 112.30000000000001 212.1 114.5 210.6 117 L 114.69999999999999 293 C 111.79999999999998 298.2 111.89999999999999 303.5 114.89999999999999 308.8 C 116.3 311.2 118.19999999999999 313.2 120.69999999999999 314.6 C 123.1 316 125.79999999999998 316.70000000000005 128.7 316.70000000000005 L 320.5 316.70000000000005 C 323.4 316.70000000000005 325.9 316.00000000000006 328.4 314.6 C 330.9 313.20000000000005 332.79999999999995 311.3 334.2 308.8 C 337.3 303.6 337.3 298.3 334.4 293 L 238.49999999999997 117 C 237.09999999999997 114.4 235.19999999999996 112.4 232.69999999999996 110.9 C 230.2 109.4 227.5 108.7 224.6 108.7 L 224.6 108.7 Z"/></g></g></g></g><g transform="matrix(1,0,0,1,24,33)"><g><text fill="#000000" stroke="none" font-family="Open Sans" font-size="12pt" font-style="normal" font-weight="normal" text-decoration="normal" x="0" y="12" text-anchor="middle" dominant-baseline="alphabetic" id="_4undefined">event</text><path fill="none" stroke="none"/><text fill="none" stroke="#393f44" font-family="Open Sans" font-size="12pt" font-style="normal" font-weight="normal" text-decoration="normal" x="0" y="12" text-anchor="middle" dominant-baseline="alphabetic" stroke-miterlimit="10" stroke-dasharray="">event</text></g></g></g><g id="_5" bpmn2nodeid="_5" transform="matrix(1,0,0,1,786,198)"><g><path fill="none" stroke="none"/></g><g transform="matrix(1,0,0,1,0,0)"><path fill="#ffffff" stroke="none" id="_5?shapeType=BACKGROUND" paint-order="stroke fill markers" d=" M 2 0 L 98 0 L 98 0 A 2 2 0 0 1 100 2 L 100 46 L 100 46 A 2 2 0 0 1 98 48 L 2 48 L 2 48 A 2 2 0 0 1 0 46 L 0 2 L 0 2.0000000000000004 A 2 2 0 0 1 1.9999999999999996 0 Z"/></g><g transform="matrix(1,0,0,1,0,0)"><path fill="none" stroke="#000000" id="_5?shapeType=BORDER&amp;renderType=STROKE" paint-order="fill stroke markers" d=" M 2 0 L 98 0 L 98 0 A 2 2 0 0 1 100 2 L 100 46 L 100 46 A 2 2 0 0 1 98 48 L 2 48 L 2 48 A 2 2 0 0 1 0 46 L 0 2 L 0 2.0000000000000004 A 2 2 0 0 1 1.9999999999999996 0 Z" stroke-miterlimit="10" stroke-width="1.5" stroke-dasharray=""/></g><g><g transform="matrix(0.06,0,0,0.06,9.4,9.4)"><g transform="matrix(1,0,0,1,0,0)"><path fill="#393f44" stroke="none" id="_5undefined" paint-order="stroke fill markers" d=" M 0 0 M 197.3 130.2 C 194.4 127.29999999999998 189.60000000000002 127.29999999999998 186.70000000000002 130.2 L 130.20000000000002 186.7 C 127.30000000000001 189.6 127.30000000000001 194.39999999999998 130.20000000000002 197.29999999999998 L 186.70000000000002 253.79999999999998 C 188.10000000000002 255.29999999999998 190.10000000000002 255.99999999999997 192.00000000000003 255.99999999999997 C 193.90000000000003 255.99999999999997 195.90000000000003 255.29999999999998 197.30000000000004 253.69999999999996 C 200.20000000000005 250.79999999999995 200.20000000000005 245.99999999999997 197.30000000000004 243.09999999999997 L 146.2 192 L 197.29999999999998 140.8 C 200.2 137.9 200.2 133.1 197.3 130.2 Z"/></g><g transform="matrix(1,0,0,1,0,0)"><path fill="#393f44" stroke="none" id="_5undefined" paint-order="stroke fill markers" d=" M 0 0 M 261.3 130.2 C 258.40000000000003 127.29999999999998 253.60000000000002 127.29999999999998 250.70000000000002 130.2 C 247.8 133.1 247.8 137.89999999999998 250.70000000000002 140.79999999999998 L 301.8 191.89999999999998 L 250.7 243 C 247.79999999999998 245.9 247.79999999999998 250.7 250.7 253.6 C 252.1 255.29999999999998 254.1 256 256 256 C 257.9 256 259.9 255.3 261.3 253.8 L 317.8 197.3 C 320.7 194.4 320.7 189.60000000000002 317.8 186.70000000000002 L 261.3 130.2 Z"/></g><g transform="matrix(1,0,0,1,0,0)"><path fill="#393f44" stroke="none" id="_5undefined" paint-order="stroke fill markers" d=" M 0 0 M 400 32 C 400 32 152.8 32 128 32 C 62 32 64 96 64 96 L 64 288 L 1 288 C 1 288 -4 416 78 416 L 320 416 C 368 416 384 368 384 336 C 384 314.2 384 224.4 384 160 L 448 160 L 448 96 C 448 96 449 32 400 32 Z M 0 0 M 78 383.9 C 68.5 383.9 61.6 381.09999999999997 55.5 374.9 C 43.4 362.4 37.5 339.59999999999997 34.9 320 L 256.9 320 C 257.09999999999997 322.7 257.29999999999995 325.4 257.59999999999997 328.2 C 259.99999999999994 351.59999999999997 264.7 370.09999999999997 271.9 383.9 L 78 383.9 L 78 383.9 Z M 0 0 M 352 336 C 352 345.9 349.6 360.3 342.9 371 C 337.2 380.1 330.4 384 320 384 C 285 384 288 288 288 288 L 96 288 L 96 96 L 96 95.9 L 96 95.10000000000001 C 96 90.60000000000001 97.6 78.30000000000001 104.7 71.20000000000002 C 106.5 69.40000000000002 111.9 64.00000000000001 128 64.00000000000001 L 356.5 64.00000000000001 C 354.4 72.80000000000001 352.8 81.80000000000001 352.2 89.9 C 352.2 90.5 352.09999999999997 91.10000000000001 352.09999999999997 91.7 C 352.09999999999997 92 352.09999999999997 92.3 352.09999999999997 92.60000000000001 C 352 94.8 352 96 352 96 L 352 160 L 352 336 Z"/></g></g></g><g transform="matrix(1,0,0,1,50,16.5)"><g><text fill="#000000" stroke="none" font-family="Open Sans" font-size="12pt" font-style="normal" font-weight="normal" text-decoration="normal" x="0" y="12" text-anchor="middle" dominant-baseline="alphabetic" id="_5undefined">Event</text><path fill="none" stroke="none"/><text fill="none" stroke="#393f44" font-family="Open Sans" font-size="12pt" font-style="normal" font-weight="normal" text-decoration="normal" x="0" y="12" text-anchor="middle" dominant-baseline="alphabetic" stroke-miterlimit="10" stroke-dasharray="">Event</text></g></g></g><g id="_6" bpmn2nodeid="_6" transform="matrix(1,0,0,1,918,198)"><g><path fill="none" stroke="none"/></g><g transform="matrix(0.10714285714285714,0,0,0.10714285714285714,0,0)"><g transform="matrix(1,0,0,1,0,0)"><path fill="#fce7e7" stroke="none" id="_6?shapeType=BACKGROUND" paint-order="stroke fill markers" d=" M 0 0 M 444 224 C 444 263.9 434.2 300.8 414.4 334.5 C 394.7 368.2 368 394.9 334.4 414.5 C 300.79999999999995 434.1 263.9 444 224 444 C 184.10000000000002 444 147.2 434.2 113.5 414.4 C 79.8 394.7 53.1 368 33.5 334.4 C 13.899999999999999 300.79999999999995 4 263.9 4 224 C 4 184.10000000000002 13.8 147.2 33.6 113.5 C 53.400000000000006 79.80000000000001 80.1 53.1 113.6 33.5 C 147.1 13.899999999999999 184.1 4 224 4 C 263.9 4 300.8 13.8 334.5 33.6 C 368.2 53.400000000000006 394.9 80.1 414.5 113.6 C 434.1 147.1 444 184.1 444 224 Z"/></g><g><g transform="matrix(1,0,0,1,0,0)"><g transform="matrix(1,0,0,1,0,0)"><path fill="#a30000" stroke="none" id="_6?shapeType=BORDER&amp;renderType=FILL" paint-order="stroke fill markers" d=" M 0 0 M 224 0 C 100.3 0 0 100.3 0 224 C 0 347.7 100.3 448 224 448 C 347.7 448 448 347.7 448 224 C 448 100.30000000000001 347.7 0 224 0 Z M 0 0 M 224 400 C 126.8 400 48 321.2 48 224 C 48 126.80000000000001 126.8 48 224 48 C 321.2 48 400 126.8 400 224 C 400 321.2 321.2 400 224 400 Z"/></g></g></g><g><g transform="matrix(1,0,0,1,0,0)"><g transform="matrix(1,0,0,1,0,0)"><path fill="#a30000" stroke="none" id="_6undefined" paint-order="stroke fill markers" d=" M 0 0 M 320.2 220.7 C 320.2 238.1 315.9 254.2 307.3 268.9 C 298.7 283.59999999999997 287.1 295.29999999999995 272.40000000000003 303.79999999999995 C 257.70000000000005 312.4 241.60000000000002 316.69999999999993 224.20000000000005 316.69999999999993 C 206.80000000000007 316.69999999999993 190.70000000000005 312.3999999999999 176.00000000000006 303.79999999999995 C 161.30000000000007 295.19999999999993 149.70000000000005 283.59999999999997 141.10000000000005 268.9 C 132.50000000000006 254.2 128.30000000000004 238.09999999999997 128.30000000000004 220.7 C 128.30000000000004 203.3 132.60000000000005 187.2 141.20000000000005 172.5 C 149.80000000000004 157.8 161.40000000000003 146.1 176.10000000000005 137.5 C 190.80000000000004 128.9 206.90000000000006 124.7 224.30000000000007 124.7 C 241.70000000000007 124.7 257.80000000000007 129 272.50000000000006 137.6 C 287.20000000000005 146.2 298.90000000000003 157.9 307.40000000000003 172.5 C 316 187.2 320.2 203.3 320.2 220.7 Z"/></g></g></g></g><g transform="matrix(1,0,0,1,24,33)"><g><text fill="#000000" stroke="none" font-family="Open Sans" font-size="12pt" font-style="normal" font-weight="normal" text-decoration="normal" x="0" y="12" text-anchor="middle" dominant-baseline="alphabetic" id="_6undefined">EndProcess</text><path fill="none" stroke="none"/><text fill="none" stroke="#393f44" font-family="Open Sans" font-size="12pt" font-style="normal" font-weight="normal" text-decoration="normal" x="0" y="12" text-anchor="middle" dominant-baseline="alphabetic" stroke-miterlimit="10" stroke-dasharray="">EndProcess</text></g></g></g><g id="_4-_5" bpmn2nodeid="_4-_5"><g><path fill="none" stroke="rgb(0,0,0)" paint-order="fill stroke markers" d=" M 754 222 L 771 222" stroke-miterlimit="10" stroke-dasharray=""/></g><g transform="matrix(1,0,0,1,754,222)"/><g transform="matrix(6.123233995736766e-17,1,-1,6.123233995736766e-17,786,217)"><path fill="rgb(0,0,0)" stroke="rgb(0,0,0)" paint-order="fill stroke markers" d=" M 10 15 L 0 15 L 5 0 Z" stroke-miterlimit="10" stroke-dasharray=""/></g></g><g id="_5-_6" bpmn2nodeid="_5-_6"><g><path fill="none" stroke="rgb(0,0,0)" paint-order="fill stroke markers" d=" M 886 222 L 903 222" stroke-miterlimit="10" stroke-dasharray=""/></g><g transform="matrix(1,0,0,1,886,222)"/><g transform="matrix(6.123233995736766e-17,1,-1,6.123233995736766e-17,918,217)"><path fill="rgb(0,0,0)" stroke="rgb(0,0,0)" paint-order="fill stroke markers" d=" M 10 15 L 0 15 L 5 0 Z" stroke-miterlimit="10" stroke-dasharray=""/></g></g><g transform="matrix(1,0,0,1,706,198)"/><g transform="matrix(1,0,0,1,786,198)"/><g transform="matrix(1,0,0,1,918,198)"/><g id="_1" bpmn2nodeid="_1" transform="matrix(1,0,0,1,494,198)"><g><path fill="none" stroke="none"/></g><g transform="matrix(0.10714285714285714,0,0,0.10714285714285714,0,0)"><g transform="matrix(1,0,0,1,0,0)"><path fill="#e8fae6" stroke="none" id="_1?shapeType=BACKGROUND" paint-order="stroke fill markers" d=" M 0 0 M 444 224 C 444 263.9 434.2 300.8 414.4 334.5 C 394.7 368.2 368 394.9 334.4 414.5 C 300.79999999999995 434.1 263.9 444 224 444 C 184.10000000000002 444 147.2 434.2 113.5 414.4 C 79.8 394.7 53.1 368 33.5 334.4 C 13.899999999999999 300.79999999999995 4 263.9 4 224 C 4 184.10000000000002 13.8 147.2 33.6 113.5 C 53.400000000000006 79.80000000000001 80.1 53.1 113.6 33.5 C 147.1 13.899999999999999 184.1 4 224 4 C 263.9 4 300.8 13.8 334.5 33.6 C 368.2 53.400000000000006 394.9 80.1 414.5 113.6 C 434.1 147.1 444 184.1 444 224 Z"/></g><g><g transform="matrix(1,0,0,1,0,0)"><g transform="matrix(1,0,0,1,0,0)"><path fill="rgb(74,162,65)" stroke="none" id="_1?shapeType=BORDER&amp;renderType=FILL" paint-order="stroke fill markers" d=" M 0 0 M 224 0 C 100.3 0 0 100.3 0 224 C 0 347.7 100.3 448 224 448 C 347.7 448 448 347.7 448 224 C 448 100.30000000000001 347.7 0 224 0 Z M 0 0 M 224 432 C 109.1 432 16 338.9 16 224 C 16 109.10000000000002 109.1 16 224 16 C 338.9 16 432 109.1 432 224 C 432 338.9 338.9 432 224 432 Z"/></g></g></g></g><g transform="matrix(1,0,0,1,24,33)"><g><text fill="#000000" stroke="none" font-family="Open Sans" font-size="12pt" font-style="normal" font-weight="normal" text-decoration="normal" x="0" y="12" text-anchor="middle" dominant-baseline="alphabetic" id="_1undefined">StartProcess</text><path fill="none" stroke="none"/><text fill="none" stroke="#393f44" font-family="Open Sans" font-size="12pt" font-style="normal" font-weight="normal" text-decoration="normal" x="0" y="12" text-anchor="middle" dominant-baseline="alphabetic" stroke-miterlimit="10" stroke-dasharray="">StartProcess</text></g></g></g><g transform="matrix(1,0,0,1,494,198)"/><g id="_FF4F145B-46F7-4A1E-A508-58F1E6DE01BA" bpmn2nodeid="_FF4F145B-46F7-4A1E-A508-58F1E6DE01BA"><g><path fill="none" stroke="rgb(0,0,0)" paint-order="fill stroke markers" d=" M 542 222 L 691 222" stroke-miterlimit="10" stroke-dasharray=""/></g><g transform="matrix(1,0,0,1,542,222)"/><g transform="matrix(6.123233995736766e-17,1,-1,6.123233995736766e-17,706,217)"><path fill="rgb(0,0,0)" stroke="rgb(0,0,0)" paint-order="fill stroke markers" d=" M 10 15 L 0 15 L 5 0 Z" stroke-miterlimit="10" stroke-dasharray=""/></g></g></g></g></svg>