<svg xmlns="http://www.w3.org/2000/svg" xmlns:oryx="http://oryx-editor.org" id="_33D54F29-807F-4438-89B6-930ECDE9E413" width="538" height="138" xmlns:xlink="http://www.w3.org/1999/xlink" xmlns:svg="http://www.w3.org/2000/svg"><defs><marker id="_661A294F-05AA-46A3-A3F3-44939DFFEA2Dstart" refX="1" refY="5" markerUnits="userSpaceOnUse" markerWidth="17" markerHeight="11" orient="auto" fill="#000000" stroke="#000000">
	  		<path id="_661A294F-05AA-46A3-A3F3-44939DFFEA2Dconditional" d="M 0 5 L 8 0 L 16 5 L 8 10 L 0 5" fill="white" stroke="#000000" stroke-width="1" display="none"/>
			<path id="_661A294F-05AA-46A3-A3F3-44939DFFEA2Ddefault" d="M 5 0 L 11 10" fill="white" stroke="#000000" stroke-width="1" display="none"/>
	  	</marker><marker id="_661A294F-05AA-46A3-A3F3-44939DFFEA2Dend" refX="15" refY="6" markerUnits="userSpaceOnUse" markerWidth="15" markerHeight="12" orient="auto" fill="#000000" stroke="#000000">
	  		<path id="_661A294F-05AA-46A3-A3F3-44939DFFEA2Dframe2" d="M 0 1 L 15 6 L 0 11z" fill="#000000" stroke="#000000" stroke-linejoin="round" stroke-width="2"/>
	  	</marker><marker id="_952F2F68-A92F-4296-BC1C-2146488396F2start" refX="1" refY="5" markerUnits="userSpaceOnUse" markerWidth="17" markerHeight="11" orient="auto" fill="#000000" stroke="#000000">
	  		<path id="_952F2F68-A92F-4296-BC1C-2146488396F2conditional" d="M 0 5 L 8 0 L 16 5 L 8 10 L 0 5" fill="white" stroke="#000000" stroke-width="1" display="none"/>
			<path id="_952F2F68-A92F-4296-BC1C-2146488396F2default" d="M 5 0 L 11 10" fill="white" stroke="#000000" stroke-width="1" display="none"/>
	  	</marker><marker id="_952F2F68-A92F-4296-BC1C-2146488396F2end" refX="15" refY="6" markerUnits="userSpaceOnUse" markerWidth="15" markerHeight="12" orient="auto" fill="#000000" stroke="#000000">
	  		<path id="_952F2F68-A92F-4296-BC1C-2146488396F2frame2" d="M 0 1 L 15 6 L 0 11z" fill="#000000" stroke="#000000" stroke-linejoin="round" stroke-width="2"/>
	  	</marker><marker id="_9A171725-ADC8-4390-A80B-F562487F0652start" refX="1" refY="5" markerUnits="userSpaceOnUse" markerWidth="17" markerHeight="11" orient="auto" fill="#000000" stroke="#000000">
	  		<path id="_9A171725-ADC8-4390-A80B-F562487F0652conditional" d="M 0 5 L 8 0 L 16 5 L 8 10 L 0 5" fill="white" stroke="#000000" stroke-width="1" display="none"/>
			<path id="_9A171725-ADC8-4390-A80B-F562487F0652default" d="M 5 0 L 11 10" fill="white" stroke="#000000" stroke-width="1" display="none"/>
	  	</marker><marker id="_9A171725-ADC8-4390-A80B-F562487F0652end" refX="15" refY="6" markerUnits="userSpaceOnUse" markerWidth="15" markerHeight="12" orient="auto" fill="#000000" stroke="#000000">
	  		<path id="_9A171725-ADC8-4390-A80B-F562487F0652frame2" d="M 0 1 L 15 6 L 0 11z" fill="#000000" stroke="#000000" stroke-linejoin="round" stroke-width="2"/>
	  	</marker><marker id="_0AAB89DD-970E-464C-84B8-97F97F2F7452start" refX="1" refY="5" markerUnits="userSpaceOnUse" markerWidth="17" markerHeight="11" orient="auto" fill="#000000" stroke="#000000">
	  		<path id="_0AAB89DD-970E-464C-84B8-97F97F2F7452conditional" d="M 0 5 L 8 0 L 16 5 L 8 10 L 0 5" fill="white" stroke="#000000" stroke-width="1" display="none"/>
			<path id="_0AAB89DD-970E-464C-84B8-97F97F2F7452default" d="M 5 0 L 11 10" fill="white" stroke="#000000" stroke-width="1" display="none"/>
	  	</marker><marker id="_0AAB89DD-970E-464C-84B8-97F97F2F7452end" refX="15" refY="6" markerUnits="userSpaceOnUse" markerWidth="15" markerHeight="12" orient="auto" fill="#000000" stroke="#000000">
	  		<path id="_0AAB89DD-970E-464C-84B8-97F97F2F7452frame2" d="M 0 1 L 15 6 L 0 11z" fill="#000000" stroke="#000000" stroke-linejoin="round" stroke-width="2"/>
	  	</marker></defs><g stroke="none" font-family="Verdana, sans-serif" font-size-adjust="none" font-style="normal" font-variant="normal" font-weight="normal" line-heigth="normal" font-size="12"><g class="stencils" transform="translate(-95, -111)"><g class="me"/><g class="children"><g id="_E5B6E9B2-15E7-447F-89B1-7F672C78A293" bpmn2nodeid="processStartEvent"><g class="stencils" transform="translate(120, 165)"><g class="me"><g pointer-events="fill" id="_E5B6E9B2-15E7-447F-89B1-7F672C78A293">
  
    <defs id="_E5B6E9B2-15E7-447F-89B1-7F672C78A293__E5B6E9B2-15E7-447F-89B1-7F672C78A293_5">
		<radialGradient id="_E5B6E9B2-15E7-447F-89B1-7F672C78A293background" cx="10%" cy="10%" r="100%" fx="10%" fy="10%">
			<stop offset="0%" stop-color="#ffffff" stop-opacity="1" id="_E5B6E9B2-15E7-447F-89B1-7F672C78A293__E5B6E9B2-15E7-447F-89B1-7F672C78A293_6"/>
			<stop id="_E5B6E9B2-15E7-447F-89B1-7F672C78A293fill_el" offset="100%" stop-color="#9acd32" stop-opacity="1"/>
		</radialGradient>
	</defs>
	
    <circle id="_E5B6E9B2-15E7-447F-89B1-7F672C78A293bg_frame" cx="15" cy="15" r="15" stroke="#000000" fill="url(#_E5B6E9B2-15E7-447F-89B1-7F672C78A293background) white" stroke-width="1" style="stroke-dasharray: 5.5, 3"/>

    <circle id="_E5B6E9B2-15E7-447F-89B1-7F672C78A293frame" cx="15" cy="15" r="15" stroke="#000000" fill="none" stroke-width="1"/>

	<text font-size="11" id="_E5B6E9B2-15E7-447F-89B1-7F672C78A293text_name" x="15" y="32" oryx:align="top center" stroke="black" stroke-width="0pt" letter-spacing="-0.01px" fill="#000000" text-anchor="middle" transform="rotate(0 15 32)" visibility="inherit" oryx:fontSize="11"/>
  </g></g><g class="children" style="overflow:hidden"/><g class="edge"/></g><g class="controls"><g class="dockers"/><g class="magnets" transform="translate(120, 165)"><g pointer-events="all" display="none" transform="translate(7, 7)"><circle cx="8" cy="8" r="4" stroke="none" fill="red" fill-opacity="0.3"/></g></g></g></g><g id="_F93559D6-C87D-45C3-A1C7-660B8B90421F" bpmn2nodeid="_6604534C-DD3E-494F-BB17-FD2D58F4E0F9"><g class="stencils" transform="translate(345, 165)"><g class="me"><g pointer-events="fill" id="_F93559D6-C87D-45C3-A1C7-660B8B90421F">

    <defs id="_F93559D6-C87D-45C3-A1C7-660B8B90421F__F93559D6-C87D-45C3-A1C7-660B8B90421F_6">
		<radialGradient id="_F93559D6-C87D-45C3-A1C7-660B8B90421Fbackground" cx="10%" cy="10%" r="100%" fx="10%" fy="10%">
			<stop offset="0%" stop-color="#ffffff" stop-opacity="1" id="_F93559D6-C87D-45C3-A1C7-660B8B90421F__F93559D6-C87D-45C3-A1C7-660B8B90421F_7"/>
			<stop id="_F93559D6-C87D-45C3-A1C7-660B8B90421Ffill_el" offset="100%" stop-color="#f5deb3" stop-opacity="1"/>
		</radialGradient>
	</defs>
	
    <circle id="_F93559D6-C87D-45C3-A1C7-660B8B90421Fbg_frame" cx="15" cy="15" r="15" stroke="#a0522d" fill="url(#_F93559D6-C87D-45C3-A1C7-660B8B90421Fbackground) white" stroke-width="1" style="stroke-dasharray: 5.5, 3"/>
    	
    <circle id="_F93559D6-C87D-45C3-A1C7-660B8B90421Fframe" cx="15" cy="15" r="12" stroke="#a0522d" fill="none" stroke-width="1" style="stroke-dasharray: 4.5, 3" display="inherit"/>
    
    <circle id="_F93559D6-C87D-45C3-A1C7-660B8B90421Fframe2" cx="15" cy="15" r="15" stroke="#a0522d" fill="none" stroke-width="1" display="inherit"/>
    <circle id="_F93559D6-C87D-45C3-A1C7-660B8B90421Fframe3" cx="15" cy="15" r="12" stroke="#a0522d" fill="none" stroke-width="1"/>
	<path id="_F93559D6-C87D-45C3-A1C7-660B8B90421Fframe4" stroke="#a0522d" d=" M7.7124971 20.247342  L22.333334 20.247342  L15.022915000000001 7.575951200000001  L7.7124971 20.247342  z" style="fill:none;stroke-width:1.4;stroke-miterlimit:4;stroke-dasharray:none"/>
	<text font-size="11" id="_F93559D6-C87D-45C3-A1C7-660B8B90421Ftext_name" x="15" y="32" oryx:align="top center" stroke="black" stroke-width="0pt" letter-spacing="-0.01px" fill="#000000" text-anchor="middle" transform="rotate(0 15 32)" visibility="inherit" oryx:fontSize="11"/>
  </g></g><g class="children" style="overflow:hidden"/><g class="edge"/></g><g class="controls"><g class="dockers"/><g class="magnets" transform="translate(345, 165)"><g pointer-events="all" display="none" transform="translate(7, 7)"><circle cx="8" cy="8" r="4" stroke="none" fill="red" fill-opacity="0.3"/></g></g></g></g><g id="_E1D14553-52BA-4765-8EF0-3CD12341CAC9" bpmn2nodeid="_06CD7F85-D811-4DB9-9EA5-91DC6127B53E"><g class="stencils" transform="translate(435, 140)"><g class="me"><g pointer-events="fill" oryx:minimumSize="50 40" id="_E1D14553-52BA-4765-8EF0-3CD12341CAC9">
  	<defs id="_E1D14553-52BA-4765-8EF0-3CD12341CAC9__E1D14553-52BA-4765-8EF0-3CD12341CAC9_17">
		<radialGradient id="_E1D14553-52BA-4765-8EF0-3CD12341CAC9background" cx="10%" cy="10%" r="100%" fx="10%" fy="10%">
			<stop offset="0%" stop-color="#ffffff" stop-opacity="1" id="_E1D14553-52BA-4765-8EF0-3CD12341CAC9__E1D14553-52BA-4765-8EF0-3CD12341CAC9_18"/>
			<stop id="_E1D14553-52BA-4765-8EF0-3CD12341CAC9fill_el" offset="100%" stop-color="#fafad2" stop-opacity="1"/>
		</radialGradient>
		<radialGradient id="_E1D14553-52BA-4765-8EF0-3CD12341CAC9borderbackground" cx="10%" cy="10%" r="100%" fx="10%" fy="10%">
			<stop offset="0%" stop-color="#ffffff" stop-opacity="1" id="_E1D14553-52BA-4765-8EF0-3CD12341CAC9__E1D14553-52BA-4765-8EF0-3CD12341CAC9_19"/>
			<stop id="_E1D14553-52BA-4765-8EF0-3CD12341CAC9fill_border" offset="100%" stop-color="#000000" stop-opacity="1" stroke="#000000"/>
		</radialGradient>
	</defs>
	
	<rect id="_E1D14553-52BA-4765-8EF0-3CD12341CAC9text_frame" oryx:anchors="bottom top right left" x="1" y="1" width="94" height="79" rx="10" ry="10" stroke="none" stroke-width="0" fill="none"/>
	<rect id="_E1D14553-52BA-4765-8EF0-3CD12341CAC9bg_frame" oryx:resize="vertical horizontal" x="0" y="0" width="100" height="80" rx="10" ry="10" stroke="#000000" stroke-width="1" fill="url(#_E1D14553-52BA-4765-8EF0-3CD12341CAC9background) #ffffcc"/>
		<text font-size="12" id="_E1D14553-52BA-4765-8EF0-3CD12341CAC9text_name" x="50" y="40" oryx:align="middle center" oryx:fittoelem="text_frame" stroke="black" text-anchor="middle" stroke-width="0pt" letter-spacing="-0.01px" fill="#000000" transform="rotate(0 50 40)" visibility="inherit" oryx:fontSize="12"><tspan x="50" y="40" dy="-7" id="ext-gen591">Set Signal </tspan><tspan x="50" y="40" dy="5" id="ext-gen592">Data on Parent </tspan><tspan x="50" y="40" dy="17">Process</tspan></text>
    <g id="_E1D14553-52BA-4765-8EF0-3CD12341CAC9manualTask" transform="scale(0.7,0.7) translate(8,8)" display="none">
    	<path oryx:anchors="top left" id="_E1D14553-52BA-4765-8EF0-3CD12341CAC9frame" style="opacity:1;fill:none;fill-opacity:1;stroke-width:1" d="M0.5,3.751l4.083-3.25c0,0,11.166,0.083,12.083,0.083s-2.417,2.917-1.5,2.917     s11.667,0,12.584,0c1.166,1.708-0.168,3.167-0.834,3.667s0.875,1.917-1,4.417c-0.75,0.25,0.75,1.875-1.333,3.333     c-1.167,0.583,0.583,1.542-1.25,2.833c-1.167,0-20.833,0.083-20.833,0.083l-2-1.333V3.751z" stroke="#000000"/>
		<path id="_E1D14553-52BA-4765-8EF0-3CD12341CAC9frame2" oryx:anchors="top left" style="opacity:1;fill:none;stroke-width:2" d="M 13.5 7 L 27 7" stroke="#000000"/>
		<path id="_E1D14553-52BA-4765-8EF0-3CD12341CAC9frame3" oryx:anchors="top left" style="opacity:1;fill:none;stroke-width:2" d="M 13.5 11 L 26 11" stroke="#000000"/>
		<path id="_E1D14553-52BA-4765-8EF0-3CD12341CAC9frame4" oryx:anchors="top left" style="opacity:1;fill:none;stroke-width:1.5" d="M 14 14.5 L 25 14.5" stroke="#000000"/>
		<path id="_E1D14553-52BA-4765-8EF0-3CD12341CAC9frame5" oryx:anchors="top left" style="opacity:1;fill:none;stroke-width:1.5" d="M 8.2 3.1 L 15 3.1" stroke="#000000"/>
	</g>
	
	<g id="_E1D14553-52BA-4765-8EF0-3CD12341CAC9businessRuleTask" transform="scale(0.7,0.7) translate(8,8)" display="none">
		<rect id="_E1D14553-52BA-4765-8EF0-3CD12341CAC9frame6" oryx:anchors="top left" x="0" y="0" width="22" height="4" style="opacity:1;fill:#B3B1B3;fill-opacity:1;" stroke="#000000"/>
		<rect id="_E1D14553-52BA-4765-8EF0-3CD12341CAC9frame7" oryx:anchors="top left" x="0" y="4" style="opacity:1;fill:none;" width="22" height="12" stroke="#000000"/>
		<path id="_E1D14553-52BA-4765-8EF0-3CD12341CAC9frame8" oryx:anchors="top left" style="opacity:1;fill:none;" d="M 0 10 L 22 10" stroke="#000000"/>
		<path id="_E1D14553-52BA-4765-8EF0-3CD12341CAC9frame9" oryx:anchors="top left" style="opacity:1; fill:none;" d="M 7 4 L 7 16" stroke="#000000"/>
	</g>
	
	<g id="_E1D14553-52BA-4765-8EF0-3CD12341CAC9scriptTask" transform="scale(0.7,0.7) translate(8,8)" display="inherit">
		<path oryx:anchors="top left" id="_E1D14553-52BA-4765-8EF0-3CD12341CAC9frame10" style="opacity:1;fill:none;" stroke="#000000" d="M6.402,0.5h14.5c0,0-5.833,2.833-5.833,5.583s4.417,6,4.417,9.167    s-4.167,5.083-4.167,5.083H0.235c0,0,5-2.667,5-5s-4.583-6.75-4.583-9.25S6.402,0.5,6.402,0.5z"/>
		<path oryx:anchors="top left" id="_E1D14553-52BA-4765-8EF0-3CD12341CAC9frame11" style="opacity:1;fill:none;stroke-width:1.5" d="M 3.5 4.5 L 13.5 4.5" stroke="#000000"/>
		<path oryx:anchors="top left" id="_E1D14553-52BA-4765-8EF0-3CD12341CAC9frame12" style="opacity:1;fill:none;stroke-width:1.5" d="M 3.8 8.5 L 13.8 8.5" stroke="#000000"/>
		<path oryx:anchors="top left" id="_E1D14553-52BA-4765-8EF0-3CD12341CAC9frame13" style="opacity:1;fill:none;stroke-width:1.5" d="M 6.3 12.5 L 16.3 12.5" stroke="#000000"/>
		<path oryx:anchors="top left" id="_E1D14553-52BA-4765-8EF0-3CD12341CAC9frame14" style="opacity:1;fill:none;stroke-width:1.5" d="M 6.5 16.5 L 16.5 16.5" stroke="#000000"/>
	</g>
	
	<g id="_E1D14553-52BA-4765-8EF0-3CD12341CAC9userTask" transform="scale(0.7,0.7) translate(8,8)" display="none">
		<path id="_E1D14553-52BA-4765-8EF0-3CD12341CAC9frame15" oryx:anchors="top left" style="opacity:1;fill:#F4F6F7" stroke="#000000" d="M0.585,24.167h24.083v-7.833c0,0-2.333-3.917-7.083-5.167h-9.25    c-4.417,1.333-7.833,5.75-7.833,5.75L0.585,24.167z"/>
		<path id="_E1D14553-52BA-4765-8EF0-3CD12341CAC9frame16" oryx:anchors="top left" style="opacity:1;fill:none" d="M 6 20 L 6 24" stroke="#000000"/>
		<path id="_E1D14553-52BA-4765-8EF0-3CD12341CAC9frame17" oryx:anchors="top left" style="opacity:1;fill:none" d="M 20 20 L 20 24" stroke="#000000"/>
		<circle id="_E1D14553-52BA-4765-8EF0-3CD12341CAC9frame18" oryx:anchors="top left" fill="black" cx="13.002" cy="5.916" r="5.417" stroke="#000000"/>
		<path id="_E1D14553-52BA-4765-8EF0-3CD12341CAC9frame19" oryx:anchors="top left" style="opacity:1;fill:#F0EFF0;" stroke="#000000" d="M8.043,7.083c0,0,2.814-2.426,5.376-1.807s4.624-0.693,4.624-0.693    c0.25,1.688,0.042,3.75-1.458,5.584c0,0,1.083,0.75,1.083,1.5s0.125,1.875-1,3s-5.5,1.25-6.75,0S8.668,12.834,8.668,12    s0.583-1.25,1.25-1.917C8.835,9.5,7.419,7.708,8.043,7.083z"/>
	</g>
	
	<g id="_E1D14553-52BA-4765-8EF0-3CD12341CAC9serviceTask" transform="scale(0.7,0.7) translate(8,8)" display="none">
		<polygon oryx:anchors="top left" id="_E1D14553-52BA-4765-8EF0-3CD12341CAC9frame20" style="opacity:1;fill:#ffffff" stroke="#000000" points="15.392,5.064 17.954,2.502 20.347,4.895 17.786,7.455     18.729,9.732 22.353,9.732 22.353,13.115 18.731,13.115 17.788,15.392 20.351,17.955 17.958,20.347 15.397,17.786 13.12,18.729     13.12,22.353 9.737,22.353 9.737,18.731 7.46,17.788 4.897,20.35 2.506,17.958 5.066,15.397 4.124,13.12 0.5,13.12 0.5,9.737     4.121,9.737 5.065,7.461 2.503,4.898 4.895,2.506 7.455,5.066 9.732,4.125 9.732,0.5 13.116,0.5 13.116,4.121 "/>
		<circle oryx:anchors="top left" id="_E1D14553-52BA-4765-8EF0-3CD12341CAC9frame21" style="opacity:1;fill:none" stroke="#000000" cx="11.427" cy="11.426" r="3.714"/>
		<polygon oryx:anchors="top left" id="_E1D14553-52BA-4765-8EF0-3CD12341CAC9frame22" style="opacity:1;fill:#ffffff" stroke="#000000" points="21.392,11.064 23.954,8.502 26.347,10.895 23.786,13.455     24.729,15.732 28.353,15.732 28.353,19.115 24.731,19.115 23.788,21.392 26.351,23.955 23.958,26.347 21.397,23.786 19.12,24.729     19.12,28.353 15.737,28.353 15.737,24.731 13.46,23.788 10.897,26.35 8.506,23.958 11.066,21.397 10.124,19.12 6.5,19.12     6.5,15.737 10.121,15.737 11.065,13.461 8.503,10.898 10.895,8.506 13.455,11.066 15.732,10.125 15.732,6.5 19.116,6.5     19.116,10.121 "/>
		<circle oryx:anchors="top left" id="_E1D14553-52BA-4765-8EF0-3CD12341CAC9frame23" style="opacity:1;fill:none;" stroke="#000000" cx="17.427" cy="17.426" r="3.714"/>
	</g>
	
	<g id="_E1D14553-52BA-4765-8EF0-3CD12341CAC9sendTask" display="none">
		<path id="_E1D14553-52BA-4765-8EF0-3CD12341CAC9stframe24" oryx:anchors="left top" stroke="#FFFFFF" fill="black" stroke-width="1" d="M8,11 L8,21 L24,21 L24,11 L16,17z"/>
		<path id="_E1D14553-52BA-4765-8EF0-3CD12341CAC9stframe25" oryx:anchors="left top" stroke="#FFFFFF" fill="black" stroke-width="1" d="M7,10 L16,17 L25 10z"/>
	</g>
	
	<g id="_E1D14553-52BA-4765-8EF0-3CD12341CAC9receiveTask" display="none">
		<path id="_E1D14553-52BA-4765-8EF0-3CD12341CAC9frame26" oryx:anchors="left top" stroke="#000000" fill="none" stroke-width="1" d="M8,11 L8,21 L24,21 L24,11z M8,11 L16,17 L24,11"/>
	</g>
	
	<g id="_E1D14553-52BA-4765-8EF0-3CD12341CAC9none" display="none"/>

	<g id="_E1D14553-52BA-4765-8EF0-3CD12341CAC9sequential">
        <path oryx:anchors="bottom" fill="none" stroke="#000000" stroke-width="2" d="M46,76h10M46,72h10 M46,68h10" id="_E1D14553-52BA-4765-8EF0-3CD12341CAC9__E1D14553-52BA-4765-8EF0-3CD12341CAC9_20"/>
    </g>
  </g></g><g class="children" style="overflow:hidden"/><g class="edge"/></g><g class="controls"><g class="dockers"/><g class="magnets" transform="translate(435, 140)"><g pointer-events="all" display="none" transform="translate(-7, 12)"><circle cx="8" cy="8" r="4" stroke="none" fill="red" fill-opacity="0.3"/></g><g pointer-events="all" display="none" transform="translate(-7, 32)"><circle cx="8" cy="8" r="4" stroke="none" fill="red" fill-opacity="0.3"/></g><g pointer-events="all" display="none" transform="translate(-7, 52)"><circle cx="8" cy="8" r="4" stroke="none" fill="red" fill-opacity="0.3"/></g><g pointer-events="all" display="none" transform="translate(17, 71)"><circle cx="8" cy="8" r="4" stroke="none" fill="red" fill-opacity="0.3"/></g><g pointer-events="all" display="none" transform="translate(42, 71)"><circle cx="8" cy="8" r="4" stroke="none" fill="red" fill-opacity="0.3"/></g><g pointer-events="all" display="none" transform="translate(67, 71)"><circle cx="8" cy="8" r="4" stroke="none" fill="red" fill-opacity="0.3"/></g><g pointer-events="all" display="none" transform="translate(91, 12)"><circle cx="8" cy="8" r="4" stroke="none" fill="red" fill-opacity="0.3"/></g><g pointer-events="all" display="none" transform="translate(91, 32)"><circle cx="8" cy="8" r="4" stroke="none" fill="red" fill-opacity="0.3"/></g><g pointer-events="all" display="none" transform="translate(91, 52)"><circle cx="8" cy="8" r="4" stroke="none" fill="red" fill-opacity="0.3"/></g><g pointer-events="all" display="none" transform="translate(17, -7)"><circle cx="8" cy="8" r="4" stroke="none" fill="red" fill-opacity="0.3"/></g><g pointer-events="all" display="none" transform="translate(42, -7)"><circle cx="8" cy="8" r="4" stroke="none" fill="red" fill-opacity="0.3"/></g><g pointer-events="all" display="none" transform="translate(67, -7)"><circle cx="8" cy="8" r="4" stroke="none" fill="red" fill-opacity="0.3"/></g><g pointer-events="all" display="none" transform="translate(42, 32)"><circle cx="8" cy="8" r="4" stroke="none" fill="red" fill-opacity="0.3"/></g></g></g></g><g id="_FD0AF189-5511-450B-93BB-B901FDECF163" bpmn2nodeid="_CE9917B1-4332-4006-B5F4-052D56F3C25F"><g class="stencils" transform="translate(580, 166)"><g class="me"><g pointer-events="fill" id="_FD0AF189-5511-450B-93BB-B901FDECF163">

    <defs id="_FD0AF189-5511-450B-93BB-B901FDECF163__FD0AF189-5511-450B-93BB-B901FDECF163_5">
		<radialGradient id="_FD0AF189-5511-450B-93BB-B901FDECF163background" cx="10%" cy="10%" r="100%" fx="10%" fy="10%">
			<stop offset="0%" stop-color="#ffffff" stop-opacity="1" id="_FD0AF189-5511-450B-93BB-B901FDECF163__FD0AF189-5511-450B-93BB-B901FDECF163_6"/>
			<stop id="_FD0AF189-5511-450B-93BB-B901FDECF163fill_el" offset="100%" stop-color="#ff6347" stop-opacity="1"/>
		</radialGradient>
	</defs>
	
    <circle id="_FD0AF189-5511-450B-93BB-B901FDECF163bg_frame" cx="14" cy="14" r="14" stroke="#000000" fill="url(#_FD0AF189-5511-450B-93BB-B901FDECF163background) white" stroke-width="3"/>
	<text font-size="11" id="_FD0AF189-5511-450B-93BB-B901FDECF163text_name" x="14" y="30" oryx:align="top center" stroke="black" stroke-width="0pt" letter-spacing="-0.01px" fill="#000000" text-anchor="middle" transform="rotate(0 14 30)" visibility="inherit" oryx:fontSize="11"/>
  </g></g><g class="children" style="overflow:hidden"/><g class="edge"/></g><g class="controls"><g class="dockers"/><g class="magnets" transform="translate(580, 166)"><g pointer-events="all" display="none" transform="translate(6, 6)"><circle cx="8" cy="8" r="4" stroke="none" fill="red" fill-opacity="0.3"/></g></g></g></g><g id="_FE19AFCD-836A-48D9-B3AA-BC9CEA343998" bpmn2nodeid="_B1E8E858-C1E9-4728-80A6-8BEB9BEB6E79"><g class="stencils" transform="translate(195, 140)"><g class="me"><g pointer-events="fill" oryx:minimumSize="50 40" id="_FE19AFCD-836A-48D9-B3AA-BC9CEA343998">
  	<defs id="_FE19AFCD-836A-48D9-B3AA-BC9CEA343998__FE19AFCD-836A-48D9-B3AA-BC9CEA343998_17">
		<radialGradient id="_FE19AFCD-836A-48D9-B3AA-BC9CEA343998background" cx="10%" cy="10%" r="100%" fx="10%" fy="10%">
			<stop offset="0%" stop-color="#ffffff" stop-opacity="1" id="_FE19AFCD-836A-48D9-B3AA-BC9CEA343998__FE19AFCD-836A-48D9-B3AA-BC9CEA343998_18"/>
			<stop id="_FE19AFCD-836A-48D9-B3AA-BC9CEA343998fill_el" offset="100%" stop-color="#fafad2" stop-opacity="1"/>
		</radialGradient>
		<radialGradient id="_FE19AFCD-836A-48D9-B3AA-BC9CEA343998borderbackground" cx="10%" cy="10%" r="100%" fx="10%" fy="10%">
			<stop offset="0%" stop-color="#ffffff" stop-opacity="1" id="_FE19AFCD-836A-48D9-B3AA-BC9CEA343998__FE19AFCD-836A-48D9-B3AA-BC9CEA343998_19"/>
			<stop id="_FE19AFCD-836A-48D9-B3AA-BC9CEA343998fill_border" offset="100%" stop-color="#000000" stop-opacity="1" stroke="#000000"/>
		</radialGradient>
	</defs>
	
	<rect id="_FE19AFCD-836A-48D9-B3AA-BC9CEA343998text_frame" oryx:anchors="bottom top right left" x="1" y="1" width="94" height="79" rx="10" ry="10" stroke="none" stroke-width="0" fill="none"/>
	<rect id="_FE19AFCD-836A-48D9-B3AA-BC9CEA343998bg_frame" oryx:resize="vertical horizontal" x="0" y="0" width="100" height="80" rx="10" ry="10" stroke="#000000" stroke-width="1" fill="url(#_FE19AFCD-836A-48D9-B3AA-BC9CEA343998background) #ffffcc"/>
		<text font-size="12" id="_FE19AFCD-836A-48D9-B3AA-BC9CEA343998text_name" x="50" y="40" oryx:align="middle center" oryx:fittoelem="text_frame" stroke="black" text-anchor="middle" stroke-width="0pt" letter-spacing="-0.01px" fill="#000000" transform="rotate(0 50 40)" visibility="inherit" oryx:fontSize="12"><tspan x="50" y="40" dy="-13">Set Signal </tspan><tspan x="50" y="40" dy="-1">Name With </tspan><tspan x="50" y="40" dy="11">Parent Process </tspan><tspan x="50" y="40" dy="23">ID</tspan></text>
    <g id="_FE19AFCD-836A-48D9-B3AA-BC9CEA343998manualTask" transform="scale(0.7,0.7) translate(8,8)" display="none">
    	<path oryx:anchors="top left" id="_FE19AFCD-836A-48D9-B3AA-BC9CEA343998frame" style="opacity:1;fill:none;fill-opacity:1;stroke-width:1" d="M0.5,3.751l4.083-3.25c0,0,11.166,0.083,12.083,0.083s-2.417,2.917-1.5,2.917     s11.667,0,12.584,0c1.166,1.708-0.168,3.167-0.834,3.667s0.875,1.917-1,4.417c-0.75,0.25,0.75,1.875-1.333,3.333     c-1.167,0.583,0.583,1.542-1.25,2.833c-1.167,0-20.833,0.083-20.833,0.083l-2-1.333V3.751z" stroke="#000000"/>
		<path id="_FE19AFCD-836A-48D9-B3AA-BC9CEA343998frame2" oryx:anchors="top left" style="opacity:1;fill:none;stroke-width:2" d="M 13.5 7 L 27 7" stroke="#000000"/>
		<path id="_FE19AFCD-836A-48D9-B3AA-BC9CEA343998frame3" oryx:anchors="top left" style="opacity:1;fill:none;stroke-width:2" d="M 13.5 11 L 26 11" stroke="#000000"/>
		<path id="_FE19AFCD-836A-48D9-B3AA-BC9CEA343998frame4" oryx:anchors="top left" style="opacity:1;fill:none;stroke-width:1.5" d="M 14 14.5 L 25 14.5" stroke="#000000"/>
		<path id="_FE19AFCD-836A-48D9-B3AA-BC9CEA343998frame5" oryx:anchors="top left" style="opacity:1;fill:none;stroke-width:1.5" d="M 8.2 3.1 L 15 3.1" stroke="#000000"/>
	</g>
	
	<g id="_FE19AFCD-836A-48D9-B3AA-BC9CEA343998businessRuleTask" transform="scale(0.7,0.7) translate(8,8)" display="none">
		<rect id="_FE19AFCD-836A-48D9-B3AA-BC9CEA343998frame6" oryx:anchors="top left" x="0" y="0" width="22" height="4" style="opacity:1;fill:#B3B1B3;fill-opacity:1;" stroke="#000000"/>
		<rect id="_FE19AFCD-836A-48D9-B3AA-BC9CEA343998frame7" oryx:anchors="top left" x="0" y="4" style="opacity:1;fill:none;" width="22" height="12" stroke="#000000"/>
		<path id="_FE19AFCD-836A-48D9-B3AA-BC9CEA343998frame8" oryx:anchors="top left" style="opacity:1;fill:none;" d="M 0 10 L 22 10" stroke="#000000"/>
		<path id="_FE19AFCD-836A-48D9-B3AA-BC9CEA343998frame9" oryx:anchors="top left" style="opacity:1; fill:none;" d="M 7 4 L 7 16" stroke="#000000"/>
	</g>
	
	<g id="_FE19AFCD-836A-48D9-B3AA-BC9CEA343998scriptTask" transform="scale(0.7,0.7) translate(8,8)" display="inherit">
		<path oryx:anchors="top left" id="_FE19AFCD-836A-48D9-B3AA-BC9CEA343998frame10" style="opacity:1;fill:none;" stroke="#000000" d="M6.402,0.5h14.5c0,0-5.833,2.833-5.833,5.583s4.417,6,4.417,9.167    s-4.167,5.083-4.167,5.083H0.235c0,0,5-2.667,5-5s-4.583-6.75-4.583-9.25S6.402,0.5,6.402,0.5z"/>
		<path oryx:anchors="top left" id="_FE19AFCD-836A-48D9-B3AA-BC9CEA343998frame11" style="opacity:1;fill:none;stroke-width:1.5" d="M 3.5 4.5 L 13.5 4.5" stroke="#000000"/>
		<path oryx:anchors="top left" id="_FE19AFCD-836A-48D9-B3AA-BC9CEA343998frame12" style="opacity:1;fill:none;stroke-width:1.5" d="M 3.8 8.5 L 13.8 8.5" stroke="#000000"/>
		<path oryx:anchors="top left" id="_FE19AFCD-836A-48D9-B3AA-BC9CEA343998frame13" style="opacity:1;fill:none;stroke-width:1.5" d="M 6.3 12.5 L 16.3 12.5" stroke="#000000"/>
		<path oryx:anchors="top left" id="_FE19AFCD-836A-48D9-B3AA-BC9CEA343998frame14" style="opacity:1;fill:none;stroke-width:1.5" d="M 6.5 16.5 L 16.5 16.5" stroke="#000000"/>
	</g>
	
	<g id="_FE19AFCD-836A-48D9-B3AA-BC9CEA343998userTask" transform="scale(0.7,0.7) translate(8,8)" display="none">
		<path id="_FE19AFCD-836A-48D9-B3AA-BC9CEA343998frame15" oryx:anchors="top left" style="opacity:1;fill:#F4F6F7" stroke="#000000" d="M0.585,24.167h24.083v-7.833c0,0-2.333-3.917-7.083-5.167h-9.25    c-4.417,1.333-7.833,5.75-7.833,5.75L0.585,24.167z"/>
		<path id="_FE19AFCD-836A-48D9-B3AA-BC9CEA343998frame16" oryx:anchors="top left" style="opacity:1;fill:none" d="M 6 20 L 6 24" stroke="#000000"/>
		<path id="_FE19AFCD-836A-48D9-B3AA-BC9CEA343998frame17" oryx:anchors="top left" style="opacity:1;fill:none" d="M 20 20 L 20 24" stroke="#000000"/>
		<circle id="_FE19AFCD-836A-48D9-B3AA-BC9CEA343998frame18" oryx:anchors="top left" fill="black" cx="13.002" cy="5.916" r="5.417" stroke="#000000"/>
		<path id="_FE19AFCD-836A-48D9-B3AA-BC9CEA343998frame19" oryx:anchors="top left" style="opacity:1;fill:#F0EFF0;" stroke="#000000" d="M8.043,7.083c0,0,2.814-2.426,5.376-1.807s4.624-0.693,4.624-0.693    c0.25,1.688,0.042,3.75-1.458,5.584c0,0,1.083,0.75,1.083,1.5s0.125,1.875-1,3s-5.5,1.25-6.75,0S8.668,12.834,8.668,12    s0.583-1.25,1.25-1.917C8.835,9.5,7.419,7.708,8.043,7.083z"/>
	</g>
	
	<g id="_FE19AFCD-836A-48D9-B3AA-BC9CEA343998serviceTask" transform="scale(0.7,0.7) translate(8,8)" display="none">
		<polygon oryx:anchors="top left" id="_FE19AFCD-836A-48D9-B3AA-BC9CEA343998frame20" style="opacity:1;fill:#ffffff" stroke="#000000" points="15.392,5.064 17.954,2.502 20.347,4.895 17.786,7.455     18.729,9.732 22.353,9.732 22.353,13.115 18.731,13.115 17.788,15.392 20.351,17.955 17.958,20.347 15.397,17.786 13.12,18.729     13.12,22.353 9.737,22.353 9.737,18.731 7.46,17.788 4.897,20.35 2.506,17.958 5.066,15.397 4.124,13.12 0.5,13.12 0.5,9.737     4.121,9.737 5.065,7.461 2.503,4.898 4.895,2.506 7.455,5.066 9.732,4.125 9.732,0.5 13.116,0.5 13.116,4.121 "/>
		<circle oryx:anchors="top left" id="_FE19AFCD-836A-48D9-B3AA-BC9CEA343998frame21" style="opacity:1;fill:none" stroke="#000000" cx="11.427" cy="11.426" r="3.714"/>
		<polygon oryx:anchors="top left" id="_FE19AFCD-836A-48D9-B3AA-BC9CEA343998frame22" style="opacity:1;fill:#ffffff" stroke="#000000" points="21.392,11.064 23.954,8.502 26.347,10.895 23.786,13.455     24.729,15.732 28.353,15.732 28.353,19.115 24.731,19.115 23.788,21.392 26.351,23.955 23.958,26.347 21.397,23.786 19.12,24.729     19.12,28.353 15.737,28.353 15.737,24.731 13.46,23.788 10.897,26.35 8.506,23.958 11.066,21.397 10.124,19.12 6.5,19.12     6.5,15.737 10.121,15.737 11.065,13.461 8.503,10.898 10.895,8.506 13.455,11.066 15.732,10.125 15.732,6.5 19.116,6.5     19.116,10.121 "/>
		<circle oryx:anchors="top left" id="_FE19AFCD-836A-48D9-B3AA-BC9CEA343998frame23" style="opacity:1;fill:none;" stroke="#000000" cx="17.427" cy="17.426" r="3.714"/>
	</g>
	
	<g id="_FE19AFCD-836A-48D9-B3AA-BC9CEA343998sendTask" display="none">
		<path id="_FE19AFCD-836A-48D9-B3AA-BC9CEA343998stframe24" oryx:anchors="left top" stroke="#FFFFFF" fill="black" stroke-width="1" d="M8,11 L8,21 L24,21 L24,11 L16,17z"/>
		<path id="_FE19AFCD-836A-48D9-B3AA-BC9CEA343998stframe25" oryx:anchors="left top" stroke="#FFFFFF" fill="black" stroke-width="1" d="M7,10 L16,17 L25 10z"/>
	</g>
	
	<g id="_FE19AFCD-836A-48D9-B3AA-BC9CEA343998receiveTask" display="none">
		<path id="_FE19AFCD-836A-48D9-B3AA-BC9CEA343998frame26" oryx:anchors="left top" stroke="#000000" fill="none" stroke-width="1" d="M8,11 L8,21 L24,21 L24,11z M8,11 L16,17 L24,11"/>
	</g>
	
	<g id="_FE19AFCD-836A-48D9-B3AA-BC9CEA343998none" display="none"/>

	<g id="_FE19AFCD-836A-48D9-B3AA-BC9CEA343998sequential">
        <path oryx:anchors="bottom" fill="none" stroke="#000000" stroke-width="2" d="M46,76h10M46,72h10 M46,68h10" id="_FE19AFCD-836A-48D9-B3AA-BC9CEA343998__FE19AFCD-836A-48D9-B3AA-BC9CEA343998_20"/>
    </g>
  </g></g><g class="children" style="overflow:hidden"/><g class="edge"/></g><g class="controls"><g class="dockers"/><g class="magnets" transform="translate(195, 140)"><g pointer-events="all" display="none" transform="translate(-7, 12)"><circle cx="8" cy="8" r="4" stroke="none" fill="red" fill-opacity="0.3"/></g><g pointer-events="all" display="none" transform="translate(-7, 32)"><circle cx="8" cy="8" r="4" stroke="none" fill="red" fill-opacity="0.3"/></g><g pointer-events="all" display="none" transform="translate(-7, 52)"><circle cx="8" cy="8" r="4" stroke="none" fill="red" fill-opacity="0.3"/></g><g pointer-events="all" display="none" transform="translate(17, 71)"><circle cx="8" cy="8" r="4" stroke="none" fill="red" fill-opacity="0.3"/></g><g pointer-events="all" display="none" transform="translate(42, 71)"><circle cx="8" cy="8" r="4" stroke="none" fill="red" fill-opacity="0.3"/></g><g pointer-events="all" display="none" transform="translate(67, 71)"><circle cx="8" cy="8" r="4" stroke="none" fill="red" fill-opacity="0.3"/></g><g pointer-events="all" display="none" transform="translate(91, 12)"><circle cx="8" cy="8" r="4" stroke="none" fill="red" fill-opacity="0.3"/></g><g pointer-events="all" display="none" transform="translate(91, 32)"><circle cx="8" cy="8" r="4" stroke="none" fill="red" fill-opacity="0.3"/></g><g pointer-events="all" display="none" transform="translate(91, 52)"><circle cx="8" cy="8" r="4" stroke="none" fill="red" fill-opacity="0.3"/></g><g pointer-events="all" display="none" transform="translate(17, -7)"><circle cx="8" cy="8" r="4" stroke="none" fill="red" fill-opacity="0.3"/></g><g pointer-events="all" display="none" transform="translate(42, -7)"><circle cx="8" cy="8" r="4" stroke="none" fill="red" fill-opacity="0.3"/></g><g pointer-events="all" display="none" transform="translate(67, -7)"><circle cx="8" cy="8" r="4" stroke="none" fill="red" fill-opacity="0.3"/></g><g pointer-events="all" display="none" transform="translate(42, 32)"><circle cx="8" cy="8" r="4" stroke="none" fill="red" fill-opacity="0.3"/></g></g></g></g></g><g class="edge"><g id="_661A294F-05AA-46A3-A3F3-44939DFFEA2D" bpmn2nodeid="_EF3CBA47-CC4F-4B99-B3D6-E5D7483A5FD1"><g class="stencils"><g class="me"><g pointer-events="painted" bpmn2nodeid="_34B916F2-16FE-4B59-B840-8EC94E0B494C"><path id="_661A294F-05AA-46A3-A3F3-44939DFFEA2D_1" d="M375.6484375 180L434.1953125 180 " stroke="#000000" fill="none" stroke-width="2" stroke-linecap="round" stroke-linejoin="round" marker-start="url(#_661A294F-05AA-46A3-A3F3-44939DFFEA2Dstart)" marker-end="url(#_661A294F-05AA-46A3-A3F3-44939DFFEA2Dend)"/></g><text id="_661A294F-05AA-46A3-A3F3-44939DFFEA2Dtext_name" font-size="12" x="389.6484375" y="166" oryx:edgePosition="startTop" stroke-width="0pt" letter-spacing="-0.01px" fill="#000000" text-anchor="start" transform="rotate(360 375.6484375 180)" visibility="inherit" oryx:fontSize="12"/></g><g class="children" style="overflow:hidden"/><g class="edge"/></g><g class="controls"><g class="dockers"/><g class="magnets"/></g></g><g id="_952F2F68-A92F-4296-BC1C-2146488396F2" bpmn2nodeid="_6FDAA35B-D985-463C-B191-3993937F264C"><g class="stencils"><g class="me"><g pointer-events="painted" bpmn2nodeid="_9041B266-FE13-44CE-9AFE-8657C4DA7E5D"><path id="_952F2F68-A92F-4296-BC1C-2146488396F2_1" d="M535.390625 180L579.375 180 " stroke="#000000" fill="none" stroke-width="2" stroke-linecap="round" stroke-linejoin="round" marker-start="url(#_952F2F68-A92F-4296-BC1C-2146488396F2start)" marker-end="url(#_952F2F68-A92F-4296-BC1C-2146488396F2end)"/></g><text id="_952F2F68-A92F-4296-BC1C-2146488396F2text_name" font-size="12" x="549.390625" y="166" oryx:edgePosition="startTop" stroke-width="0pt" letter-spacing="-0.01px" fill="#000000" text-anchor="start" transform="rotate(360 535.390625 180)" visibility="inherit" oryx:fontSize="12"/></g><g class="children" style="overflow:hidden"/><g class="edge"/></g><g class="controls"><g class="dockers"/><g class="magnets"/></g></g><g id="_9A171725-ADC8-4390-A80B-F562487F0652" bpmn2nodeid="_5AE1057B-F15B-41CE-B38C-15CB4AC5BF19"><g class="stencils"><g class="me"><g pointer-events="painted" bpmn2nodeid="_FA677428-41AF-4350-AD7A-720618E5EE46"><path id="_9A171725-ADC8-4390-A80B-F562487F0652_1" d="M150.609375 180L194.15625 180 " stroke="#000000" fill="none" stroke-width="2" stroke-linecap="round" stroke-linejoin="round" marker-start="url(#_9A171725-ADC8-4390-A80B-F562487F0652start)" marker-end="url(#_9A171725-ADC8-4390-A80B-F562487F0652end)"/></g><text id="_9A171725-ADC8-4390-A80B-F562487F0652text_name" font-size="12" x="164.609375" y="166" oryx:edgePosition="startTop" stroke-width="0pt" letter-spacing="-0.01px" fill="#000000" text-anchor="start" transform="rotate(360 150.609375 180)" visibility="inherit" oryx:fontSize="12"/></g><g class="children" style="overflow:hidden"/><g class="edge"/></g><g class="controls"><g class="dockers"/><g class="magnets"/></g></g><g id="_0AAB89DD-970E-464C-84B8-97F97F2F7452" bpmn2nodeid="_5C242C62-8F32-4BFA-93DB-A758491E72EC"><g class="stencils"><g class="me"><g pointer-events="painted" bpmn2nodeid="_017CC3B5-27FE-4637-B11A-0F96D17DD9D2"><path id="_0AAB89DD-970E-464C-84B8-97F97F2F7452_1" d="M295.4140625 180L344.625 180 " stroke="#000000" fill="none" stroke-width="2" stroke-linecap="round" stroke-linejoin="round" marker-start="url(#_0AAB89DD-970E-464C-84B8-97F97F2F7452start)" marker-end="url(#_0AAB89DD-970E-464C-84B8-97F97F2F7452end)"/></g><text id="_0AAB89DD-970E-464C-84B8-97F97F2F7452text_name" font-size="12" x="309.4140625" y="166" oryx:edgePosition="startTop" stroke-width="0pt" letter-spacing="-0.01px" fill="#000000" text-anchor="start" transform="rotate(360 295.4140625 180)" visibility="inherit" oryx:fontSize="12"/></g><g class="children" style="overflow:hidden"/><g class="edge"/></g><g class="controls"><g class="dockers"/><g class="magnets"/></g></g></g><text id="_C7E403E5-BE92-4827-B7D9-881DA14B3D5B" style="stroke-width:1;fill:rgb(177,194,214);font-family:arial;font-weight:bold" font-size="12" onclick="ORYX.Plugins.CanvasTitle.openTextualAnalysis()" onmouseover="ORYX.Plugins.CanvasTitle.addToolTip('_C7E403E5-BE92-4827-B7D9-881DA14B3D5B')" transform="translate(10, 20)"/></g></g></svg>