<svg xmlns="http://www.w3.org/2000/svg" xmlns:oryx="http://oryx-editor.org" id="_6991C82E-D167-4A5A-927F-5AE04A4C257F" width="538" height="138" xmlns:xlink="http://www.w3.org/1999/xlink" xmlns:svg="http://www.w3.org/2000/svg"><defs><marker id="_21C2255E-EBDB-4E5B-931A-BB6FF5F17D70start" refX="1" refY="5" markerUnits="userSpaceOnUse" markerWidth="17" markerHeight="11" orient="auto" fill="#000000" stroke="#000000">
	  		<path id="_21C2255E-EBDB-4E5B-931A-BB6FF5F17D70conditional" d="M 0 5 L 8 0 L 16 5 L 8 10 L 0 5" fill="white" stroke="#000000" stroke-width="1" display="none"/>
			<path id="_21C2255E-EBDB-4E5B-931A-BB6FF5F17D70default" d="M 5 0 L 11 10" fill="white" stroke="#000000" stroke-width="1" display="none"/>
	  	</marker><marker id="_21C2255E-EBDB-4E5B-931A-BB6FF5F17D70end" refX="15" refY="6" markerUnits="userSpaceOnUse" markerWidth="15" markerHeight="12" orient="auto" fill="#000000" stroke="#000000">
	  		<path id="_21C2255E-EBDB-4E5B-931A-BB6FF5F17D70frame2" d="M 0 1 L 15 6 L 0 11z" fill="#000000" stroke="#000000" stroke-linejoin="round" stroke-width="2"/>
	  	</marker><marker id="_D1094A9E-767A-4A51-99A0-1DF9D15ECB80start" refX="1" refY="5" markerUnits="userSpaceOnUse" markerWidth="17" markerHeight="11" orient="auto" fill="#000000" stroke="#000000">
	  		<path id="_D1094A9E-767A-4A51-99A0-1DF9D15ECB80conditional" d="M 0 5 L 8 0 L 16 5 L 8 10 L 0 5" fill="white" stroke="#000000" stroke-width="1" display="none"/>
			<path id="_D1094A9E-767A-4A51-99A0-1DF9D15ECB80default" d="M 5 0 L 11 10" fill="white" stroke="#000000" stroke-width="1" display="none"/>
	  	</marker><marker id="_D1094A9E-767A-4A51-99A0-1DF9D15ECB80end" refX="15" refY="6" markerUnits="userSpaceOnUse" markerWidth="15" markerHeight="12" orient="auto" fill="#000000" stroke="#000000">
	  		<path id="_D1094A9E-767A-4A51-99A0-1DF9D15ECB80frame2" d="M 0 1 L 15 6 L 0 11z" fill="#000000" stroke="#000000" stroke-linejoin="round" stroke-width="2"/>
	  	</marker><marker id="_CB6D423F-68D6-4273-98F2-717023EC0D4Astart" refX="1" refY="5" markerUnits="userSpaceOnUse" markerWidth="17" markerHeight="11" orient="auto" fill="#000000" stroke="#000000">
	  		<path id="_CB6D423F-68D6-4273-98F2-717023EC0D4Aconditional" d="M 0 5 L 8 0 L 16 5 L 8 10 L 0 5" fill="white" stroke="#000000" stroke-width="1" display="none"/>
			<path id="_CB6D423F-68D6-4273-98F2-717023EC0D4Adefault" d="M 5 0 L 11 10" fill="white" stroke="#000000" stroke-width="1" display="none"/>
	  	</marker><marker id="_CB6D423F-68D6-4273-98F2-717023EC0D4Aend" refX="15" refY="6" markerUnits="userSpaceOnUse" markerWidth="15" markerHeight="12" orient="auto" fill="#000000" stroke="#000000">
	  		<path id="_CB6D423F-68D6-4273-98F2-717023EC0D4Aframe2" d="M 0 1 L 15 6 L 0 11z" fill="#000000" stroke="#000000" stroke-linejoin="round" stroke-width="2"/>
	  	</marker><marker id="_80FF6F52-E603-4A5E-98E1-C382A43CAFD1start" refX="1" refY="5" markerUnits="userSpaceOnUse" markerWidth="17" markerHeight="11" orient="auto" fill="#000000" stroke="#000000">
	  		<path id="_80FF6F52-E603-4A5E-98E1-C382A43CAFD1conditional" d="M 0 5 L 8 0 L 16 5 L 8 10 L 0 5" fill="white" stroke="#000000" stroke-width="1" display="none"/>
			<path id="_80FF6F52-E603-4A5E-98E1-C382A43CAFD1default" d="M 5 0 L 11 10" fill="white" stroke="#000000" stroke-width="1" display="none"/>
	  	</marker><marker id="_80FF6F52-E603-4A5E-98E1-C382A43CAFD1end" refX="15" refY="6" markerUnits="userSpaceOnUse" markerWidth="15" markerHeight="12" orient="auto" fill="#000000" stroke="#000000">
	  		<path id="_80FF6F52-E603-4A5E-98E1-C382A43CAFD1frame2" d="M 0 1 L 15 6 L 0 11z" fill="#000000" stroke="#000000" stroke-linejoin="round" stroke-width="2"/>
	  	</marker></defs><g stroke="none" font-family="Verdana, sans-serif" font-size-adjust="none" font-style="normal" font-variant="normal" font-weight="normal" line-heigth="normal" font-size="12"><g class="stencils" transform="translate(-95, -111)"><g class="me"/><g class="children"><g id="_045FE1E8-B4A3-4AC3-A863-CB846EC5EAD3" bpmn2nodeid="processStartEvent"><g class="stencils" transform="translate(120, 165)"><g class="me"><g pointer-events="fill" id="_045FE1E8-B4A3-4AC3-A863-CB846EC5EAD3">
  
    <defs id="_045FE1E8-B4A3-4AC3-A863-CB846EC5EAD3__045FE1E8-B4A3-4AC3-A863-CB846EC5EAD3_5">
		<radialGradient id="_045FE1E8-B4A3-4AC3-A863-CB846EC5EAD3background" cx="10%" cy="10%" r="100%" fx="10%" fy="10%">
			<stop offset="0%" stop-color="#ffffff" stop-opacity="1" id="_045FE1E8-B4A3-4AC3-A863-CB846EC5EAD3__045FE1E8-B4A3-4AC3-A863-CB846EC5EAD3_6"/>
			<stop id="_045FE1E8-B4A3-4AC3-A863-CB846EC5EAD3fill_el" offset="100%" stop-color="#9acd32" stop-opacity="1"/>
		</radialGradient>
	</defs>
	
    <circle id="_045FE1E8-B4A3-4AC3-A863-CB846EC5EAD3bg_frame" cx="15" cy="15" r="15" stroke="#000000" fill="url(#_045FE1E8-B4A3-4AC3-A863-CB846EC5EAD3background) white" stroke-width="1" style="stroke-dasharray: 5.5, 3"/>

    <circle id="_045FE1E8-B4A3-4AC3-A863-CB846EC5EAD3frame" cx="15" cy="15" r="15" stroke="#000000" fill="none" stroke-width="1"/>

	<text font-size="11" id="_045FE1E8-B4A3-4AC3-A863-CB846EC5EAD3text_name" x="15" y="32" oryx:align="top center" stroke="black" stroke-width="0pt" letter-spacing="-0.01px" fill="#000000" text-anchor="middle" transform="rotate(0 15 32)" visibility="inherit" oryx:fontSize="11"/>
  </g></g><g class="children" style="overflow:hidden"/><g class="edge"/></g><g class="controls"><g class="dockers"/><g class="magnets" transform="translate(120, 165)"><g pointer-events="all" display="none" transform="translate(7, 7)"><circle cx="8" cy="8" r="4" stroke="none" fill="red" fill-opacity="0.3"/></g></g></g></g><g id="_DC879B98-9EA8-47A2-B857-346FF1B2CC73" bpmn2nodeid="_6604534C-DD3E-494F-BB17-FD2D58F4E0F9"><g class="stencils" transform="translate(345, 165)"><g class="me"><g pointer-events="fill" id="_DC879B98-9EA8-47A2-B857-346FF1B2CC73">

    <defs id="_DC879B98-9EA8-47A2-B857-346FF1B2CC73__DC879B98-9EA8-47A2-B857-346FF1B2CC73_6">
		<radialGradient id="_DC879B98-9EA8-47A2-B857-346FF1B2CC73background" cx="10%" cy="10%" r="100%" fx="10%" fy="10%">
			<stop offset="0%" stop-color="#ffffff" stop-opacity="1" id="_DC879B98-9EA8-47A2-B857-346FF1B2CC73__DC879B98-9EA8-47A2-B857-346FF1B2CC73_7"/>
			<stop id="_DC879B98-9EA8-47A2-B857-346FF1B2CC73fill_el" offset="100%" stop-color="#f5deb3" stop-opacity="1"/>
		</radialGradient>
	</defs>
	
    <circle id="_DC879B98-9EA8-47A2-B857-346FF1B2CC73bg_frame" cx="15" cy="15" r="15" stroke="#a0522d" fill="url(#_DC879B98-9EA8-47A2-B857-346FF1B2CC73background) white" stroke-width="1" style="stroke-dasharray: 5.5, 3"/>
    	
    <circle id="_DC879B98-9EA8-47A2-B857-346FF1B2CC73frame" cx="15" cy="15" r="12" stroke="#a0522d" fill="none" stroke-width="1" style="stroke-dasharray: 4.5, 3" display="inherit"/>
    
    <circle id="_DC879B98-9EA8-47A2-B857-346FF1B2CC73frame2" cx="15" cy="15" r="15" stroke="#a0522d" fill="none" stroke-width="1" display="inherit"/>
    <circle id="_DC879B98-9EA8-47A2-B857-346FF1B2CC73frame3" cx="15" cy="15" r="12" stroke="#a0522d" fill="none" stroke-width="1"/>
	<path id="_DC879B98-9EA8-47A2-B857-346FF1B2CC73frame4" stroke="#a0522d" d=" M7.7124971 20.247342  L22.333334 20.247342  L15.022915000000001 7.575951200000001  L7.7124971 20.247342  z" style="fill:none;stroke-width:1.4;stroke-miterlimit:4;stroke-dasharray:none"/>
	<text font-size="11" id="_DC879B98-9EA8-47A2-B857-346FF1B2CC73text_name" x="15" y="32" oryx:align="top center" stroke="black" stroke-width="0pt" letter-spacing="-0.01px" fill="#000000" text-anchor="middle" transform="rotate(0 15 32)" visibility="inherit" oryx:fontSize="11"/>
  </g></g><g class="children" style="overflow:hidden"/><g class="edge"/></g><g class="controls"><g class="dockers"/><g class="magnets" transform="translate(345, 165)"><g pointer-events="all" display="none" transform="translate(7, 7)"><circle cx="8" cy="8" r="4" stroke="none" fill="red" fill-opacity="0.3"/></g></g></g></g><g id="_C93C410E-2FAC-4151-BC07-3A1F8A51DC9E" bpmn2nodeid="_06CD7F85-D811-4DB9-9EA5-91DC6127B53E"><g class="stencils" transform="translate(435, 140)"><g class="me"><g pointer-events="fill" oryx:minimumSize="50 40" id="_C93C410E-2FAC-4151-BC07-3A1F8A51DC9E">
  	<defs id="_C93C410E-2FAC-4151-BC07-3A1F8A51DC9E__C93C410E-2FAC-4151-BC07-3A1F8A51DC9E_17">
		<radialGradient id="_C93C410E-2FAC-4151-BC07-3A1F8A51DC9Ebackground" cx="10%" cy="10%" r="100%" fx="10%" fy="10%">
			<stop offset="0%" stop-color="#ffffff" stop-opacity="1" id="_C93C410E-2FAC-4151-BC07-3A1F8A51DC9E__C93C410E-2FAC-4151-BC07-3A1F8A51DC9E_18"/>
			<stop id="_C93C410E-2FAC-4151-BC07-3A1F8A51DC9Efill_el" offset="100%" stop-color="#fafad2" stop-opacity="1"/>
		</radialGradient>
		<radialGradient id="_C93C410E-2FAC-4151-BC07-3A1F8A51DC9Eborderbackground" cx="10%" cy="10%" r="100%" fx="10%" fy="10%">
			<stop offset="0%" stop-color="#ffffff" stop-opacity="1" id="_C93C410E-2FAC-4151-BC07-3A1F8A51DC9E__C93C410E-2FAC-4151-BC07-3A1F8A51DC9E_19"/>
			<stop id="_C93C410E-2FAC-4151-BC07-3A1F8A51DC9Efill_border" offset="100%" stop-color="#000000" stop-opacity="1" stroke="#000000"/>
		</radialGradient>
	</defs>
	
	<rect id="_C93C410E-2FAC-4151-BC07-3A1F8A51DC9Etext_frame" oryx:anchors="bottom top right left" x="1" y="1" width="94" height="79" rx="10" ry="10" stroke="none" stroke-width="0" fill="none"/>
	<rect id="_C93C410E-2FAC-4151-BC07-3A1F8A51DC9Ebg_frame" oryx:resize="vertical horizontal" x="0" y="0" width="100" height="80" rx="10" ry="10" stroke="#000000" stroke-width="1" fill="url(#_C93C410E-2FAC-4151-BC07-3A1F8A51DC9Ebackground) #ffffcc"/>
		<text font-size="12" id="_C93C410E-2FAC-4151-BC07-3A1F8A51DC9Etext_name" x="50" y="40" oryx:align="middle center" oryx:fittoelem="text_frame" stroke="black" text-anchor="middle" stroke-width="0pt" letter-spacing="-0.01px" fill="#000000" transform="rotate(0 50 40)" visibility="inherit" oryx:fontSize="12"><tspan x="50" y="40" dy="-7">Set Signal </tspan><tspan x="50" y="40" dy="5">Data on Parent </tspan><tspan x="50" y="40" dy="17">Process</tspan></text>
    <g id="_C93C410E-2FAC-4151-BC07-3A1F8A51DC9EmanualTask" transform="scale(0.7,0.7) translate(8,8)" display="none">
    	<path oryx:anchors="top left" id="_C93C410E-2FAC-4151-BC07-3A1F8A51DC9Eframe" style="opacity:1;fill:none;fill-opacity:1;stroke-width:1" d="M0.5,3.751l4.083-3.25c0,0,11.166,0.083,12.083,0.083s-2.417,2.917-1.5,2.917     s11.667,0,12.584,0c1.166,1.708-0.168,3.167-0.834,3.667s0.875,1.917-1,4.417c-0.75,0.25,0.75,1.875-1.333,3.333     c-1.167,0.583,0.583,1.542-1.25,2.833c-1.167,0-20.833,0.083-20.833,0.083l-2-1.333V3.751z" stroke="#000000"/>
		<path id="_C93C410E-2FAC-4151-BC07-3A1F8A51DC9Eframe2" oryx:anchors="top left" style="opacity:1;fill:none;stroke-width:2" d="M 13.5 7 L 27 7" stroke="#000000"/>
		<path id="_C93C410E-2FAC-4151-BC07-3A1F8A51DC9Eframe3" oryx:anchors="top left" style="opacity:1;fill:none;stroke-width:2" d="M 13.5 11 L 26 11" stroke="#000000"/>
		<path id="_C93C410E-2FAC-4151-BC07-3A1F8A51DC9Eframe4" oryx:anchors="top left" style="opacity:1;fill:none;stroke-width:1.5" d="M 14 14.5 L 25 14.5" stroke="#000000"/>
		<path id="_C93C410E-2FAC-4151-BC07-3A1F8A51DC9Eframe5" oryx:anchors="top left" style="opacity:1;fill:none;stroke-width:1.5" d="M 8.2 3.1 L 15 3.1" stroke="#000000"/>
	</g>
	
	<g id="_C93C410E-2FAC-4151-BC07-3A1F8A51DC9EbusinessRuleTask" transform="scale(0.7,0.7) translate(8,8)" display="none">
		<rect id="_C93C410E-2FAC-4151-BC07-3A1F8A51DC9Eframe6" oryx:anchors="top left" x="0" y="0" width="22" height="4" style="opacity:1;fill:#B3B1B3;fill-opacity:1;" stroke="#000000"/>
		<rect id="_C93C410E-2FAC-4151-BC07-3A1F8A51DC9Eframe7" oryx:anchors="top left" x="0" y="4" style="opacity:1;fill:none;" width="22" height="12" stroke="#000000"/>
		<path id="_C93C410E-2FAC-4151-BC07-3A1F8A51DC9Eframe8" oryx:anchors="top left" style="opacity:1;fill:none;" d="M 0 10 L 22 10" stroke="#000000"/>
		<path id="_C93C410E-2FAC-4151-BC07-3A1F8A51DC9Eframe9" oryx:anchors="top left" style="opacity:1; fill:none;" d="M 7 4 L 7 16" stroke="#000000"/>
	</g>
	
	<g id="_C93C410E-2FAC-4151-BC07-3A1F8A51DC9EscriptTask" transform="scale(0.7,0.7) translate(8,8)" display="inherit">
		<path oryx:anchors="top left" id="_C93C410E-2FAC-4151-BC07-3A1F8A51DC9Eframe10" style="opacity:1;fill:none;" stroke="#000000" d="M6.402,0.5h14.5c0,0-5.833,2.833-5.833,5.583s4.417,6,4.417,9.167    s-4.167,5.083-4.167,5.083H0.235c0,0,5-2.667,5-5s-4.583-6.75-4.583-9.25S6.402,0.5,6.402,0.5z"/>
		<path oryx:anchors="top left" id="_C93C410E-2FAC-4151-BC07-3A1F8A51DC9Eframe11" style="opacity:1;fill:none;stroke-width:1.5" d="M 3.5 4.5 L 13.5 4.5" stroke="#000000"/>
		<path oryx:anchors="top left" id="_C93C410E-2FAC-4151-BC07-3A1F8A51DC9Eframe12" style="opacity:1;fill:none;stroke-width:1.5" d="M 3.8 8.5 L 13.8 8.5" stroke="#000000"/>
		<path oryx:anchors="top left" id="_C93C410E-2FAC-4151-BC07-3A1F8A51DC9Eframe13" style="opacity:1;fill:none;stroke-width:1.5" d="M 6.3 12.5 L 16.3 12.5" stroke="#000000"/>
		<path oryx:anchors="top left" id="_C93C410E-2FAC-4151-BC07-3A1F8A51DC9Eframe14" style="opacity:1;fill:none;stroke-width:1.5" d="M 6.5 16.5 L 16.5 16.5" stroke="#000000"/>
	</g>
	
	<g id="_C93C410E-2FAC-4151-BC07-3A1F8A51DC9EuserTask" transform="scale(0.7,0.7) translate(8,8)" display="none">
		<path id="_C93C410E-2FAC-4151-BC07-3A1F8A51DC9Eframe15" oryx:anchors="top left" style="opacity:1;fill:#F4F6F7" stroke="#000000" d="M0.585,24.167h24.083v-7.833c0,0-2.333-3.917-7.083-5.167h-9.25    c-4.417,1.333-7.833,5.75-7.833,5.75L0.585,24.167z"/>
		<path id="_C93C410E-2FAC-4151-BC07-3A1F8A51DC9Eframe16" oryx:anchors="top left" style="opacity:1;fill:none" d="M 6 20 L 6 24" stroke="#000000"/>
		<path id="_C93C410E-2FAC-4151-BC07-3A1F8A51DC9Eframe17" oryx:anchors="top left" style="opacity:1;fill:none" d="M 20 20 L 20 24" stroke="#000000"/>
		<circle id="_C93C410E-2FAC-4151-BC07-3A1F8A51DC9Eframe18" oryx:anchors="top left" fill="black" cx="13.002" cy="5.916" r="5.417" stroke="#000000"/>
		<path id="_C93C410E-2FAC-4151-BC07-3A1F8A51DC9Eframe19" oryx:anchors="top left" style="opacity:1;fill:#F0EFF0;" stroke="#000000" d="M8.043,7.083c0,0,2.814-2.426,5.376-1.807s4.624-0.693,4.624-0.693    c0.25,1.688,0.042,3.75-1.458,5.584c0,0,1.083,0.75,1.083,1.5s0.125,1.875-1,3s-5.5,1.25-6.75,0S8.668,12.834,8.668,12    s0.583-1.25,1.25-1.917C8.835,9.5,7.419,7.708,8.043,7.083z"/>
	</g>
	
	<g id="_C93C410E-2FAC-4151-BC07-3A1F8A51DC9EserviceTask" transform="scale(0.7,0.7) translate(8,8)" display="none">
		<polygon oryx:anchors="top left" id="_C93C410E-2FAC-4151-BC07-3A1F8A51DC9Eframe20" style="opacity:1;fill:#ffffff" stroke="#000000" points="15.392,5.064 17.954,2.502 20.347,4.895 17.786,7.455     18.729,9.732 22.353,9.732 22.353,13.115 18.731,13.115 17.788,15.392 20.351,17.955 17.958,20.347 15.397,17.786 13.12,18.729     13.12,22.353 9.737,22.353 9.737,18.731 7.46,17.788 4.897,20.35 2.506,17.958 5.066,15.397 4.124,13.12 0.5,13.12 0.5,9.737     4.121,9.737 5.065,7.461 2.503,4.898 4.895,2.506 7.455,5.066 9.732,4.125 9.732,0.5 13.116,0.5 13.116,4.121 "/>
		<circle oryx:anchors="top left" id="_C93C410E-2FAC-4151-BC07-3A1F8A51DC9Eframe21" style="opacity:1;fill:none" stroke="#000000" cx="11.427" cy="11.426" r="3.714"/>
		<polygon oryx:anchors="top left" id="_C93C410E-2FAC-4151-BC07-3A1F8A51DC9Eframe22" style="opacity:1;fill:#ffffff" stroke="#000000" points="21.392,11.064 23.954,8.502 26.347,10.895 23.786,13.455     24.729,15.732 28.353,15.732 28.353,19.115 24.731,19.115 23.788,21.392 26.351,23.955 23.958,26.347 21.397,23.786 19.12,24.729     19.12,28.353 15.737,28.353 15.737,24.731 13.46,23.788 10.897,26.35 8.506,23.958 11.066,21.397 10.124,19.12 6.5,19.12     6.5,15.737 10.121,15.737 11.065,13.461 8.503,10.898 10.895,8.506 13.455,11.066 15.732,10.125 15.732,6.5 19.116,6.5     19.116,10.121 "/>
		<circle oryx:anchors="top left" id="_C93C410E-2FAC-4151-BC07-3A1F8A51DC9Eframe23" style="opacity:1;fill:none;" stroke="#000000" cx="17.427" cy="17.426" r="3.714"/>
	</g>
	
	<g id="_C93C410E-2FAC-4151-BC07-3A1F8A51DC9EsendTask" display="none">
		<path id="_C93C410E-2FAC-4151-BC07-3A1F8A51DC9Estframe24" oryx:anchors="left top" stroke="#FFFFFF" fill="black" stroke-width="1" d="M8,11 L8,21 L24,21 L24,11 L16,17z"/>
		<path id="_C93C410E-2FAC-4151-BC07-3A1F8A51DC9Estframe25" oryx:anchors="left top" stroke="#FFFFFF" fill="black" stroke-width="1" d="M7,10 L16,17 L25 10z"/>
	</g>
	
	<g id="_C93C410E-2FAC-4151-BC07-3A1F8A51DC9EreceiveTask" display="none">
		<path id="_C93C410E-2FAC-4151-BC07-3A1F8A51DC9Eframe26" oryx:anchors="left top" stroke="#000000" fill="none" stroke-width="1" d="M8,11 L8,21 L24,21 L24,11z M8,11 L16,17 L24,11"/>
	</g>
	
	<g id="_C93C410E-2FAC-4151-BC07-3A1F8A51DC9Enone" display="none"/>

	<g id="_C93C410E-2FAC-4151-BC07-3A1F8A51DC9Esequential">
        <path oryx:anchors="bottom" fill="none" stroke="#000000" stroke-width="2" d="M46,76h10M46,72h10 M46,68h10" id="_C93C410E-2FAC-4151-BC07-3A1F8A51DC9E__C93C410E-2FAC-4151-BC07-3A1F8A51DC9E_20"/>
    </g>
  </g></g><g class="children" style="overflow:hidden"/><g class="edge"/></g><g class="controls"><g class="dockers"/><g class="magnets" transform="translate(435, 140)"><g pointer-events="all" display="none" transform="translate(-7, 12)"><circle cx="8" cy="8" r="4" stroke="none" fill="red" fill-opacity="0.3"/></g><g pointer-events="all" display="none" transform="translate(-7, 32)"><circle cx="8" cy="8" r="4" stroke="none" fill="red" fill-opacity="0.3"/></g><g pointer-events="all" display="none" transform="translate(-7, 52)"><circle cx="8" cy="8" r="4" stroke="none" fill="red" fill-opacity="0.3"/></g><g pointer-events="all" display="none" transform="translate(17, 71)"><circle cx="8" cy="8" r="4" stroke="none" fill="red" fill-opacity="0.3"/></g><g pointer-events="all" display="none" transform="translate(42, 71)"><circle cx="8" cy="8" r="4" stroke="none" fill="red" fill-opacity="0.3"/></g><g pointer-events="all" display="none" transform="translate(67, 71)"><circle cx="8" cy="8" r="4" stroke="none" fill="red" fill-opacity="0.3"/></g><g pointer-events="all" display="none" transform="translate(91, 12)"><circle cx="8" cy="8" r="4" stroke="none" fill="red" fill-opacity="0.3"/></g><g pointer-events="all" display="none" transform="translate(91, 32)"><circle cx="8" cy="8" r="4" stroke="none" fill="red" fill-opacity="0.3"/></g><g pointer-events="all" display="none" transform="translate(91, 52)"><circle cx="8" cy="8" r="4" stroke="none" fill="red" fill-opacity="0.3"/></g><g pointer-events="all" display="none" transform="translate(17, -7)"><circle cx="8" cy="8" r="4" stroke="none" fill="red" fill-opacity="0.3"/></g><g pointer-events="all" display="none" transform="translate(42, -7)"><circle cx="8" cy="8" r="4" stroke="none" fill="red" fill-opacity="0.3"/></g><g pointer-events="all" display="none" transform="translate(67, -7)"><circle cx="8" cy="8" r="4" stroke="none" fill="red" fill-opacity="0.3"/></g><g pointer-events="all" display="none" transform="translate(42, 32)"><circle cx="8" cy="8" r="4" stroke="none" fill="red" fill-opacity="0.3"/></g></g></g></g><g id="_B3AAEB79-2E1F-4EF5-99E3-F7911E62DF29" bpmn2nodeid="_CE9917B1-4332-4006-B5F4-052D56F3C25F"><g class="stencils" transform="translate(580, 166)"><g class="me"><g pointer-events="fill" id="_B3AAEB79-2E1F-4EF5-99E3-F7911E62DF29">

    <defs id="_B3AAEB79-2E1F-4EF5-99E3-F7911E62DF29__B3AAEB79-2E1F-4EF5-99E3-F7911E62DF29_5">
		<radialGradient id="_B3AAEB79-2E1F-4EF5-99E3-F7911E62DF29background" cx="10%" cy="10%" r="100%" fx="10%" fy="10%">
			<stop offset="0%" stop-color="#ffffff" stop-opacity="1" id="_B3AAEB79-2E1F-4EF5-99E3-F7911E62DF29__B3AAEB79-2E1F-4EF5-99E3-F7911E62DF29_6"/>
			<stop id="_B3AAEB79-2E1F-4EF5-99E3-F7911E62DF29fill_el" offset="100%" stop-color="#ff6347" stop-opacity="1"/>
		</radialGradient>
	</defs>
	
    <circle id="_B3AAEB79-2E1F-4EF5-99E3-F7911E62DF29bg_frame" cx="14" cy="14" r="14" stroke="#000000" fill="url(#_B3AAEB79-2E1F-4EF5-99E3-F7911E62DF29background) white" stroke-width="3"/>
	<text font-size="11" id="_B3AAEB79-2E1F-4EF5-99E3-F7911E62DF29text_name" x="14" y="30" oryx:align="top center" stroke="black" stroke-width="0pt" letter-spacing="-0.01px" fill="#000000" text-anchor="middle" transform="rotate(0 14 30)" visibility="inherit" oryx:fontSize="11"/>
  </g></g><g class="children" style="overflow:hidden"/><g class="edge"/></g><g class="controls"><g class="dockers"/><g class="magnets" transform="translate(580, 166)"><g pointer-events="all" display="none" transform="translate(6, 6)"><circle cx="8" cy="8" r="4" stroke="none" fill="red" fill-opacity="0.3"/></g></g></g></g><g id="_6CFA9F03-0FAE-4B4F-959E-7726759C2981" bpmn2nodeid="_B1E8E858-C1E9-4728-80A6-8BEB9BEB6E79"><g class="stencils" transform="translate(195, 140)"><g class="me"><g pointer-events="fill" oryx:minimumSize="50 40" id="_6CFA9F03-0FAE-4B4F-959E-7726759C2981">
  	<defs id="_6CFA9F03-0FAE-4B4F-959E-7726759C2981__6CFA9F03-0FAE-4B4F-959E-7726759C2981_17">
		<radialGradient id="_6CFA9F03-0FAE-4B4F-959E-7726759C2981background" cx="10%" cy="10%" r="100%" fx="10%" fy="10%">
			<stop offset="0%" stop-color="#ffffff" stop-opacity="1" id="_6CFA9F03-0FAE-4B4F-959E-7726759C2981__6CFA9F03-0FAE-4B4F-959E-7726759C2981_18"/>
			<stop id="_6CFA9F03-0FAE-4B4F-959E-7726759C2981fill_el" offset="100%" stop-color="#fafad2" stop-opacity="1"/>
		</radialGradient>
		<radialGradient id="_6CFA9F03-0FAE-4B4F-959E-7726759C2981borderbackground" cx="10%" cy="10%" r="100%" fx="10%" fy="10%">
			<stop offset="0%" stop-color="#ffffff" stop-opacity="1" id="_6CFA9F03-0FAE-4B4F-959E-7726759C2981__6CFA9F03-0FAE-4B4F-959E-7726759C2981_19"/>
			<stop id="_6CFA9F03-0FAE-4B4F-959E-7726759C2981fill_border" offset="100%" stop-color="#000000" stop-opacity="1" stroke="#000000"/>
		</radialGradient>
	</defs>
	
	<rect id="_6CFA9F03-0FAE-4B4F-959E-7726759C2981text_frame" oryx:anchors="bottom top right left" x="1" y="1" width="94" height="79" rx="10" ry="10" stroke="none" stroke-width="0" fill="none"/>
	<rect id="_6CFA9F03-0FAE-4B4F-959E-7726759C2981bg_frame" oryx:resize="vertical horizontal" x="0" y="0" width="100" height="80" rx="10" ry="10" stroke="#000000" stroke-width="1" fill="url(#_6CFA9F03-0FAE-4B4F-959E-7726759C2981background) #ffffcc"/>
		<text font-size="12" id="_6CFA9F03-0FAE-4B4F-959E-7726759C2981text_name" x="50" y="40" oryx:align="middle center" oryx:fittoelem="text_frame" stroke="black" text-anchor="middle" stroke-width="0pt" letter-spacing="-0.01px" fill="#000000" transform="rotate(0 50 40)" visibility="inherit" oryx:fontSize="12"><tspan x="50" y="40" dy="-13">Set Signal </tspan><tspan x="50" y="40" dy="-1">Name With </tspan><tspan x="50" y="40" dy="11" id="ext-gen592">Parent Process </tspan><tspan x="50" y="40" dy="23">ID</tspan></text>
    <g id="_6CFA9F03-0FAE-4B4F-959E-7726759C2981manualTask" transform="scale(0.7,0.7) translate(8,8)" display="none">
    	<path oryx:anchors="top left" id="_6CFA9F03-0FAE-4B4F-959E-7726759C2981frame" style="opacity:1;fill:none;fill-opacity:1;stroke-width:1" d="M0.5,3.751l4.083-3.25c0,0,11.166,0.083,12.083,0.083s-2.417,2.917-1.5,2.917     s11.667,0,12.584,0c1.166,1.708-0.168,3.167-0.834,3.667s0.875,1.917-1,4.417c-0.75,0.25,0.75,1.875-1.333,3.333     c-1.167,0.583,0.583,1.542-1.25,2.833c-1.167,0-20.833,0.083-20.833,0.083l-2-1.333V3.751z" stroke="#000000"/>
		<path id="_6CFA9F03-0FAE-4B4F-959E-7726759C2981frame2" oryx:anchors="top left" style="opacity:1;fill:none;stroke-width:2" d="M 13.5 7 L 27 7" stroke="#000000"/>
		<path id="_6CFA9F03-0FAE-4B4F-959E-7726759C2981frame3" oryx:anchors="top left" style="opacity:1;fill:none;stroke-width:2" d="M 13.5 11 L 26 11" stroke="#000000"/>
		<path id="_6CFA9F03-0FAE-4B4F-959E-7726759C2981frame4" oryx:anchors="top left" style="opacity:1;fill:none;stroke-width:1.5" d="M 14 14.5 L 25 14.5" stroke="#000000"/>
		<path id="_6CFA9F03-0FAE-4B4F-959E-7726759C2981frame5" oryx:anchors="top left" style="opacity:1;fill:none;stroke-width:1.5" d="M 8.2 3.1 L 15 3.1" stroke="#000000"/>
	</g>
	
	<g id="_6CFA9F03-0FAE-4B4F-959E-7726759C2981businessRuleTask" transform="scale(0.7,0.7) translate(8,8)" display="none">
		<rect id="_6CFA9F03-0FAE-4B4F-959E-7726759C2981frame6" oryx:anchors="top left" x="0" y="0" width="22" height="4" style="opacity:1;fill:#B3B1B3;fill-opacity:1;" stroke="#000000"/>
		<rect id="_6CFA9F03-0FAE-4B4F-959E-7726759C2981frame7" oryx:anchors="top left" x="0" y="4" style="opacity:1;fill:none;" width="22" height="12" stroke="#000000"/>
		<path id="_6CFA9F03-0FAE-4B4F-959E-7726759C2981frame8" oryx:anchors="top left" style="opacity:1;fill:none;" d="M 0 10 L 22 10" stroke="#000000"/>
		<path id="_6CFA9F03-0FAE-4B4F-959E-7726759C2981frame9" oryx:anchors="top left" style="opacity:1; fill:none;" d="M 7 4 L 7 16" stroke="#000000"/>
	</g>
	
	<g id="_6CFA9F03-0FAE-4B4F-959E-7726759C2981scriptTask" transform="scale(0.7,0.7) translate(8,8)" display="inherit">
		<path oryx:anchors="top left" id="_6CFA9F03-0FAE-4B4F-959E-7726759C2981frame10" style="opacity:1;fill:none;" stroke="#000000" d="M6.402,0.5h14.5c0,0-5.833,2.833-5.833,5.583s4.417,6,4.417,9.167    s-4.167,5.083-4.167,5.083H0.235c0,0,5-2.667,5-5s-4.583-6.75-4.583-9.25S6.402,0.5,6.402,0.5z"/>
		<path oryx:anchors="top left" id="_6CFA9F03-0FAE-4B4F-959E-7726759C2981frame11" style="opacity:1;fill:none;stroke-width:1.5" d="M 3.5 4.5 L 13.5 4.5" stroke="#000000"/>
		<path oryx:anchors="top left" id="_6CFA9F03-0FAE-4B4F-959E-7726759C2981frame12" style="opacity:1;fill:none;stroke-width:1.5" d="M 3.8 8.5 L 13.8 8.5" stroke="#000000"/>
		<path oryx:anchors="top left" id="_6CFA9F03-0FAE-4B4F-959E-7726759C2981frame13" style="opacity:1;fill:none;stroke-width:1.5" d="M 6.3 12.5 L 16.3 12.5" stroke="#000000"/>
		<path oryx:anchors="top left" id="_6CFA9F03-0FAE-4B4F-959E-7726759C2981frame14" style="opacity:1;fill:none;stroke-width:1.5" d="M 6.5 16.5 L 16.5 16.5" stroke="#000000"/>
	</g>
	
	<g id="_6CFA9F03-0FAE-4B4F-959E-7726759C2981userTask" transform="scale(0.7,0.7) translate(8,8)" display="none">
		<path id="_6CFA9F03-0FAE-4B4F-959E-7726759C2981frame15" oryx:anchors="top left" style="opacity:1;fill:#F4F6F7" stroke="#000000" d="M0.585,24.167h24.083v-7.833c0,0-2.333-3.917-7.083-5.167h-9.25    c-4.417,1.333-7.833,5.75-7.833,5.75L0.585,24.167z"/>
		<path id="_6CFA9F03-0FAE-4B4F-959E-7726759C2981frame16" oryx:anchors="top left" style="opacity:1;fill:none" d="M 6 20 L 6 24" stroke="#000000"/>
		<path id="_6CFA9F03-0FAE-4B4F-959E-7726759C2981frame17" oryx:anchors="top left" style="opacity:1;fill:none" d="M 20 20 L 20 24" stroke="#000000"/>
		<circle id="_6CFA9F03-0FAE-4B4F-959E-7726759C2981frame18" oryx:anchors="top left" fill="black" cx="13.002" cy="5.916" r="5.417" stroke="#000000"/>
		<path id="_6CFA9F03-0FAE-4B4F-959E-7726759C2981frame19" oryx:anchors="top left" style="opacity:1;fill:#F0EFF0;" stroke="#000000" d="M8.043,7.083c0,0,2.814-2.426,5.376-1.807s4.624-0.693,4.624-0.693    c0.25,1.688,0.042,3.75-1.458,5.584c0,0,1.083,0.75,1.083,1.5s0.125,1.875-1,3s-5.5,1.25-6.75,0S8.668,12.834,8.668,12    s0.583-1.25,1.25-1.917C8.835,9.5,7.419,7.708,8.043,7.083z"/>
	</g>
	
	<g id="_6CFA9F03-0FAE-4B4F-959E-7726759C2981serviceTask" transform="scale(0.7,0.7) translate(8,8)" display="none">
		<polygon oryx:anchors="top left" id="_6CFA9F03-0FAE-4B4F-959E-7726759C2981frame20" style="opacity:1;fill:#ffffff" stroke="#000000" points="15.392,5.064 17.954,2.502 20.347,4.895 17.786,7.455     18.729,9.732 22.353,9.732 22.353,13.115 18.731,13.115 17.788,15.392 20.351,17.955 17.958,20.347 15.397,17.786 13.12,18.729     13.12,22.353 9.737,22.353 9.737,18.731 7.46,17.788 4.897,20.35 2.506,17.958 5.066,15.397 4.124,13.12 0.5,13.12 0.5,9.737     4.121,9.737 5.065,7.461 2.503,4.898 4.895,2.506 7.455,5.066 9.732,4.125 9.732,0.5 13.116,0.5 13.116,4.121 "/>
		<circle oryx:anchors="top left" id="_6CFA9F03-0FAE-4B4F-959E-7726759C2981frame21" style="opacity:1;fill:none" stroke="#000000" cx="11.427" cy="11.426" r="3.714"/>
		<polygon oryx:anchors="top left" id="_6CFA9F03-0FAE-4B4F-959E-7726759C2981frame22" style="opacity:1;fill:#ffffff" stroke="#000000" points="21.392,11.064 23.954,8.502 26.347,10.895 23.786,13.455     24.729,15.732 28.353,15.732 28.353,19.115 24.731,19.115 23.788,21.392 26.351,23.955 23.958,26.347 21.397,23.786 19.12,24.729     19.12,28.353 15.737,28.353 15.737,24.731 13.46,23.788 10.897,26.35 8.506,23.958 11.066,21.397 10.124,19.12 6.5,19.12     6.5,15.737 10.121,15.737 11.065,13.461 8.503,10.898 10.895,8.506 13.455,11.066 15.732,10.125 15.732,6.5 19.116,6.5     19.116,10.121 "/>
		<circle oryx:anchors="top left" id="_6CFA9F03-0FAE-4B4F-959E-7726759C2981frame23" style="opacity:1;fill:none;" stroke="#000000" cx="17.427" cy="17.426" r="3.714"/>
	</g>
	
	<g id="_6CFA9F03-0FAE-4B4F-959E-7726759C2981sendTask" display="none">
		<path id="_6CFA9F03-0FAE-4B4F-959E-7726759C2981stframe24" oryx:anchors="left top" stroke="#FFFFFF" fill="black" stroke-width="1" d="M8,11 L8,21 L24,21 L24,11 L16,17z"/>
		<path id="_6CFA9F03-0FAE-4B4F-959E-7726759C2981stframe25" oryx:anchors="left top" stroke="#FFFFFF" fill="black" stroke-width="1" d="M7,10 L16,17 L25 10z"/>
	</g>
	
	<g id="_6CFA9F03-0FAE-4B4F-959E-7726759C2981receiveTask" display="none">
		<path id="_6CFA9F03-0FAE-4B4F-959E-7726759C2981frame26" oryx:anchors="left top" stroke="#000000" fill="none" stroke-width="1" d="M8,11 L8,21 L24,21 L24,11z M8,11 L16,17 L24,11"/>
	</g>
	
	<g id="_6CFA9F03-0FAE-4B4F-959E-7726759C2981none" display="none"/>

	<g id="_6CFA9F03-0FAE-4B4F-959E-7726759C2981sequential">
        <path oryx:anchors="bottom" fill="none" stroke="#000000" stroke-width="2" d="M46,76h10M46,72h10 M46,68h10" id="_6CFA9F03-0FAE-4B4F-959E-7726759C2981__6CFA9F03-0FAE-4B4F-959E-7726759C2981_20"/>
    </g>
  </g></g><g class="children" style="overflow:hidden"/><g class="edge"/></g><g class="controls"><g class="dockers"/><g class="magnets" transform="translate(195, 140)"><g pointer-events="all" display="none" transform="translate(-7, 12)"><circle cx="8" cy="8" r="4" stroke="none" fill="red" fill-opacity="0.3"/></g><g pointer-events="all" display="none" transform="translate(-7, 32)"><circle cx="8" cy="8" r="4" stroke="none" fill="red" fill-opacity="0.3"/></g><g pointer-events="all" display="none" transform="translate(-7, 52)"><circle cx="8" cy="8" r="4" stroke="none" fill="red" fill-opacity="0.3"/></g><g pointer-events="all" display="none" transform="translate(17, 71)"><circle cx="8" cy="8" r="4" stroke="none" fill="red" fill-opacity="0.3"/></g><g pointer-events="all" display="none" transform="translate(42, 71)"><circle cx="8" cy="8" r="4" stroke="none" fill="red" fill-opacity="0.3"/></g><g pointer-events="all" display="none" transform="translate(67, 71)"><circle cx="8" cy="8" r="4" stroke="none" fill="red" fill-opacity="0.3"/></g><g pointer-events="all" display="none" transform="translate(91, 12)"><circle cx="8" cy="8" r="4" stroke="none" fill="red" fill-opacity="0.3"/></g><g pointer-events="all" display="none" transform="translate(91, 32)"><circle cx="8" cy="8" r="4" stroke="none" fill="red" fill-opacity="0.3"/></g><g pointer-events="all" display="none" transform="translate(91, 52)"><circle cx="8" cy="8" r="4" stroke="none" fill="red" fill-opacity="0.3"/></g><g pointer-events="all" display="none" transform="translate(17, -7)"><circle cx="8" cy="8" r="4" stroke="none" fill="red" fill-opacity="0.3"/></g><g pointer-events="all" display="none" transform="translate(42, -7)"><circle cx="8" cy="8" r="4" stroke="none" fill="red" fill-opacity="0.3"/></g><g pointer-events="all" display="none" transform="translate(67, -7)"><circle cx="8" cy="8" r="4" stroke="none" fill="red" fill-opacity="0.3"/></g><g pointer-events="all" display="none" transform="translate(42, 32)"><circle cx="8" cy="8" r="4" stroke="none" fill="red" fill-opacity="0.3"/></g></g></g></g></g><g class="edge"><g id="_21C2255E-EBDB-4E5B-931A-BB6FF5F17D70" bpmn2nodeid="_EF3CBA47-CC4F-4B99-B3D6-E5D7483A5FD1"><g class="stencils"><g class="me"><g pointer-events="painted" bpmn2nodeid="_9B3FC91A-4AAC-4F56-92B2-7972CB4699AB"><path id="_21C2255E-EBDB-4E5B-931A-BB6FF5F17D70_1" d="M375.6484375 180L434.1953125 180 " stroke="#000000" fill="none" stroke-width="2" stroke-linecap="round" stroke-linejoin="round" marker-start="url(#_21C2255E-EBDB-4E5B-931A-BB6FF5F17D70start)" marker-end="url(#_21C2255E-EBDB-4E5B-931A-BB6FF5F17D70end)"/></g><text id="_21C2255E-EBDB-4E5B-931A-BB6FF5F17D70text_name" font-size="12" x="389.6484375" y="166" oryx:edgePosition="startTop" stroke-width="0pt" letter-spacing="-0.01px" fill="#000000" text-anchor="start" transform="rotate(360 375.6484375 180)" visibility="inherit" oryx:fontSize="12"/></g><g class="children" style="overflow:hidden"/><g class="edge"/></g><g class="controls"><g class="dockers"/><g class="magnets"/></g></g><g id="_D1094A9E-767A-4A51-99A0-1DF9D15ECB80" bpmn2nodeid="_6FDAA35B-D985-463C-B191-3993937F264C"><g class="stencils"><g class="me"><g pointer-events="painted" bpmn2nodeid="_6A5A520A-D5D9-4DB2-8D57-41837BBDE7F6"><path id="_D1094A9E-767A-4A51-99A0-1DF9D15ECB80_1" d="M535.390625 180L579.375 180 " stroke="#000000" fill="none" stroke-width="2" stroke-linecap="round" stroke-linejoin="round" marker-start="url(#_D1094A9E-767A-4A51-99A0-1DF9D15ECB80start)" marker-end="url(#_D1094A9E-767A-4A51-99A0-1DF9D15ECB80end)"/></g><text id="_D1094A9E-767A-4A51-99A0-1DF9D15ECB80text_name" font-size="12" x="549.390625" y="166" oryx:edgePosition="startTop" stroke-width="0pt" letter-spacing="-0.01px" fill="#000000" text-anchor="start" transform="rotate(360 535.390625 180)" visibility="inherit" oryx:fontSize="12"/></g><g class="children" style="overflow:hidden"/><g class="edge"/></g><g class="controls"><g class="dockers"/><g class="magnets"/></g></g><g id="_CB6D423F-68D6-4273-98F2-717023EC0D4A" bpmn2nodeid="_5AE1057B-F15B-41CE-B38C-15CB4AC5BF19"><g class="stencils"><g class="me"><g pointer-events="painted" bpmn2nodeid="_7EC6ED8A-980C-476C-B8CA-6CF9D791A9E7"><path id="_CB6D423F-68D6-4273-98F2-717023EC0D4A_1" d="M150.609375 180L194.15625 180 " stroke="#000000" fill="none" stroke-width="2" stroke-linecap="round" stroke-linejoin="round" marker-start="url(#_CB6D423F-68D6-4273-98F2-717023EC0D4Astart)" marker-end="url(#_CB6D423F-68D6-4273-98F2-717023EC0D4Aend)"/></g><text id="_CB6D423F-68D6-4273-98F2-717023EC0D4Atext_name" font-size="12" x="164.609375" y="166" oryx:edgePosition="startTop" stroke-width="0pt" letter-spacing="-0.01px" fill="#000000" text-anchor="start" transform="rotate(360 150.609375 180)" visibility="inherit" oryx:fontSize="12"/></g><g class="children" style="overflow:hidden"/><g class="edge"/></g><g class="controls"><g class="dockers"/><g class="magnets"/></g></g><g id="_80FF6F52-E603-4A5E-98E1-C382A43CAFD1" bpmn2nodeid="_5C242C62-8F32-4BFA-93DB-A758491E72EC"><g class="stencils"><g class="me"><g pointer-events="painted" bpmn2nodeid="_6582573F-BF6B-4DC8-8B48-E1FD4E758DB1"><path id="_80FF6F52-E603-4A5E-98E1-C382A43CAFD1_1" d="M295.4140625 180L344.625 180 " stroke="#000000" fill="none" stroke-width="2" stroke-linecap="round" stroke-linejoin="round" marker-start="url(#_80FF6F52-E603-4A5E-98E1-C382A43CAFD1start)" marker-end="url(#_80FF6F52-E603-4A5E-98E1-C382A43CAFD1end)"/></g><text id="_80FF6F52-E603-4A5E-98E1-C382A43CAFD1text_name" font-size="12" x="309.4140625" y="166" oryx:edgePosition="startTop" stroke-width="0pt" letter-spacing="-0.01px" fill="#000000" text-anchor="start" transform="rotate(360 295.4140625 180)" visibility="inherit" oryx:fontSize="12"/></g><g class="children" style="overflow:hidden"/><g class="edge"/></g><g class="controls"><g class="dockers"/><g class="magnets"/></g></g></g><text id="_5A63F1C2-A9A0-4493-81F5-3C07C88DA59B" style="stroke-width:1;fill:rgb(177,194,214);font-family:arial;font-weight:bold" font-size="12" onclick="ORYX.Plugins.CanvasTitle.openTextualAnalysis()" onmouseover="ORYX.Plugins.CanvasTitle.addToolTip('_5A63F1C2-A9A0-4493-81F5-3C07C88DA59B')" transform="translate(10, 20)"/></g></g></svg>