<svg xmlns="http://www.w3.org/2000/svg" xmlns:oryx="http://oryx-editor.org" id="_747E0D5E-670F-4878-B7F1-8A001C0570F1" width="538" height="138" xmlns:xlink="http://www.w3.org/1999/xlink" xmlns:svg="http://www.w3.org/2000/svg"><defs><marker id="_1C62DF0F-EEA7-4959-A58F-DCC9503AA712start" refX="1" refY="5" markerUnits="userSpaceOnUse" markerWidth="17" markerHeight="11" orient="auto" fill="#000000" stroke="#000000">
	  		<path id="_1C62DF0F-EEA7-4959-A58F-DCC9503AA712conditional" d="M 0 5 L 8 0 L 16 5 L 8 10 L 0 5" fill="white" stroke="#000000" stroke-width="1" display="none"/>
			<path id="_1C62DF0F-EEA7-4959-A58F-DCC9503AA712default" d="M 5 0 L 11 10" fill="white" stroke="#000000" stroke-width="1" display="none"/>
	  	</marker><marker id="_1C62DF0F-EEA7-4959-A58F-DCC9503AA712end" refX="15" refY="6" markerUnits="userSpaceOnUse" markerWidth="15" markerHeight="12" orient="auto" fill="#000000" stroke="#000000">
	  		<path id="_1C62DF0F-EEA7-4959-A58F-DCC9503AA712frame2" d="M 0 1 L 15 6 L 0 11z" fill="#000000" stroke="#000000" stroke-linejoin="round" stroke-width="2"/>
	  	</marker><marker id="_58B2944A-4CBD-4DE7-AC23-7AE880CF4F87start" refX="1" refY="5" markerUnits="userSpaceOnUse" markerWidth="17" markerHeight="11" orient="auto" fill="#000000" stroke="#000000">
	  		<path id="_58B2944A-4CBD-4DE7-AC23-7AE880CF4F87conditional" d="M 0 5 L 8 0 L 16 5 L 8 10 L 0 5" fill="white" stroke="#000000" stroke-width="1" display="none"/>
			<path id="_58B2944A-4CBD-4DE7-AC23-7AE880CF4F87default" d="M 5 0 L 11 10" fill="white" stroke="#000000" stroke-width="1" display="none"/>
	  	</marker><marker id="_58B2944A-4CBD-4DE7-AC23-7AE880CF4F87end" refX="15" refY="6" markerUnits="userSpaceOnUse" markerWidth="15" markerHeight="12" orient="auto" fill="#000000" stroke="#000000">
	  		<path id="_58B2944A-4CBD-4DE7-AC23-7AE880CF4F87frame2" d="M 0 1 L 15 6 L 0 11z" fill="#000000" stroke="#000000" stroke-linejoin="round" stroke-width="2"/>
	  	</marker><marker id="_593DB870-37CD-4AF3-8C4B-3F3FA1B7960Estart" refX="1" refY="5" markerUnits="userSpaceOnUse" markerWidth="17" markerHeight="11" orient="auto" fill="#000000" stroke="#000000">
	  		<path id="_593DB870-37CD-4AF3-8C4B-3F3FA1B7960Econditional" d="M 0 5 L 8 0 L 16 5 L 8 10 L 0 5" fill="white" stroke="#000000" stroke-width="1" display="none"/>
			<path id="_593DB870-37CD-4AF3-8C4B-3F3FA1B7960Edefault" d="M 5 0 L 11 10" fill="white" stroke="#000000" stroke-width="1" display="none"/>
	  	</marker><marker id="_593DB870-37CD-4AF3-8C4B-3F3FA1B7960Eend" refX="15" refY="6" markerUnits="userSpaceOnUse" markerWidth="15" markerHeight="12" orient="auto" fill="#000000" stroke="#000000">
	  		<path id="_593DB870-37CD-4AF3-8C4B-3F3FA1B7960Eframe2" d="M 0 1 L 15 6 L 0 11z" fill="#000000" stroke="#000000" stroke-linejoin="round" stroke-width="2"/>
	  	</marker><marker id="_5F545CB5-35C7-4A41-AD9E-E55A070DB637start" refX="1" refY="5" markerUnits="userSpaceOnUse" markerWidth="17" markerHeight="11" orient="auto" fill="#000000" stroke="#000000">
	  		<path id="_5F545CB5-35C7-4A41-AD9E-E55A070DB637conditional" d="M 0 5 L 8 0 L 16 5 L 8 10 L 0 5" fill="white" stroke="#000000" stroke-width="1" display="none"/>
			<path id="_5F545CB5-35C7-4A41-AD9E-E55A070DB637default" d="M 5 0 L 11 10" fill="white" stroke="#000000" stroke-width="1" display="none"/>
	  	</marker><marker id="_5F545CB5-35C7-4A41-AD9E-E55A070DB637end" refX="15" refY="6" markerUnits="userSpaceOnUse" markerWidth="15" markerHeight="12" orient="auto" fill="#000000" stroke="#000000">
	  		<path id="_5F545CB5-35C7-4A41-AD9E-E55A070DB637frame2" d="M 0 1 L 15 6 L 0 11z" fill="#000000" stroke="#000000" stroke-linejoin="round" stroke-width="2"/>
	  	</marker></defs><g stroke="none" font-family="Verdana, sans-serif" font-size-adjust="none" font-style="normal" font-variant="normal" font-weight="normal" line-heigth="normal" font-size="12"><g class="stencils" transform="translate(-95, -111)"><g class="me"/><g class="children"><g id="_4D589C40-6F07-4058-B7DB-A57FA9F27934" bpmn2nodeid="processStartEvent"><g class="stencils" transform="translate(120, 165)"><g class="me"><g pointer-events="fill" id="_4D589C40-6F07-4058-B7DB-A57FA9F27934">
  
    <defs id="_4D589C40-6F07-4058-B7DB-A57FA9F27934__4D589C40-6F07-4058-B7DB-A57FA9F27934_5">
		<radialGradient id="_4D589C40-6F07-4058-B7DB-A57FA9F27934background" cx="10%" cy="10%" r="100%" fx="10%" fy="10%">
			<stop offset="0%" stop-color="#ffffff" stop-opacity="1" id="_4D589C40-6F07-4058-B7DB-A57FA9F27934__4D589C40-6F07-4058-B7DB-A57FA9F27934_6"/>
			<stop id="_4D589C40-6F07-4058-B7DB-A57FA9F27934fill_el" offset="100%" stop-color="#9acd32" stop-opacity="1"/>
		</radialGradient>
	</defs>
	
    <circle id="_4D589C40-6F07-4058-B7DB-A57FA9F27934bg_frame" cx="15" cy="15" r="15" stroke="#000000" fill="url(#_4D589C40-6F07-4058-B7DB-A57FA9F27934background) white" stroke-width="1" style="stroke-dasharray: 5.5, 3"/>

    <circle id="_4D589C40-6F07-4058-B7DB-A57FA9F27934frame" cx="15" cy="15" r="15" stroke="#000000" fill="none" stroke-width="1"/>

	<text font-size="11" id="_4D589C40-6F07-4058-B7DB-A57FA9F27934text_name" x="15" y="32" oryx:align="top center" stroke="black" stroke-width="0pt" letter-spacing="-0.01px" fill="#000000" text-anchor="middle" transform="rotate(0 15 32)" visibility="inherit" oryx:fontSize="11"/>
  </g></g><g class="children" style="overflow:hidden"/><g class="edge"/></g><g class="controls"><g class="dockers"/><g class="magnets" transform="translate(120, 165)"><g pointer-events="all" display="none" transform="translate(7, 7)"><circle cx="8" cy="8" r="4" stroke="none" fill="red" fill-opacity="0.3"/></g></g></g></g><g id="_463FA6EA-C424-4C01-9C65-4B0C40404DC5" bpmn2nodeid="_6604534C-DD3E-494F-BB17-FD2D58F4E0F9"><g class="stencils" transform="translate(345, 165)"><g class="me"><g pointer-events="fill" id="_463FA6EA-C424-4C01-9C65-4B0C40404DC5">

    <defs id="_463FA6EA-C424-4C01-9C65-4B0C40404DC5__463FA6EA-C424-4C01-9C65-4B0C40404DC5_6">
		<radialGradient id="_463FA6EA-C424-4C01-9C65-4B0C40404DC5background" cx="10%" cy="10%" r="100%" fx="10%" fy="10%">
			<stop offset="0%" stop-color="#ffffff" stop-opacity="1" id="_463FA6EA-C424-4C01-9C65-4B0C40404DC5__463FA6EA-C424-4C01-9C65-4B0C40404DC5_7"/>
			<stop id="_463FA6EA-C424-4C01-9C65-4B0C40404DC5fill_el" offset="100%" stop-color="#f5deb3" stop-opacity="1"/>
		</radialGradient>
	</defs>
	
    <circle id="_463FA6EA-C424-4C01-9C65-4B0C40404DC5bg_frame" cx="15" cy="15" r="15" stroke="#a0522d" fill="url(#_463FA6EA-C424-4C01-9C65-4B0C40404DC5background) white" stroke-width="1" style="stroke-dasharray: 5.5, 3"/>
    	
    <circle id="_463FA6EA-C424-4C01-9C65-4B0C40404DC5frame" cx="15" cy="15" r="12" stroke="#a0522d" fill="none" stroke-width="1" style="stroke-dasharray: 4.5, 3" display="inherit"/>
    
    <circle id="_463FA6EA-C424-4C01-9C65-4B0C40404DC5frame2" cx="15" cy="15" r="15" stroke="#a0522d" fill="none" stroke-width="1" display="inherit"/>
    <circle id="_463FA6EA-C424-4C01-9C65-4B0C40404DC5frame3" cx="15" cy="15" r="12" stroke="#a0522d" fill="none" stroke-width="1"/>
	<path id="_463FA6EA-C424-4C01-9C65-4B0C40404DC5frame4" stroke="#a0522d" d=" M7.7124971 20.247342  L22.333334 20.247342  L15.022915000000001 7.575951200000001  L7.7124971 20.247342  z" style="fill:none;stroke-width:1.4;stroke-miterlimit:4;stroke-dasharray:none"/>
	<text font-size="11" id="_463FA6EA-C424-4C01-9C65-4B0C40404DC5text_name" x="15" y="32" oryx:align="top center" stroke="black" stroke-width="0pt" letter-spacing="-0.01px" fill="#000000" text-anchor="middle" transform="rotate(0 15 32)" visibility="inherit" oryx:fontSize="11"/>
  </g></g><g class="children" style="overflow:hidden"/><g class="edge"/></g><g class="controls"><g class="dockers"/><g class="magnets" transform="translate(345, 165)"><g pointer-events="all" display="none" transform="translate(7, 7)"><circle cx="8" cy="8" r="4" stroke="none" fill="red" fill-opacity="0.3"/></g></g></g></g><g id="_D631A606-F151-4A6D-9447-F2C2F426C5D7" bpmn2nodeid="_06CD7F85-D811-4DB9-9EA5-91DC6127B53E"><g class="stencils" transform="translate(435, 140)"><g class="me"><g pointer-events="fill" oryx:minimumSize="50 40" id="_D631A606-F151-4A6D-9447-F2C2F426C5D7">
  	<defs id="_D631A606-F151-4A6D-9447-F2C2F426C5D7__D631A606-F151-4A6D-9447-F2C2F426C5D7_17">
		<radialGradient id="_D631A606-F151-4A6D-9447-F2C2F426C5D7background" cx="10%" cy="10%" r="100%" fx="10%" fy="10%">
			<stop offset="0%" stop-color="#ffffff" stop-opacity="1" id="_D631A606-F151-4A6D-9447-F2C2F426C5D7__D631A606-F151-4A6D-9447-F2C2F426C5D7_18"/>
			<stop id="_D631A606-F151-4A6D-9447-F2C2F426C5D7fill_el" offset="100%" stop-color="#fafad2" stop-opacity="1"/>
		</radialGradient>
		<radialGradient id="_D631A606-F151-4A6D-9447-F2C2F426C5D7borderbackground" cx="10%" cy="10%" r="100%" fx="10%" fy="10%">
			<stop offset="0%" stop-color="#ffffff" stop-opacity="1" id="_D631A606-F151-4A6D-9447-F2C2F426C5D7__D631A606-F151-4A6D-9447-F2C2F426C5D7_19"/>
			<stop id="_D631A606-F151-4A6D-9447-F2C2F426C5D7fill_border" offset="100%" stop-color="#000000" stop-opacity="1" stroke="#000000"/>
		</radialGradient>
	</defs>
	
	<rect id="_D631A606-F151-4A6D-9447-F2C2F426C5D7text_frame" oryx:anchors="bottom top right left" x="1" y="1" width="94" height="79" rx="10" ry="10" stroke="none" stroke-width="0" fill="none"/>
	<rect id="_D631A606-F151-4A6D-9447-F2C2F426C5D7bg_frame" oryx:resize="vertical horizontal" x="0" y="0" width="100" height="80" rx="10" ry="10" stroke="#000000" stroke-width="1" fill="url(#_D631A606-F151-4A6D-9447-F2C2F426C5D7background) #ffffcc"/>
		<text font-size="12" id="_D631A606-F151-4A6D-9447-F2C2F426C5D7text_name" x="50" y="40" oryx:align="middle center" oryx:fittoelem="text_frame" stroke="black" text-anchor="middle" stroke-width="0pt" letter-spacing="-0.01px" fill="#000000" transform="rotate(0 50 40)" visibility="inherit" oryx:fontSize="12"><tspan x="50" y="40" dy="-7" id="ext-gen591">Set Signal </tspan><tspan x="50" y="40" dy="5">Data on Parent </tspan><tspan x="50" y="40" dy="17">Process</tspan></text>
    <g id="_D631A606-F151-4A6D-9447-F2C2F426C5D7manualTask" transform="scale(0.7,0.7) translate(8,8)" display="none">
    	<path oryx:anchors="top left" id="_D631A606-F151-4A6D-9447-F2C2F426C5D7frame" style="opacity:1;fill:none;fill-opacity:1;stroke-width:1" d="M0.5,3.751l4.083-3.25c0,0,11.166,0.083,12.083,0.083s-2.417,2.917-1.5,2.917     s11.667,0,12.584,0c1.166,1.708-0.168,3.167-0.834,3.667s0.875,1.917-1,4.417c-0.75,0.25,0.75,1.875-1.333,3.333     c-1.167,0.583,0.583,1.542-1.25,2.833c-1.167,0-20.833,0.083-20.833,0.083l-2-1.333V3.751z" stroke="#000000"/>
		<path id="_D631A606-F151-4A6D-9447-F2C2F426C5D7frame2" oryx:anchors="top left" style="opacity:1;fill:none;stroke-width:2" d="M 13.5 7 L 27 7" stroke="#000000"/>
		<path id="_D631A606-F151-4A6D-9447-F2C2F426C5D7frame3" oryx:anchors="top left" style="opacity:1;fill:none;stroke-width:2" d="M 13.5 11 L 26 11" stroke="#000000"/>
		<path id="_D631A606-F151-4A6D-9447-F2C2F426C5D7frame4" oryx:anchors="top left" style="opacity:1;fill:none;stroke-width:1.5" d="M 14 14.5 L 25 14.5" stroke="#000000"/>
		<path id="_D631A606-F151-4A6D-9447-F2C2F426C5D7frame5" oryx:anchors="top left" style="opacity:1;fill:none;stroke-width:1.5" d="M 8.2 3.1 L 15 3.1" stroke="#000000"/>
	</g>
	
	<g id="_D631A606-F151-4A6D-9447-F2C2F426C5D7businessRuleTask" transform="scale(0.7,0.7) translate(8,8)" display="none">
		<rect id="_D631A606-F151-4A6D-9447-F2C2F426C5D7frame6" oryx:anchors="top left" x="0" y="0" width="22" height="4" style="opacity:1;fill:#B3B1B3;fill-opacity:1;" stroke="#000000"/>
		<rect id="_D631A606-F151-4A6D-9447-F2C2F426C5D7frame7" oryx:anchors="top left" x="0" y="4" style="opacity:1;fill:none;" width="22" height="12" stroke="#000000"/>
		<path id="_D631A606-F151-4A6D-9447-F2C2F426C5D7frame8" oryx:anchors="top left" style="opacity:1;fill:none;" d="M 0 10 L 22 10" stroke="#000000"/>
		<path id="_D631A606-F151-4A6D-9447-F2C2F426C5D7frame9" oryx:anchors="top left" style="opacity:1; fill:none;" d="M 7 4 L 7 16" stroke="#000000"/>
	</g>
	
	<g id="_D631A606-F151-4A6D-9447-F2C2F426C5D7scriptTask" transform="scale(0.7,0.7) translate(8,8)" display="inherit">
		<path oryx:anchors="top left" id="_D631A606-F151-4A6D-9447-F2C2F426C5D7frame10" style="opacity:1;fill:none;" stroke="#000000" d="M6.402,0.5h14.5c0,0-5.833,2.833-5.833,5.583s4.417,6,4.417,9.167    s-4.167,5.083-4.167,5.083H0.235c0,0,5-2.667,5-5s-4.583-6.75-4.583-9.25S6.402,0.5,6.402,0.5z"/>
		<path oryx:anchors="top left" id="_D631A606-F151-4A6D-9447-F2C2F426C5D7frame11" style="opacity:1;fill:none;stroke-width:1.5" d="M 3.5 4.5 L 13.5 4.5" stroke="#000000"/>
		<path oryx:anchors="top left" id="_D631A606-F151-4A6D-9447-F2C2F426C5D7frame12" style="opacity:1;fill:none;stroke-width:1.5" d="M 3.8 8.5 L 13.8 8.5" stroke="#000000"/>
		<path oryx:anchors="top left" id="_D631A606-F151-4A6D-9447-F2C2F426C5D7frame13" style="opacity:1;fill:none;stroke-width:1.5" d="M 6.3 12.5 L 16.3 12.5" stroke="#000000"/>
		<path oryx:anchors="top left" id="_D631A606-F151-4A6D-9447-F2C2F426C5D7frame14" style="opacity:1;fill:none;stroke-width:1.5" d="M 6.5 16.5 L 16.5 16.5" stroke="#000000"/>
	</g>
	
	<g id="_D631A606-F151-4A6D-9447-F2C2F426C5D7userTask" transform="scale(0.7,0.7) translate(8,8)" display="none">
		<path id="_D631A606-F151-4A6D-9447-F2C2F426C5D7frame15" oryx:anchors="top left" style="opacity:1;fill:#F4F6F7" stroke="#000000" d="M0.585,24.167h24.083v-7.833c0,0-2.333-3.917-7.083-5.167h-9.25    c-4.417,1.333-7.833,5.75-7.833,5.75L0.585,24.167z"/>
		<path id="_D631A606-F151-4A6D-9447-F2C2F426C5D7frame16" oryx:anchors="top left" style="opacity:1;fill:none" d="M 6 20 L 6 24" stroke="#000000"/>
		<path id="_D631A606-F151-4A6D-9447-F2C2F426C5D7frame17" oryx:anchors="top left" style="opacity:1;fill:none" d="M 20 20 L 20 24" stroke="#000000"/>
		<circle id="_D631A606-F151-4A6D-9447-F2C2F426C5D7frame18" oryx:anchors="top left" fill="black" cx="13.002" cy="5.916" r="5.417" stroke="#000000"/>
		<path id="_D631A606-F151-4A6D-9447-F2C2F426C5D7frame19" oryx:anchors="top left" style="opacity:1;fill:#F0EFF0;" stroke="#000000" d="M8.043,7.083c0,0,2.814-2.426,5.376-1.807s4.624-0.693,4.624-0.693    c0.25,1.688,0.042,3.75-1.458,5.584c0,0,1.083,0.75,1.083,1.5s0.125,1.875-1,3s-5.5,1.25-6.75,0S8.668,12.834,8.668,12    s0.583-1.25,1.25-1.917C8.835,9.5,7.419,7.708,8.043,7.083z"/>
	</g>
	
	<g id="_D631A606-F151-4A6D-9447-F2C2F426C5D7serviceTask" transform="scale(0.7,0.7) translate(8,8)" display="none">
		<polygon oryx:anchors="top left" id="_D631A606-F151-4A6D-9447-F2C2F426C5D7frame20" style="opacity:1;fill:#ffffff" stroke="#000000" points="15.392,5.064 17.954,2.502 20.347,4.895 17.786,7.455     18.729,9.732 22.353,9.732 22.353,13.115 18.731,13.115 17.788,15.392 20.351,17.955 17.958,20.347 15.397,17.786 13.12,18.729     13.12,22.353 9.737,22.353 9.737,18.731 7.46,17.788 4.897,20.35 2.506,17.958 5.066,15.397 4.124,13.12 0.5,13.12 0.5,9.737     4.121,9.737 5.065,7.461 2.503,4.898 4.895,2.506 7.455,5.066 9.732,4.125 9.732,0.5 13.116,0.5 13.116,4.121 "/>
		<circle oryx:anchors="top left" id="_D631A606-F151-4A6D-9447-F2C2F426C5D7frame21" style="opacity:1;fill:none" stroke="#000000" cx="11.427" cy="11.426" r="3.714"/>
		<polygon oryx:anchors="top left" id="_D631A606-F151-4A6D-9447-F2C2F426C5D7frame22" style="opacity:1;fill:#ffffff" stroke="#000000" points="21.392,11.064 23.954,8.502 26.347,10.895 23.786,13.455     24.729,15.732 28.353,15.732 28.353,19.115 24.731,19.115 23.788,21.392 26.351,23.955 23.958,26.347 21.397,23.786 19.12,24.729     19.12,28.353 15.737,28.353 15.737,24.731 13.46,23.788 10.897,26.35 8.506,23.958 11.066,21.397 10.124,19.12 6.5,19.12     6.5,15.737 10.121,15.737 11.065,13.461 8.503,10.898 10.895,8.506 13.455,11.066 15.732,10.125 15.732,6.5 19.116,6.5     19.116,10.121 "/>
		<circle oryx:anchors="top left" id="_D631A606-F151-4A6D-9447-F2C2F426C5D7frame23" style="opacity:1;fill:none;" stroke="#000000" cx="17.427" cy="17.426" r="3.714"/>
	</g>
	
	<g id="_D631A606-F151-4A6D-9447-F2C2F426C5D7sendTask" display="none">
		<path id="_D631A606-F151-4A6D-9447-F2C2F426C5D7stframe24" oryx:anchors="left top" stroke="#FFFFFF" fill="black" stroke-width="1" d="M8,11 L8,21 L24,21 L24,11 L16,17z"/>
		<path id="_D631A606-F151-4A6D-9447-F2C2F426C5D7stframe25" oryx:anchors="left top" stroke="#FFFFFF" fill="black" stroke-width="1" d="M7,10 L16,17 L25 10z"/>
	</g>
	
	<g id="_D631A606-F151-4A6D-9447-F2C2F426C5D7receiveTask" display="none">
		<path id="_D631A606-F151-4A6D-9447-F2C2F426C5D7frame26" oryx:anchors="left top" stroke="#000000" fill="none" stroke-width="1" d="M8,11 L8,21 L24,21 L24,11z M8,11 L16,17 L24,11"/>
	</g>
	
	<g id="_D631A606-F151-4A6D-9447-F2C2F426C5D7none" display="none"/>

	<g id="_D631A606-F151-4A6D-9447-F2C2F426C5D7sequential">
        <path oryx:anchors="bottom" fill="none" stroke="#000000" stroke-width="2" d="M46,76h10M46,72h10 M46,68h10" id="_D631A606-F151-4A6D-9447-F2C2F426C5D7__D631A606-F151-4A6D-9447-F2C2F426C5D7_20"/>
    </g>
  </g></g><g class="children" style="overflow:hidden"/><g class="edge"/></g><g class="controls"><g class="dockers"/><g class="magnets" transform="translate(435, 140)"><g pointer-events="all" display="none" transform="translate(-7, 12)"><circle cx="8" cy="8" r="4" stroke="none" fill="red" fill-opacity="0.3"/></g><g pointer-events="all" display="none" transform="translate(-7, 32)"><circle cx="8" cy="8" r="4" stroke="none" fill="red" fill-opacity="0.3"/></g><g pointer-events="all" display="none" transform="translate(-7, 52)"><circle cx="8" cy="8" r="4" stroke="none" fill="red" fill-opacity="0.3"/></g><g pointer-events="all" display="none" transform="translate(17, 71)"><circle cx="8" cy="8" r="4" stroke="none" fill="red" fill-opacity="0.3"/></g><g pointer-events="all" display="none" transform="translate(42, 71)"><circle cx="8" cy="8" r="4" stroke="none" fill="red" fill-opacity="0.3"/></g><g pointer-events="all" display="none" transform="translate(67, 71)"><circle cx="8" cy="8" r="4" stroke="none" fill="red" fill-opacity="0.3"/></g><g pointer-events="all" display="none" transform="translate(91, 12)"><circle cx="8" cy="8" r="4" stroke="none" fill="red" fill-opacity="0.3"/></g><g pointer-events="all" display="none" transform="translate(91, 32)"><circle cx="8" cy="8" r="4" stroke="none" fill="red" fill-opacity="0.3"/></g><g pointer-events="all" display="none" transform="translate(91, 52)"><circle cx="8" cy="8" r="4" stroke="none" fill="red" fill-opacity="0.3"/></g><g pointer-events="all" display="none" transform="translate(17, -7)"><circle cx="8" cy="8" r="4" stroke="none" fill="red" fill-opacity="0.3"/></g><g pointer-events="all" display="none" transform="translate(42, -7)"><circle cx="8" cy="8" r="4" stroke="none" fill="red" fill-opacity="0.3"/></g><g pointer-events="all" display="none" transform="translate(67, -7)"><circle cx="8" cy="8" r="4" stroke="none" fill="red" fill-opacity="0.3"/></g><g pointer-events="all" display="none" transform="translate(42, 32)"><circle cx="8" cy="8" r="4" stroke="none" fill="red" fill-opacity="0.3"/></g></g></g></g><g id="_218B2BBD-CC20-4449-BA23-C7E19F9D5CEC" bpmn2nodeid="_CE9917B1-4332-4006-B5F4-052D56F3C25F"><g class="stencils" transform="translate(580, 166)"><g class="me"><g pointer-events="fill" id="_218B2BBD-CC20-4449-BA23-C7E19F9D5CEC">

    <defs id="_218B2BBD-CC20-4449-BA23-C7E19F9D5CEC__218B2BBD-CC20-4449-BA23-C7E19F9D5CEC_5">
		<radialGradient id="_218B2BBD-CC20-4449-BA23-C7E19F9D5CECbackground" cx="10%" cy="10%" r="100%" fx="10%" fy="10%">
			<stop offset="0%" stop-color="#ffffff" stop-opacity="1" id="_218B2BBD-CC20-4449-BA23-C7E19F9D5CEC__218B2BBD-CC20-4449-BA23-C7E19F9D5CEC_6"/>
			<stop id="_218B2BBD-CC20-4449-BA23-C7E19F9D5CECfill_el" offset="100%" stop-color="#ff6347" stop-opacity="1"/>
		</radialGradient>
	</defs>
	
    <circle id="_218B2BBD-CC20-4449-BA23-C7E19F9D5CECbg_frame" cx="14" cy="14" r="14" stroke="#000000" fill="url(#_218B2BBD-CC20-4449-BA23-C7E19F9D5CECbackground) white" stroke-width="3"/>
	<text font-size="11" id="_218B2BBD-CC20-4449-BA23-C7E19F9D5CECtext_name" x="14" y="30" oryx:align="top center" stroke="black" stroke-width="0pt" letter-spacing="-0.01px" fill="#000000" text-anchor="middle" transform="rotate(0 14 30)" visibility="inherit" oryx:fontSize="11"/>
  </g></g><g class="children" style="overflow:hidden"/><g class="edge"/></g><g class="controls"><g class="dockers"/><g class="magnets" transform="translate(580, 166)"><g pointer-events="all" display="none" transform="translate(6, 6)"><circle cx="8" cy="8" r="4" stroke="none" fill="red" fill-opacity="0.3"/></g></g></g></g><g id="_B02D5B18-52C9-4575-8978-391B6CE8603B" bpmn2nodeid="_B1E8E858-C1E9-4728-80A6-8BEB9BEB6E79"><g class="stencils" transform="translate(195, 140)"><g class="me"><g pointer-events="fill" oryx:minimumSize="50 40" id="_B02D5B18-52C9-4575-8978-391B6CE8603B">
  	<defs id="_B02D5B18-52C9-4575-8978-391B6CE8603B__B02D5B18-52C9-4575-8978-391B6CE8603B_17">
		<radialGradient id="_B02D5B18-52C9-4575-8978-391B6CE8603Bbackground" cx="10%" cy="10%" r="100%" fx="10%" fy="10%">
			<stop offset="0%" stop-color="#ffffff" stop-opacity="1" id="_B02D5B18-52C9-4575-8978-391B6CE8603B__B02D5B18-52C9-4575-8978-391B6CE8603B_18"/>
			<stop id="_B02D5B18-52C9-4575-8978-391B6CE8603Bfill_el" offset="100%" stop-color="#fafad2" stop-opacity="1"/>
		</radialGradient>
		<radialGradient id="_B02D5B18-52C9-4575-8978-391B6CE8603Bborderbackground" cx="10%" cy="10%" r="100%" fx="10%" fy="10%">
			<stop offset="0%" stop-color="#ffffff" stop-opacity="1" id="_B02D5B18-52C9-4575-8978-391B6CE8603B__B02D5B18-52C9-4575-8978-391B6CE8603B_19"/>
			<stop id="_B02D5B18-52C9-4575-8978-391B6CE8603Bfill_border" offset="100%" stop-color="#000000" stop-opacity="1" stroke="#000000"/>
		</radialGradient>
	</defs>
	
	<rect id="_B02D5B18-52C9-4575-8978-391B6CE8603Btext_frame" oryx:anchors="bottom top right left" x="1" y="1" width="94" height="79" rx="10" ry="10" stroke="none" stroke-width="0" fill="none"/>
	<rect id="_B02D5B18-52C9-4575-8978-391B6CE8603Bbg_frame" oryx:resize="vertical horizontal" x="0" y="0" width="100" height="80" rx="10" ry="10" stroke="#000000" stroke-width="1" fill="url(#_B02D5B18-52C9-4575-8978-391B6CE8603Bbackground) #ffffcc"/>
		<text font-size="12" id="_B02D5B18-52C9-4575-8978-391B6CE8603Btext_name" x="50" y="40" oryx:align="middle center" oryx:fittoelem="text_frame" stroke="black" text-anchor="middle" stroke-width="0pt" letter-spacing="-0.01px" fill="#000000" transform="rotate(0 50 40)" visibility="inherit" oryx:fontSize="12"><tspan x="50" y="40" dy="-13">Set Signal </tspan><tspan x="50" y="40" dy="-1">Name With </tspan><tspan x="50" y="40" dy="11">Parent Process </tspan><tspan x="50" y="40" dy="23">ID</tspan></text>
    <g id="_B02D5B18-52C9-4575-8978-391B6CE8603BmanualTask" transform="scale(0.7,0.7) translate(8,8)" display="none">
    	<path oryx:anchors="top left" id="_B02D5B18-52C9-4575-8978-391B6CE8603Bframe" style="opacity:1;fill:none;fill-opacity:1;stroke-width:1" d="M0.5,3.751l4.083-3.25c0,0,11.166,0.083,12.083,0.083s-2.417,2.917-1.5,2.917     s11.667,0,12.584,0c1.166,1.708-0.168,3.167-0.834,3.667s0.875,1.917-1,4.417c-0.75,0.25,0.75,1.875-1.333,3.333     c-1.167,0.583,0.583,1.542-1.25,2.833c-1.167,0-20.833,0.083-20.833,0.083l-2-1.333V3.751z" stroke="#000000"/>
		<path id="_B02D5B18-52C9-4575-8978-391B6CE8603Bframe2" oryx:anchors="top left" style="opacity:1;fill:none;stroke-width:2" d="M 13.5 7 L 27 7" stroke="#000000"/>
		<path id="_B02D5B18-52C9-4575-8978-391B6CE8603Bframe3" oryx:anchors="top left" style="opacity:1;fill:none;stroke-width:2" d="M 13.5 11 L 26 11" stroke="#000000"/>
		<path id="_B02D5B18-52C9-4575-8978-391B6CE8603Bframe4" oryx:anchors="top left" style="opacity:1;fill:none;stroke-width:1.5" d="M 14 14.5 L 25 14.5" stroke="#000000"/>
		<path id="_B02D5B18-52C9-4575-8978-391B6CE8603Bframe5" oryx:anchors="top left" style="opacity:1;fill:none;stroke-width:1.5" d="M 8.2 3.1 L 15 3.1" stroke="#000000"/>
	</g>
	
	<g id="_B02D5B18-52C9-4575-8978-391B6CE8603BbusinessRuleTask" transform="scale(0.7,0.7) translate(8,8)" display="none">
		<rect id="_B02D5B18-52C9-4575-8978-391B6CE8603Bframe6" oryx:anchors="top left" x="0" y="0" width="22" height="4" style="opacity:1;fill:#B3B1B3;fill-opacity:1;" stroke="#000000"/>
		<rect id="_B02D5B18-52C9-4575-8978-391B6CE8603Bframe7" oryx:anchors="top left" x="0" y="4" style="opacity:1;fill:none;" width="22" height="12" stroke="#000000"/>
		<path id="_B02D5B18-52C9-4575-8978-391B6CE8603Bframe8" oryx:anchors="top left" style="opacity:1;fill:none;" d="M 0 10 L 22 10" stroke="#000000"/>
		<path id="_B02D5B18-52C9-4575-8978-391B6CE8603Bframe9" oryx:anchors="top left" style="opacity:1; fill:none;" d="M 7 4 L 7 16" stroke="#000000"/>
	</g>
	
	<g id="_B02D5B18-52C9-4575-8978-391B6CE8603BscriptTask" transform="scale(0.7,0.7) translate(8,8)" display="inherit">
		<path oryx:anchors="top left" id="_B02D5B18-52C9-4575-8978-391B6CE8603Bframe10" style="opacity:1;fill:none;" stroke="#000000" d="M6.402,0.5h14.5c0,0-5.833,2.833-5.833,5.583s4.417,6,4.417,9.167    s-4.167,5.083-4.167,5.083H0.235c0,0,5-2.667,5-5s-4.583-6.75-4.583-9.25S6.402,0.5,6.402,0.5z"/>
		<path oryx:anchors="top left" id="_B02D5B18-52C9-4575-8978-391B6CE8603Bframe11" style="opacity:1;fill:none;stroke-width:1.5" d="M 3.5 4.5 L 13.5 4.5" stroke="#000000"/>
		<path oryx:anchors="top left" id="_B02D5B18-52C9-4575-8978-391B6CE8603Bframe12" style="opacity:1;fill:none;stroke-width:1.5" d="M 3.8 8.5 L 13.8 8.5" stroke="#000000"/>
		<path oryx:anchors="top left" id="_B02D5B18-52C9-4575-8978-391B6CE8603Bframe13" style="opacity:1;fill:none;stroke-width:1.5" d="M 6.3 12.5 L 16.3 12.5" stroke="#000000"/>
		<path oryx:anchors="top left" id="_B02D5B18-52C9-4575-8978-391B6CE8603Bframe14" style="opacity:1;fill:none;stroke-width:1.5" d="M 6.5 16.5 L 16.5 16.5" stroke="#000000"/>
	</g>
	
	<g id="_B02D5B18-52C9-4575-8978-391B6CE8603BuserTask" transform="scale(0.7,0.7) translate(8,8)" display="none">
		<path id="_B02D5B18-52C9-4575-8978-391B6CE8603Bframe15" oryx:anchors="top left" style="opacity:1;fill:#F4F6F7" stroke="#000000" d="M0.585,24.167h24.083v-7.833c0,0-2.333-3.917-7.083-5.167h-9.25    c-4.417,1.333-7.833,5.75-7.833,5.75L0.585,24.167z"/>
		<path id="_B02D5B18-52C9-4575-8978-391B6CE8603Bframe16" oryx:anchors="top left" style="opacity:1;fill:none" d="M 6 20 L 6 24" stroke="#000000"/>
		<path id="_B02D5B18-52C9-4575-8978-391B6CE8603Bframe17" oryx:anchors="top left" style="opacity:1;fill:none" d="M 20 20 L 20 24" stroke="#000000"/>
		<circle id="_B02D5B18-52C9-4575-8978-391B6CE8603Bframe18" oryx:anchors="top left" fill="black" cx="13.002" cy="5.916" r="5.417" stroke="#000000"/>
		<path id="_B02D5B18-52C9-4575-8978-391B6CE8603Bframe19" oryx:anchors="top left" style="opacity:1;fill:#F0EFF0;" stroke="#000000" d="M8.043,7.083c0,0,2.814-2.426,5.376-1.807s4.624-0.693,4.624-0.693    c0.25,1.688,0.042,3.75-1.458,5.584c0,0,1.083,0.75,1.083,1.5s0.125,1.875-1,3s-5.5,1.25-6.75,0S8.668,12.834,8.668,12    s0.583-1.25,1.25-1.917C8.835,9.5,7.419,7.708,8.043,7.083z"/>
	</g>
	
	<g id="_B02D5B18-52C9-4575-8978-391B6CE8603BserviceTask" transform="scale(0.7,0.7) translate(8,8)" display="none">
		<polygon oryx:anchors="top left" id="_B02D5B18-52C9-4575-8978-391B6CE8603Bframe20" style="opacity:1;fill:#ffffff" stroke="#000000" points="15.392,5.064 17.954,2.502 20.347,4.895 17.786,7.455     18.729,9.732 22.353,9.732 22.353,13.115 18.731,13.115 17.788,15.392 20.351,17.955 17.958,20.347 15.397,17.786 13.12,18.729     13.12,22.353 9.737,22.353 9.737,18.731 7.46,17.788 4.897,20.35 2.506,17.958 5.066,15.397 4.124,13.12 0.5,13.12 0.5,9.737     4.121,9.737 5.065,7.461 2.503,4.898 4.895,2.506 7.455,5.066 9.732,4.125 9.732,0.5 13.116,0.5 13.116,4.121 "/>
		<circle oryx:anchors="top left" id="_B02D5B18-52C9-4575-8978-391B6CE8603Bframe21" style="opacity:1;fill:none" stroke="#000000" cx="11.427" cy="11.426" r="3.714"/>
		<polygon oryx:anchors="top left" id="_B02D5B18-52C9-4575-8978-391B6CE8603Bframe22" style="opacity:1;fill:#ffffff" stroke="#000000" points="21.392,11.064 23.954,8.502 26.347,10.895 23.786,13.455     24.729,15.732 28.353,15.732 28.353,19.115 24.731,19.115 23.788,21.392 26.351,23.955 23.958,26.347 21.397,23.786 19.12,24.729     19.12,28.353 15.737,28.353 15.737,24.731 13.46,23.788 10.897,26.35 8.506,23.958 11.066,21.397 10.124,19.12 6.5,19.12     6.5,15.737 10.121,15.737 11.065,13.461 8.503,10.898 10.895,8.506 13.455,11.066 15.732,10.125 15.732,6.5 19.116,6.5     19.116,10.121 "/>
		<circle oryx:anchors="top left" id="_B02D5B18-52C9-4575-8978-391B6CE8603Bframe23" style="opacity:1;fill:none;" stroke="#000000" cx="17.427" cy="17.426" r="3.714"/>
	</g>
	
	<g id="_B02D5B18-52C9-4575-8978-391B6CE8603BsendTask" display="none">
		<path id="_B02D5B18-52C9-4575-8978-391B6CE8603Bstframe24" oryx:anchors="left top" stroke="#FFFFFF" fill="black" stroke-width="1" d="M8,11 L8,21 L24,21 L24,11 L16,17z"/>
		<path id="_B02D5B18-52C9-4575-8978-391B6CE8603Bstframe25" oryx:anchors="left top" stroke="#FFFFFF" fill="black" stroke-width="1" d="M7,10 L16,17 L25 10z"/>
	</g>
	
	<g id="_B02D5B18-52C9-4575-8978-391B6CE8603BreceiveTask" display="none">
		<path id="_B02D5B18-52C9-4575-8978-391B6CE8603Bframe26" oryx:anchors="left top" stroke="#000000" fill="none" stroke-width="1" d="M8,11 L8,21 L24,21 L24,11z M8,11 L16,17 L24,11"/>
	</g>
	
	<g id="_B02D5B18-52C9-4575-8978-391B6CE8603Bnone" display="none"/>

	<g id="_B02D5B18-52C9-4575-8978-391B6CE8603Bsequential">
        <path oryx:anchors="bottom" fill="none" stroke="#000000" stroke-width="2" d="M46,76h10M46,72h10 M46,68h10" id="_B02D5B18-52C9-4575-8978-391B6CE8603B__B02D5B18-52C9-4575-8978-391B6CE8603B_20"/>
    </g>
  </g></g><g class="children" style="overflow:hidden"/><g class="edge"/></g><g class="controls"><g class="dockers"/><g class="magnets" transform="translate(195, 140)"><g pointer-events="all" display="none" transform="translate(-7, 12)"><circle cx="8" cy="8" r="4" stroke="none" fill="red" fill-opacity="0.3"/></g><g pointer-events="all" display="none" transform="translate(-7, 32)"><circle cx="8" cy="8" r="4" stroke="none" fill="red" fill-opacity="0.3"/></g><g pointer-events="all" display="none" transform="translate(-7, 52)"><circle cx="8" cy="8" r="4" stroke="none" fill="red" fill-opacity="0.3"/></g><g pointer-events="all" display="none" transform="translate(17, 71)"><circle cx="8" cy="8" r="4" stroke="none" fill="red" fill-opacity="0.3"/></g><g pointer-events="all" display="none" transform="translate(42, 71)"><circle cx="8" cy="8" r="4" stroke="none" fill="red" fill-opacity="0.3"/></g><g pointer-events="all" display="none" transform="translate(67, 71)"><circle cx="8" cy="8" r="4" stroke="none" fill="red" fill-opacity="0.3"/></g><g pointer-events="all" display="none" transform="translate(91, 12)"><circle cx="8" cy="8" r="4" stroke="none" fill="red" fill-opacity="0.3"/></g><g pointer-events="all" display="none" transform="translate(91, 32)"><circle cx="8" cy="8" r="4" stroke="none" fill="red" fill-opacity="0.3"/></g><g pointer-events="all" display="none" transform="translate(91, 52)"><circle cx="8" cy="8" r="4" stroke="none" fill="red" fill-opacity="0.3"/></g><g pointer-events="all" display="none" transform="translate(17, -7)"><circle cx="8" cy="8" r="4" stroke="none" fill="red" fill-opacity="0.3"/></g><g pointer-events="all" display="none" transform="translate(42, -7)"><circle cx="8" cy="8" r="4" stroke="none" fill="red" fill-opacity="0.3"/></g><g pointer-events="all" display="none" transform="translate(67, -7)"><circle cx="8" cy="8" r="4" stroke="none" fill="red" fill-opacity="0.3"/></g><g pointer-events="all" display="none" transform="translate(42, 32)"><circle cx="8" cy="8" r="4" stroke="none" fill="red" fill-opacity="0.3"/></g></g></g></g></g><g class="edge"><g id="_1C62DF0F-EEA7-4959-A58F-DCC9503AA712" bpmn2nodeid="_EF3CBA47-CC4F-4B99-B3D6-E5D7483A5FD1"><g class="stencils"><g class="me"><g pointer-events="painted" bpmn2nodeid="_2CF92550-2869-4794-9B7D-8CFE596A6D28"><path id="_1C62DF0F-EEA7-4959-A58F-DCC9503AA712_1" d="M375.6484375 180L434.1953125 180 " stroke="#000000" fill="none" stroke-width="2" stroke-linecap="round" stroke-linejoin="round" marker-start="url(#_1C62DF0F-EEA7-4959-A58F-DCC9503AA712start)" marker-end="url(#_1C62DF0F-EEA7-4959-A58F-DCC9503AA712end)"/></g><text id="_1C62DF0F-EEA7-4959-A58F-DCC9503AA712text_name" font-size="12" x="389.6484375" y="166" oryx:edgePosition="startTop" stroke-width="0pt" letter-spacing="-0.01px" fill="#000000" text-anchor="start" transform="rotate(360 375.6484375 180)" visibility="inherit" oryx:fontSize="12"/></g><g class="children" style="overflow:hidden"/><g class="edge"/></g><g class="controls"><g class="dockers"/><g class="magnets"/></g></g><g id="_58B2944A-4CBD-4DE7-AC23-7AE880CF4F87" bpmn2nodeid="_6FDAA35B-D985-463C-B191-3993937F264C"><g class="stencils"><g class="me"><g pointer-events="painted" bpmn2nodeid="_4D4065F3-0C01-4C89-B811-3B5B16826366"><path id="_58B2944A-4CBD-4DE7-AC23-7AE880CF4F87_1" d="M535.390625 180L579.375 180 " stroke="#000000" fill="none" stroke-width="2" stroke-linecap="round" stroke-linejoin="round" marker-start="url(#_58B2944A-4CBD-4DE7-AC23-7AE880CF4F87start)" marker-end="url(#_58B2944A-4CBD-4DE7-AC23-7AE880CF4F87end)"/></g><text id="_58B2944A-4CBD-4DE7-AC23-7AE880CF4F87text_name" font-size="12" x="549.390625" y="166" oryx:edgePosition="startTop" stroke-width="0pt" letter-spacing="-0.01px" fill="#000000" text-anchor="start" transform="rotate(360 535.390625 180)" visibility="inherit" oryx:fontSize="12"/></g><g class="children" style="overflow:hidden"/><g class="edge"/></g><g class="controls"><g class="dockers"/><g class="magnets"/></g></g><g id="_593DB870-37CD-4AF3-8C4B-3F3FA1B7960E" bpmn2nodeid="_5AE1057B-F15B-41CE-B38C-15CB4AC5BF19"><g class="stencils"><g class="me"><g pointer-events="painted" bpmn2nodeid="_8F536FDF-B8B0-420F-82E0-4EFD41C76879"><path id="_593DB870-37CD-4AF3-8C4B-3F3FA1B7960E_1" d="M150.609375 180L194.15625 180 " stroke="#000000" fill="none" stroke-width="2" stroke-linecap="round" stroke-linejoin="round" marker-start="url(#_593DB870-37CD-4AF3-8C4B-3F3FA1B7960Estart)" marker-end="url(#_593DB870-37CD-4AF3-8C4B-3F3FA1B7960Eend)"/></g><text id="_593DB870-37CD-4AF3-8C4B-3F3FA1B7960Etext_name" font-size="12" x="164.609375" y="166" oryx:edgePosition="startTop" stroke-width="0pt" letter-spacing="-0.01px" fill="#000000" text-anchor="start" transform="rotate(360 150.609375 180)" visibility="inherit" oryx:fontSize="12"/></g><g class="children" style="overflow:hidden"/><g class="edge"/></g><g class="controls"><g class="dockers"/><g class="magnets"/></g></g><g id="_5F545CB5-35C7-4A41-AD9E-E55A070DB637" bpmn2nodeid="_5C242C62-8F32-4BFA-93DB-A758491E72EC"><g class="stencils"><g class="me"><g pointer-events="painted" bpmn2nodeid="_FC2B2F15-DA7C-4F7B-92B1-409B53754610"><path id="_5F545CB5-35C7-4A41-AD9E-E55A070DB637_1" d="M295.4140625 180L344.625 180 " stroke="#000000" fill="none" stroke-width="2" stroke-linecap="round" stroke-linejoin="round" marker-start="url(#_5F545CB5-35C7-4A41-AD9E-E55A070DB637start)" marker-end="url(#_5F545CB5-35C7-4A41-AD9E-E55A070DB637end)"/></g><text id="_5F545CB5-35C7-4A41-AD9E-E55A070DB637text_name" font-size="12" x="309.4140625" y="166" oryx:edgePosition="startTop" stroke-width="0pt" letter-spacing="-0.01px" fill="#000000" text-anchor="start" transform="rotate(360 295.4140625 180)" visibility="inherit" oryx:fontSize="12"/></g><g class="children" style="overflow:hidden"/><g class="edge"/></g><g class="controls"><g class="dockers"/><g class="magnets"/></g></g></g><text id="_EFAFE3DF-C6B0-4E3D-8BEB-EE66507149BB" style="stroke-width:1;fill:rgb(177,194,214);font-family:arial;font-weight:bold" font-size="12" onclick="ORYX.Plugins.CanvasTitle.openTextualAnalysis()" onmouseover="ORYX.Plugins.CanvasTitle.addToolTip('_EFAFE3DF-C6B0-4E3D-8BEB-EE66507149BB')" transform="translate(10, 20)"/></g></g></svg>