<svg xmlns="http://www.w3.org/2000/svg" xmlns:oryx="http://oryx-editor.org" id="_7EE11C31-DD5E-446F-BD34-071935EB85CF" width="538" height="138" xmlns:xlink="http://www.w3.org/1999/xlink" xmlns:svg="http://www.w3.org/2000/svg"><defs><marker id="_6DB6B6DB-8131-4AB5-8B2F-820B1819CD90start" refX="1" refY="5" markerUnits="userSpaceOnUse" markerWidth="17" markerHeight="11" orient="auto" fill="#000000" stroke="#000000">
	  		<path id="_6DB6B6DB-8131-4AB5-8B2F-820B1819CD90conditional" d="M 0 5 L 8 0 L 16 5 L 8 10 L 0 5" fill="white" stroke="#000000" stroke-width="1" display="none"/>
			<path id="_6DB6B6DB-8131-4AB5-8B2F-820B1819CD90default" d="M 5 0 L 11 10" fill="white" stroke="#000000" stroke-width="1" display="none"/>
	  	</marker><marker id="_6DB6B6DB-8131-4AB5-8B2F-820B1819CD90end" refX="15" refY="6" markerUnits="userSpaceOnUse" markerWidth="15" markerHeight="12" orient="auto" fill="#000000" stroke="#000000">
	  		<path id="_6DB6B6DB-8131-4AB5-8B2F-820B1819CD90frame2" d="M 0 1 L 15 6 L 0 11z" fill="#000000" stroke="#000000" stroke-linejoin="round" stroke-width="2"/>
	  	</marker><marker id="_5A255F51-8537-413E-9852-241632FAADACstart" refX="1" refY="5" markerUnits="userSpaceOnUse" markerWidth="17" markerHeight="11" orient="auto" fill="#000000" stroke="#000000">
	  		<path id="_5A255F51-8537-413E-9852-241632FAADACconditional" d="M 0 5 L 8 0 L 16 5 L 8 10 L 0 5" fill="white" stroke="#000000" stroke-width="1" display="none"/>
			<path id="_5A255F51-8537-413E-9852-241632FAADACdefault" d="M 5 0 L 11 10" fill="white" stroke="#000000" stroke-width="1" display="none"/>
	  	</marker><marker id="_5A255F51-8537-413E-9852-241632FAADACend" refX="15" refY="6" markerUnits="userSpaceOnUse" markerWidth="15" markerHeight="12" orient="auto" fill="#000000" stroke="#000000">
	  		<path id="_5A255F51-8537-413E-9852-241632FAADACframe2" d="M 0 1 L 15 6 L 0 11z" fill="#000000" stroke="#000000" stroke-linejoin="round" stroke-width="2"/>
	  	</marker><marker id="_5934B33D-4641-4D8E-B772-1D3BE84D5F65start" refX="1" refY="5" markerUnits="userSpaceOnUse" markerWidth="17" markerHeight="11" orient="auto" fill="#000000" stroke="#000000">
	  		<path id="_5934B33D-4641-4D8E-B772-1D3BE84D5F65conditional" d="M 0 5 L 8 0 L 16 5 L 8 10 L 0 5" fill="white" stroke="#000000" stroke-width="1" display="none"/>
			<path id="_5934B33D-4641-4D8E-B772-1D3BE84D5F65default" d="M 5 0 L 11 10" fill="white" stroke="#000000" stroke-width="1" display="none"/>
	  	</marker><marker id="_5934B33D-4641-4D8E-B772-1D3BE84D5F65end" refX="15" refY="6" markerUnits="userSpaceOnUse" markerWidth="15" markerHeight="12" orient="auto" fill="#000000" stroke="#000000">
	  		<path id="_5934B33D-4641-4D8E-B772-1D3BE84D5F65frame2" d="M 0 1 L 15 6 L 0 11z" fill="#000000" stroke="#000000" stroke-linejoin="round" stroke-width="2"/>
	  	</marker><marker id="_06E272FF-62B1-4E16-80FE-9A8A54CF2E5Fstart" refX="1" refY="5" markerUnits="userSpaceOnUse" markerWidth="17" markerHeight="11" orient="auto" fill="#000000" stroke="#000000">
	  		<path id="_06E272FF-62B1-4E16-80FE-9A8A54CF2E5Fconditional" d="M 0 5 L 8 0 L 16 5 L 8 10 L 0 5" fill="white" stroke="#000000" stroke-width="1" display="none"/>
			<path id="_06E272FF-62B1-4E16-80FE-9A8A54CF2E5Fdefault" d="M 5 0 L 11 10" fill="white" stroke="#000000" stroke-width="1" display="none"/>
	  	</marker><marker id="_06E272FF-62B1-4E16-80FE-9A8A54CF2E5Fend" refX="15" refY="6" markerUnits="userSpaceOnUse" markerWidth="15" markerHeight="12" orient="auto" fill="#000000" stroke="#000000">
	  		<path id="_06E272FF-62B1-4E16-80FE-9A8A54CF2E5Fframe2" d="M 0 1 L 15 6 L 0 11z" fill="#000000" stroke="#000000" stroke-linejoin="round" stroke-width="2"/>
	  	</marker></defs><g stroke="none" font-family="Verdana, sans-serif" font-size-adjust="none" font-style="normal" font-variant="normal" font-weight="normal" line-heigth="normal" font-size="12"><g class="stencils" transform="translate(-95, -111)"><g class="me"/><g class="children"><g id="_08850C7E-BAD2-426F-9459-9A417D38C353" bpmn2nodeid="processStartEvent"><g class="stencils" transform="translate(120, 165)"><g class="me"><g pointer-events="fill" id="_08850C7E-BAD2-426F-9459-9A417D38C353">
  
    <defs id="_08850C7E-BAD2-426F-9459-9A417D38C353__08850C7E-BAD2-426F-9459-9A417D38C353_5">
		<radialGradient id="_08850C7E-BAD2-426F-9459-9A417D38C353background" cx="10%" cy="10%" r="100%" fx="10%" fy="10%">
			<stop offset="0%" stop-color="#ffffff" stop-opacity="1" id="_08850C7E-BAD2-426F-9459-9A417D38C353__08850C7E-BAD2-426F-9459-9A417D38C353_6"/>
			<stop id="_08850C7E-BAD2-426F-9459-9A417D38C353fill_el" offset="100%" stop-color="#9acd32" stop-opacity="1"/>
		</radialGradient>
	</defs>
	
    <circle id="_08850C7E-BAD2-426F-9459-9A417D38C353bg_frame" cx="15" cy="15" r="15" stroke="#000000" fill="url(#_08850C7E-BAD2-426F-9459-9A417D38C353background) white" stroke-width="1" style="stroke-dasharray: 5.5, 3"/>

    <circle id="_08850C7E-BAD2-426F-9459-9A417D38C353frame" cx="15" cy="15" r="15" stroke="#000000" fill="none" stroke-width="1"/>

	<text font-size="11" id="_08850C7E-BAD2-426F-9459-9A417D38C353text_name" x="15" y="32" oryx:align="top center" stroke="black" stroke-width="0pt" letter-spacing="-0.01px" fill="#000000" text-anchor="middle" transform="rotate(0 15 32)" visibility="inherit" oryx:fontSize="11"/>
  </g></g><g class="children" style="overflow:hidden"/><g class="edge"/></g><g class="controls"><g class="dockers"/><g class="magnets" transform="translate(120, 165)"><g pointer-events="all" display="none" transform="translate(7, 7)"><circle cx="8" cy="8" r="4" stroke="none" fill="red" fill-opacity="0.3"/></g></g></g></g><g id="_0461F2E5-A312-4D66-A82F-73FB22EA577C" bpmn2nodeid="_6604534C-DD3E-494F-BB17-FD2D58F4E0F9"><g class="stencils" transform="translate(345, 165)"><g class="me"><g pointer-events="fill" id="_0461F2E5-A312-4D66-A82F-73FB22EA577C">

    <defs id="_0461F2E5-A312-4D66-A82F-73FB22EA577C__0461F2E5-A312-4D66-A82F-73FB22EA577C_6">
		<radialGradient id="_0461F2E5-A312-4D66-A82F-73FB22EA577Cbackground" cx="10%" cy="10%" r="100%" fx="10%" fy="10%">
			<stop offset="0%" stop-color="#ffffff" stop-opacity="1" id="_0461F2E5-A312-4D66-A82F-73FB22EA577C__0461F2E5-A312-4D66-A82F-73FB22EA577C_7"/>
			<stop id="_0461F2E5-A312-4D66-A82F-73FB22EA577Cfill_el" offset="100%" stop-color="#f5deb3" stop-opacity="1"/>
		</radialGradient>
	</defs>
	
    <circle id="_0461F2E5-A312-4D66-A82F-73FB22EA577Cbg_frame" cx="15" cy="15" r="15" stroke="#a0522d" fill="url(#_0461F2E5-A312-4D66-A82F-73FB22EA577Cbackground) white" stroke-width="1" style="stroke-dasharray: 5.5, 3"/>
    	
    <circle id="_0461F2E5-A312-4D66-A82F-73FB22EA577Cframe" cx="15" cy="15" r="12" stroke="#a0522d" fill="none" stroke-width="1" style="stroke-dasharray: 4.5, 3" display="inherit"/>
    
    <circle id="_0461F2E5-A312-4D66-A82F-73FB22EA577Cframe2" cx="15" cy="15" r="15" stroke="#a0522d" fill="none" stroke-width="1" display="inherit"/>
    <circle id="_0461F2E5-A312-4D66-A82F-73FB22EA577Cframe3" cx="15" cy="15" r="12" stroke="#a0522d" fill="none" stroke-width="1"/>
	<path id="_0461F2E5-A312-4D66-A82F-73FB22EA577Cframe4" stroke="#a0522d" d=" M7.7124971 20.247342  L22.333334 20.247342  L15.022915000000001 7.575951200000001  L7.7124971 20.247342  z" style="fill:none;stroke-width:1.4;stroke-miterlimit:4;stroke-dasharray:none"/>
	<text font-size="11" id="_0461F2E5-A312-4D66-A82F-73FB22EA577Ctext_name" x="15" y="32" oryx:align="top center" stroke="black" stroke-width="0pt" letter-spacing="-0.01px" fill="#000000" text-anchor="middle" transform="rotate(0 15 32)" visibility="inherit" oryx:fontSize="11"/>
  </g></g><g class="children" style="overflow:hidden"/><g class="edge"/></g><g class="controls"><g class="dockers"/><g class="magnets" transform="translate(345, 165)"><g pointer-events="all" display="none" transform="translate(7, 7)"><circle cx="8" cy="8" r="4" stroke="none" fill="red" fill-opacity="0.3"/></g></g></g></g><g id="_AE78C4A0-430E-40A6-BEA6-A4403F42A337" bpmn2nodeid="_06CD7F85-D811-4DB9-9EA5-91DC6127B53E"><g class="stencils" transform="translate(435, 140)"><g class="me"><g pointer-events="fill" oryx:minimumSize="50 40" id="_AE78C4A0-430E-40A6-BEA6-A4403F42A337">
  	<defs id="_AE78C4A0-430E-40A6-BEA6-A4403F42A337__AE78C4A0-430E-40A6-BEA6-A4403F42A337_17">
		<radialGradient id="_AE78C4A0-430E-40A6-BEA6-A4403F42A337background" cx="10%" cy="10%" r="100%" fx="10%" fy="10%">
			<stop offset="0%" stop-color="#ffffff" stop-opacity="1" id="_AE78C4A0-430E-40A6-BEA6-A4403F42A337__AE78C4A0-430E-40A6-BEA6-A4403F42A337_18"/>
			<stop id="_AE78C4A0-430E-40A6-BEA6-A4403F42A337fill_el" offset="100%" stop-color="#fafad2" stop-opacity="1"/>
		</radialGradient>
		<radialGradient id="_AE78C4A0-430E-40A6-BEA6-A4403F42A337borderbackground" cx="10%" cy="10%" r="100%" fx="10%" fy="10%">
			<stop offset="0%" stop-color="#ffffff" stop-opacity="1" id="_AE78C4A0-430E-40A6-BEA6-A4403F42A337__AE78C4A0-430E-40A6-BEA6-A4403F42A337_19"/>
			<stop id="_AE78C4A0-430E-40A6-BEA6-A4403F42A337fill_border" offset="100%" stop-color="#000000" stop-opacity="1" stroke="#000000"/>
		</radialGradient>
	</defs>
	
	<rect id="_AE78C4A0-430E-40A6-BEA6-A4403F42A337text_frame" oryx:anchors="bottom top right left" x="1" y="1" width="94" height="79" rx="10" ry="10" stroke="none" stroke-width="0" fill="none"/>
	<rect id="_AE78C4A0-430E-40A6-BEA6-A4403F42A337bg_frame" oryx:resize="vertical horizontal" x="0" y="0" width="100" height="80" rx="10" ry="10" stroke="#000000" stroke-width="1" fill="url(#_AE78C4A0-430E-40A6-BEA6-A4403F42A337background) #ffffcc"/>
		<text font-size="12" id="_AE78C4A0-430E-40A6-BEA6-A4403F42A337text_name" x="50" y="40" oryx:align="middle center" oryx:fittoelem="text_frame" stroke="black" text-anchor="middle" stroke-width="0pt" letter-spacing="-0.01px" fill="#000000" transform="rotate(0 50 40)" visibility="inherit" oryx:fontSize="12"><tspan x="50" y="40" dy="-7" id="ext-gen863">Set Signal </tspan><tspan x="50" y="40" dy="5" id="ext-gen846">Data on Parent </tspan><tspan x="50" y="40" dy="17" id="ext-gen672">Process</tspan></text>
    <g id="_AE78C4A0-430E-40A6-BEA6-A4403F42A337manualTask" transform="scale(0.7,0.7) translate(8,8)" display="none">
    	<path oryx:anchors="top left" id="_AE78C4A0-430E-40A6-BEA6-A4403F42A337frame" style="opacity:1;fill:none;fill-opacity:1;stroke-width:1" d="M0.5,3.751l4.083-3.25c0,0,11.166,0.083,12.083,0.083s-2.417,2.917-1.5,2.917     s11.667,0,12.584,0c1.166,1.708-0.168,3.167-0.834,3.667s0.875,1.917-1,4.417c-0.75,0.25,0.75,1.875-1.333,3.333     c-1.167,0.583,0.583,1.542-1.25,2.833c-1.167,0-20.833,0.083-20.833,0.083l-2-1.333V3.751z" stroke="#000000"/>
		<path id="_AE78C4A0-430E-40A6-BEA6-A4403F42A337frame2" oryx:anchors="top left" style="opacity:1;fill:none;stroke-width:2" d="M 13.5 7 L 27 7" stroke="#000000"/>
		<path id="_AE78C4A0-430E-40A6-BEA6-A4403F42A337frame3" oryx:anchors="top left" style="opacity:1;fill:none;stroke-width:2" d="M 13.5 11 L 26 11" stroke="#000000"/>
		<path id="_AE78C4A0-430E-40A6-BEA6-A4403F42A337frame4" oryx:anchors="top left" style="opacity:1;fill:none;stroke-width:1.5" d="M 14 14.5 L 25 14.5" stroke="#000000"/>
		<path id="_AE78C4A0-430E-40A6-BEA6-A4403F42A337frame5" oryx:anchors="top left" style="opacity:1;fill:none;stroke-width:1.5" d="M 8.2 3.1 L 15 3.1" stroke="#000000"/>
	</g>
	
	<g id="_AE78C4A0-430E-40A6-BEA6-A4403F42A337businessRuleTask" transform="scale(0.7,0.7) translate(8,8)" display="none">
		<rect id="_AE78C4A0-430E-40A6-BEA6-A4403F42A337frame6" oryx:anchors="top left" x="0" y="0" width="22" height="4" style="opacity:1;fill:#B3B1B3;fill-opacity:1;" stroke="#000000"/>
		<rect id="_AE78C4A0-430E-40A6-BEA6-A4403F42A337frame7" oryx:anchors="top left" x="0" y="4" style="opacity:1;fill:none;" width="22" height="12" stroke="#000000"/>
		<path id="_AE78C4A0-430E-40A6-BEA6-A4403F42A337frame8" oryx:anchors="top left" style="opacity:1;fill:none;" d="M 0 10 L 22 10" stroke="#000000"/>
		<path id="_AE78C4A0-430E-40A6-BEA6-A4403F42A337frame9" oryx:anchors="top left" style="opacity:1; fill:none;" d="M 7 4 L 7 16" stroke="#000000"/>
	</g>
	
	<g id="_AE78C4A0-430E-40A6-BEA6-A4403F42A337scriptTask" transform="scale(0.7,0.7) translate(8,8)" display="inherit">
		<path oryx:anchors="top left" id="_AE78C4A0-430E-40A6-BEA6-A4403F42A337frame10" style="opacity:1;fill:none;" stroke="#000000" d="M6.402,0.5h14.5c0,0-5.833,2.833-5.833,5.583s4.417,6,4.417,9.167    s-4.167,5.083-4.167,5.083H0.235c0,0,5-2.667,5-5s-4.583-6.75-4.583-9.25S6.402,0.5,6.402,0.5z"/>
		<path oryx:anchors="top left" id="_AE78C4A0-430E-40A6-BEA6-A4403F42A337frame11" style="opacity:1;fill:none;stroke-width:1.5" d="M 3.5 4.5 L 13.5 4.5" stroke="#000000"/>
		<path oryx:anchors="top left" id="_AE78C4A0-430E-40A6-BEA6-A4403F42A337frame12" style="opacity:1;fill:none;stroke-width:1.5" d="M 3.8 8.5 L 13.8 8.5" stroke="#000000"/>
		<path oryx:anchors="top left" id="_AE78C4A0-430E-40A6-BEA6-A4403F42A337frame13" style="opacity:1;fill:none;stroke-width:1.5" d="M 6.3 12.5 L 16.3 12.5" stroke="#000000"/>
		<path oryx:anchors="top left" id="_AE78C4A0-430E-40A6-BEA6-A4403F42A337frame14" style="opacity:1;fill:none;stroke-width:1.5" d="M 6.5 16.5 L 16.5 16.5" stroke="#000000"/>
	</g>
	
	<g id="_AE78C4A0-430E-40A6-BEA6-A4403F42A337userTask" transform="scale(0.7,0.7) translate(8,8)" display="none">
		<path id="_AE78C4A0-430E-40A6-BEA6-A4403F42A337frame15" oryx:anchors="top left" style="opacity:1;fill:#F4F6F7" stroke="#000000" d="M0.585,24.167h24.083v-7.833c0,0-2.333-3.917-7.083-5.167h-9.25    c-4.417,1.333-7.833,5.75-7.833,5.75L0.585,24.167z"/>
		<path id="_AE78C4A0-430E-40A6-BEA6-A4403F42A337frame16" oryx:anchors="top left" style="opacity:1;fill:none" d="M 6 20 L 6 24" stroke="#000000"/>
		<path id="_AE78C4A0-430E-40A6-BEA6-A4403F42A337frame17" oryx:anchors="top left" style="opacity:1;fill:none" d="M 20 20 L 20 24" stroke="#000000"/>
		<circle id="_AE78C4A0-430E-40A6-BEA6-A4403F42A337frame18" oryx:anchors="top left" fill="black" cx="13.002" cy="5.916" r="5.417" stroke="#000000"/>
		<path id="_AE78C4A0-430E-40A6-BEA6-A4403F42A337frame19" oryx:anchors="top left" style="opacity:1;fill:#F0EFF0;" stroke="#000000" d="M8.043,7.083c0,0,2.814-2.426,5.376-1.807s4.624-0.693,4.624-0.693    c0.25,1.688,0.042,3.75-1.458,5.584c0,0,1.083,0.75,1.083,1.5s0.125,1.875-1,3s-5.5,1.25-6.75,0S8.668,12.834,8.668,12    s0.583-1.25,1.25-1.917C8.835,9.5,7.419,7.708,8.043,7.083z"/>
	</g>
	
	<g id="_AE78C4A0-430E-40A6-BEA6-A4403F42A337serviceTask" transform="scale(0.7,0.7) translate(8,8)" display="none">
		<polygon oryx:anchors="top left" id="_AE78C4A0-430E-40A6-BEA6-A4403F42A337frame20" style="opacity:1;fill:#ffffff" stroke="#000000" points="15.392,5.064 17.954,2.502 20.347,4.895 17.786,7.455     18.729,9.732 22.353,9.732 22.353,13.115 18.731,13.115 17.788,15.392 20.351,17.955 17.958,20.347 15.397,17.786 13.12,18.729     13.12,22.353 9.737,22.353 9.737,18.731 7.46,17.788 4.897,20.35 2.506,17.958 5.066,15.397 4.124,13.12 0.5,13.12 0.5,9.737     4.121,9.737 5.065,7.461 2.503,4.898 4.895,2.506 7.455,5.066 9.732,4.125 9.732,0.5 13.116,0.5 13.116,4.121 "/>
		<circle oryx:anchors="top left" id="_AE78C4A0-430E-40A6-BEA6-A4403F42A337frame21" style="opacity:1;fill:none" stroke="#000000" cx="11.427" cy="11.426" r="3.714"/>
		<polygon oryx:anchors="top left" id="_AE78C4A0-430E-40A6-BEA6-A4403F42A337frame22" style="opacity:1;fill:#ffffff" stroke="#000000" points="21.392,11.064 23.954,8.502 26.347,10.895 23.786,13.455     24.729,15.732 28.353,15.732 28.353,19.115 24.731,19.115 23.788,21.392 26.351,23.955 23.958,26.347 21.397,23.786 19.12,24.729     19.12,28.353 15.737,28.353 15.737,24.731 13.46,23.788 10.897,26.35 8.506,23.958 11.066,21.397 10.124,19.12 6.5,19.12     6.5,15.737 10.121,15.737 11.065,13.461 8.503,10.898 10.895,8.506 13.455,11.066 15.732,10.125 15.732,6.5 19.116,6.5     19.116,10.121 "/>
		<circle oryx:anchors="top left" id="_AE78C4A0-430E-40A6-BEA6-A4403F42A337frame23" style="opacity:1;fill:none;" stroke="#000000" cx="17.427" cy="17.426" r="3.714"/>
	</g>
	
	<g id="_AE78C4A0-430E-40A6-BEA6-A4403F42A337sendTask" display="none">
		<path id="_AE78C4A0-430E-40A6-BEA6-A4403F42A337stframe24" oryx:anchors="left top" stroke="#FFFFFF" fill="black" stroke-width="1" d="M8,11 L8,21 L24,21 L24,11 L16,17z"/>
		<path id="_AE78C4A0-430E-40A6-BEA6-A4403F42A337stframe25" oryx:anchors="left top" stroke="#FFFFFF" fill="black" stroke-width="1" d="M7,10 L16,17 L25 10z"/>
	</g>
	
	<g id="_AE78C4A0-430E-40A6-BEA6-A4403F42A337receiveTask" display="none">
		<path id="_AE78C4A0-430E-40A6-BEA6-A4403F42A337frame26" oryx:anchors="left top" stroke="#000000" fill="none" stroke-width="1" d="M8,11 L8,21 L24,21 L24,11z M8,11 L16,17 L24,11"/>
	</g>
	
	<g id="_AE78C4A0-430E-40A6-BEA6-A4403F42A337none" display="none"/>

	<g id="_AE78C4A0-430E-40A6-BEA6-A4403F42A337sequential">
        <path oryx:anchors="bottom" fill="none" stroke="#000000" stroke-width="2" d="M46,76h10M46,72h10 M46,68h10" id="_AE78C4A0-430E-40A6-BEA6-A4403F42A337__AE78C4A0-430E-40A6-BEA6-A4403F42A337_20"/>
    </g>
  </g></g><g class="children" style="overflow:hidden"/><g class="edge"/></g><g class="controls"><g class="dockers"/><g class="magnets" transform="translate(435, 140)"><g pointer-events="all" display="none" transform="translate(-7, 12)"><circle cx="8" cy="8" r="4" stroke="none" fill="red" fill-opacity="0.3"/></g><g pointer-events="all" display="none" transform="translate(-7, 32)"><circle cx="8" cy="8" r="4" stroke="none" fill="red" fill-opacity="0.3"/></g><g pointer-events="all" display="none" transform="translate(-7, 52)"><circle cx="8" cy="8" r="4" stroke="none" fill="red" fill-opacity="0.3"/></g><g pointer-events="all" display="none" transform="translate(17, 71)"><circle cx="8" cy="8" r="4" stroke="none" fill="red" fill-opacity="0.3"/></g><g pointer-events="all" display="none" transform="translate(42, 71)"><circle cx="8" cy="8" r="4" stroke="none" fill="red" fill-opacity="0.3"/></g><g pointer-events="all" display="none" transform="translate(67, 71)"><circle cx="8" cy="8" r="4" stroke="none" fill="red" fill-opacity="0.3"/></g><g pointer-events="all" display="none" transform="translate(91, 12)"><circle cx="8" cy="8" r="4" stroke="none" fill="red" fill-opacity="0.3"/></g><g pointer-events="all" display="none" transform="translate(91, 32)"><circle cx="8" cy="8" r="4" stroke="none" fill="red" fill-opacity="0.3"/></g><g pointer-events="all" display="none" transform="translate(91, 52)"><circle cx="8" cy="8" r="4" stroke="none" fill="red" fill-opacity="0.3"/></g><g pointer-events="all" display="none" transform="translate(17, -7)"><circle cx="8" cy="8" r="4" stroke="none" fill="red" fill-opacity="0.3"/></g><g pointer-events="all" display="none" transform="translate(42, -7)"><circle cx="8" cy="8" r="4" stroke="none" fill="red" fill-opacity="0.3"/></g><g pointer-events="all" display="none" transform="translate(67, -7)"><circle cx="8" cy="8" r="4" stroke="none" fill="red" fill-opacity="0.3"/></g><g pointer-events="all" display="none" transform="translate(42, 32)"><circle cx="8" cy="8" r="4" stroke="none" fill="red" fill-opacity="0.3"/></g></g></g></g><g id="_A950CE46-0476-4C54-8B83-4ABD72EAF9A6" bpmn2nodeid="_CE9917B1-4332-4006-B5F4-052D56F3C25F"><g class="stencils" transform="translate(580, 166)"><g class="me"><g pointer-events="fill" id="_A950CE46-0476-4C54-8B83-4ABD72EAF9A6">

    <defs id="_A950CE46-0476-4C54-8B83-4ABD72EAF9A6__A950CE46-0476-4C54-8B83-4ABD72EAF9A6_5">
		<radialGradient id="_A950CE46-0476-4C54-8B83-4ABD72EAF9A6background" cx="10%" cy="10%" r="100%" fx="10%" fy="10%">
			<stop offset="0%" stop-color="#ffffff" stop-opacity="1" id="_A950CE46-0476-4C54-8B83-4ABD72EAF9A6__A950CE46-0476-4C54-8B83-4ABD72EAF9A6_6"/>
			<stop id="_A950CE46-0476-4C54-8B83-4ABD72EAF9A6fill_el" offset="100%" stop-color="#ff6347" stop-opacity="1"/>
		</radialGradient>
	</defs>
	
    <circle id="_A950CE46-0476-4C54-8B83-4ABD72EAF9A6bg_frame" cx="14" cy="14" r="14" stroke="#000000" fill="url(#_A950CE46-0476-4C54-8B83-4ABD72EAF9A6background) white" stroke-width="3"/>
	<text font-size="11" id="_A950CE46-0476-4C54-8B83-4ABD72EAF9A6text_name" x="14" y="30" oryx:align="top center" stroke="black" stroke-width="0pt" letter-spacing="-0.01px" fill="#000000" text-anchor="middle" transform="rotate(0 14 30)" visibility="inherit" oryx:fontSize="11"/>
  </g></g><g class="children" style="overflow:hidden"/><g class="edge"/></g><g class="controls"><g class="dockers"/><g class="magnets" transform="translate(580, 166)"><g pointer-events="all" display="none" transform="translate(6, 6)"><circle cx="8" cy="8" r="4" stroke="none" fill="red" fill-opacity="0.3"/></g></g></g></g><g id="_F8125CA9-E962-4580-AAAE-3C0957CB4176" bpmn2nodeid="_B1E8E858-C1E9-4728-80A6-8BEB9BEB6E79"><g class="stencils" transform="translate(195, 140)"><g class="me"><g pointer-events="fill" oryx:minimumSize="50 40" id="_F8125CA9-E962-4580-AAAE-3C0957CB4176">
  	<defs id="_F8125CA9-E962-4580-AAAE-3C0957CB4176__F8125CA9-E962-4580-AAAE-3C0957CB4176_17">
		<radialGradient id="_F8125CA9-E962-4580-AAAE-3C0957CB4176background" cx="10%" cy="10%" r="100%" fx="10%" fy="10%">
			<stop offset="0%" stop-color="#ffffff" stop-opacity="1" id="_F8125CA9-E962-4580-AAAE-3C0957CB4176__F8125CA9-E962-4580-AAAE-3C0957CB4176_18"/>
			<stop id="_F8125CA9-E962-4580-AAAE-3C0957CB4176fill_el" offset="100%" stop-color="#fafad2" stop-opacity="1"/>
		</radialGradient>
		<radialGradient id="_F8125CA9-E962-4580-AAAE-3C0957CB4176borderbackground" cx="10%" cy="10%" r="100%" fx="10%" fy="10%">
			<stop offset="0%" stop-color="#ffffff" stop-opacity="1" id="_F8125CA9-E962-4580-AAAE-3C0957CB4176__F8125CA9-E962-4580-AAAE-3C0957CB4176_19"/>
			<stop id="_F8125CA9-E962-4580-AAAE-3C0957CB4176fill_border" offset="100%" stop-color="#000000" stop-opacity="1" stroke="#000000"/>
		</radialGradient>
	</defs>
	
	<rect id="_F8125CA9-E962-4580-AAAE-3C0957CB4176text_frame" oryx:anchors="bottom top right left" x="1" y="1" width="94" height="79" rx="10" ry="10" stroke="none" stroke-width="0" fill="none"/>
	<rect id="_F8125CA9-E962-4580-AAAE-3C0957CB4176bg_frame" oryx:resize="vertical horizontal" x="0" y="0" width="100" height="80" rx="10" ry="10" stroke="#000000" stroke-width="1" fill="url(#_F8125CA9-E962-4580-AAAE-3C0957CB4176background) #ffffcc"/>
		<text font-size="12" id="_F8125CA9-E962-4580-AAAE-3C0957CB4176text_name" x="50" y="40" oryx:align="middle center" oryx:fittoelem="text_frame" stroke="black" text-anchor="middle" stroke-width="0pt" letter-spacing="-0.01px" fill="#000000" transform="rotate(0 50 40)" visibility="inherit" oryx:fontSize="12"><tspan x="50" y="40" dy="-13" id="ext-gen819">Set Signal </tspan><tspan x="50" y="40" dy="-1" id="ext-gen755">Name With </tspan><tspan x="50" y="40" dy="11" id="ext-gen754">Parent Process </tspan><tspan x="50" y="40" dy="23">ID</tspan></text>
    <g id="_F8125CA9-E962-4580-AAAE-3C0957CB4176manualTask" transform="scale(0.7,0.7) translate(8,8)" display="none">
    	<path oryx:anchors="top left" id="_F8125CA9-E962-4580-AAAE-3C0957CB4176frame" style="opacity:1;fill:none;fill-opacity:1;stroke-width:1" d="M0.5,3.751l4.083-3.25c0,0,11.166,0.083,12.083,0.083s-2.417,2.917-1.5,2.917     s11.667,0,12.584,0c1.166,1.708-0.168,3.167-0.834,3.667s0.875,1.917-1,4.417c-0.75,0.25,0.75,1.875-1.333,3.333     c-1.167,0.583,0.583,1.542-1.25,2.833c-1.167,0-20.833,0.083-20.833,0.083l-2-1.333V3.751z" stroke="#000000"/>
		<path id="_F8125CA9-E962-4580-AAAE-3C0957CB4176frame2" oryx:anchors="top left" style="opacity:1;fill:none;stroke-width:2" d="M 13.5 7 L 27 7" stroke="#000000"/>
		<path id="_F8125CA9-E962-4580-AAAE-3C0957CB4176frame3" oryx:anchors="top left" style="opacity:1;fill:none;stroke-width:2" d="M 13.5 11 L 26 11" stroke="#000000"/>
		<path id="_F8125CA9-E962-4580-AAAE-3C0957CB4176frame4" oryx:anchors="top left" style="opacity:1;fill:none;stroke-width:1.5" d="M 14 14.5 L 25 14.5" stroke="#000000"/>
		<path id="_F8125CA9-E962-4580-AAAE-3C0957CB4176frame5" oryx:anchors="top left" style="opacity:1;fill:none;stroke-width:1.5" d="M 8.2 3.1 L 15 3.1" stroke="#000000"/>
	</g>
	
	<g id="_F8125CA9-E962-4580-AAAE-3C0957CB4176businessRuleTask" transform="scale(0.7,0.7) translate(8,8)" display="none">
		<rect id="_F8125CA9-E962-4580-AAAE-3C0957CB4176frame6" oryx:anchors="top left" x="0" y="0" width="22" height="4" style="opacity:1;fill:#B3B1B3;fill-opacity:1;" stroke="#000000"/>
		<rect id="_F8125CA9-E962-4580-AAAE-3C0957CB4176frame7" oryx:anchors="top left" x="0" y="4" style="opacity:1;fill:none;" width="22" height="12" stroke="#000000"/>
		<path id="_F8125CA9-E962-4580-AAAE-3C0957CB4176frame8" oryx:anchors="top left" style="opacity:1;fill:none;" d="M 0 10 L 22 10" stroke="#000000"/>
		<path id="_F8125CA9-E962-4580-AAAE-3C0957CB4176frame9" oryx:anchors="top left" style="opacity:1; fill:none;" d="M 7 4 L 7 16" stroke="#000000"/>
	</g>
	
	<g id="_F8125CA9-E962-4580-AAAE-3C0957CB4176scriptTask" transform="scale(0.7,0.7) translate(8,8)" display="inherit">
		<path oryx:anchors="top left" id="_F8125CA9-E962-4580-AAAE-3C0957CB4176frame10" style="opacity:1;fill:none;" stroke="#000000" d="M6.402,0.5h14.5c0,0-5.833,2.833-5.833,5.583s4.417,6,4.417,9.167    s-4.167,5.083-4.167,5.083H0.235c0,0,5-2.667,5-5s-4.583-6.75-4.583-9.25S6.402,0.5,6.402,0.5z"/>
		<path oryx:anchors="top left" id="_F8125CA9-E962-4580-AAAE-3C0957CB4176frame11" style="opacity:1;fill:none;stroke-width:1.5" d="M 3.5 4.5 L 13.5 4.5" stroke="#000000"/>
		<path oryx:anchors="top left" id="_F8125CA9-E962-4580-AAAE-3C0957CB4176frame12" style="opacity:1;fill:none;stroke-width:1.5" d="M 3.8 8.5 L 13.8 8.5" stroke="#000000"/>
		<path oryx:anchors="top left" id="_F8125CA9-E962-4580-AAAE-3C0957CB4176frame13" style="opacity:1;fill:none;stroke-width:1.5" d="M 6.3 12.5 L 16.3 12.5" stroke="#000000"/>
		<path oryx:anchors="top left" id="_F8125CA9-E962-4580-AAAE-3C0957CB4176frame14" style="opacity:1;fill:none;stroke-width:1.5" d="M 6.5 16.5 L 16.5 16.5" stroke="#000000"/>
	</g>
	
	<g id="_F8125CA9-E962-4580-AAAE-3C0957CB4176userTask" transform="scale(0.7,0.7) translate(8,8)" display="none">
		<path id="_F8125CA9-E962-4580-AAAE-3C0957CB4176frame15" oryx:anchors="top left" style="opacity:1;fill:#F4F6F7" stroke="#000000" d="M0.585,24.167h24.083v-7.833c0,0-2.333-3.917-7.083-5.167h-9.25    c-4.417,1.333-7.833,5.75-7.833,5.75L0.585,24.167z"/>
		<path id="_F8125CA9-E962-4580-AAAE-3C0957CB4176frame16" oryx:anchors="top left" style="opacity:1;fill:none" d="M 6 20 L 6 24" stroke="#000000"/>
		<path id="_F8125CA9-E962-4580-AAAE-3C0957CB4176frame17" oryx:anchors="top left" style="opacity:1;fill:none" d="M 20 20 L 20 24" stroke="#000000"/>
		<circle id="_F8125CA9-E962-4580-AAAE-3C0957CB4176frame18" oryx:anchors="top left" fill="black" cx="13.002" cy="5.916" r="5.417" stroke="#000000"/>
		<path id="_F8125CA9-E962-4580-AAAE-3C0957CB4176frame19" oryx:anchors="top left" style="opacity:1;fill:#F0EFF0;" stroke="#000000" d="M8.043,7.083c0,0,2.814-2.426,5.376-1.807s4.624-0.693,4.624-0.693    c0.25,1.688,0.042,3.75-1.458,5.584c0,0,1.083,0.75,1.083,1.5s0.125,1.875-1,3s-5.5,1.25-6.75,0S8.668,12.834,8.668,12    s0.583-1.25,1.25-1.917C8.835,9.5,7.419,7.708,8.043,7.083z"/>
	</g>
	
	<g id="_F8125CA9-E962-4580-AAAE-3C0957CB4176serviceTask" transform="scale(0.7,0.7) translate(8,8)" display="none">
		<polygon oryx:anchors="top left" id="_F8125CA9-E962-4580-AAAE-3C0957CB4176frame20" style="opacity:1;fill:#ffffff" stroke="#000000" points="15.392,5.064 17.954,2.502 20.347,4.895 17.786,7.455     18.729,9.732 22.353,9.732 22.353,13.115 18.731,13.115 17.788,15.392 20.351,17.955 17.958,20.347 15.397,17.786 13.12,18.729     13.12,22.353 9.737,22.353 9.737,18.731 7.46,17.788 4.897,20.35 2.506,17.958 5.066,15.397 4.124,13.12 0.5,13.12 0.5,9.737     4.121,9.737 5.065,7.461 2.503,4.898 4.895,2.506 7.455,5.066 9.732,4.125 9.732,0.5 13.116,0.5 13.116,4.121 "/>
		<circle oryx:anchors="top left" id="_F8125CA9-E962-4580-AAAE-3C0957CB4176frame21" style="opacity:1;fill:none" stroke="#000000" cx="11.427" cy="11.426" r="3.714"/>
		<polygon oryx:anchors="top left" id="_F8125CA9-E962-4580-AAAE-3C0957CB4176frame22" style="opacity:1;fill:#ffffff" stroke="#000000" points="21.392,11.064 23.954,8.502 26.347,10.895 23.786,13.455     24.729,15.732 28.353,15.732 28.353,19.115 24.731,19.115 23.788,21.392 26.351,23.955 23.958,26.347 21.397,23.786 19.12,24.729     19.12,28.353 15.737,28.353 15.737,24.731 13.46,23.788 10.897,26.35 8.506,23.958 11.066,21.397 10.124,19.12 6.5,19.12     6.5,15.737 10.121,15.737 11.065,13.461 8.503,10.898 10.895,8.506 13.455,11.066 15.732,10.125 15.732,6.5 19.116,6.5     19.116,10.121 "/>
		<circle oryx:anchors="top left" id="_F8125CA9-E962-4580-AAAE-3C0957CB4176frame23" style="opacity:1;fill:none;" stroke="#000000" cx="17.427" cy="17.426" r="3.714"/>
	</g>
	
	<g id="_F8125CA9-E962-4580-AAAE-3C0957CB4176sendTask" display="none">
		<path id="_F8125CA9-E962-4580-AAAE-3C0957CB4176stframe24" oryx:anchors="left top" stroke="#FFFFFF" fill="black" stroke-width="1" d="M8,11 L8,21 L24,21 L24,11 L16,17z"/>
		<path id="_F8125CA9-E962-4580-AAAE-3C0957CB4176stframe25" oryx:anchors="left top" stroke="#FFFFFF" fill="black" stroke-width="1" d="M7,10 L16,17 L25 10z"/>
	</g>
	
	<g id="_F8125CA9-E962-4580-AAAE-3C0957CB4176receiveTask" display="none">
		<path id="_F8125CA9-E962-4580-AAAE-3C0957CB4176frame26" oryx:anchors="left top" stroke="#000000" fill="none" stroke-width="1" d="M8,11 L8,21 L24,21 L24,11z M8,11 L16,17 L24,11"/>
	</g>
	
	<g id="_F8125CA9-E962-4580-AAAE-3C0957CB4176none" display="none"/>

	<g id="_F8125CA9-E962-4580-AAAE-3C0957CB4176sequential">
        <path oryx:anchors="bottom" fill="none" stroke="#000000" stroke-width="2" d="M46,76h10M46,72h10 M46,68h10" id="_F8125CA9-E962-4580-AAAE-3C0957CB4176__F8125CA9-E962-4580-AAAE-3C0957CB4176_20"/>
    </g>
  </g></g><g class="children" style="overflow:hidden"/><g class="edge"/></g><g class="controls"><g class="dockers"/><g class="magnets" transform="translate(195, 140)"><g pointer-events="all" display="none" transform="translate(-7, 12)"><circle cx="8" cy="8" r="4" stroke="none" fill="red" fill-opacity="0.3"/></g><g pointer-events="all" display="none" transform="translate(-7, 32)"><circle cx="8" cy="8" r="4" stroke="none" fill="red" fill-opacity="0.3"/></g><g pointer-events="all" display="none" transform="translate(-7, 52)"><circle cx="8" cy="8" r="4" stroke="none" fill="red" fill-opacity="0.3"/></g><g pointer-events="all" display="none" transform="translate(17, 71)"><circle cx="8" cy="8" r="4" stroke="none" fill="red" fill-opacity="0.3"/></g><g pointer-events="all" display="none" transform="translate(42, 71)"><circle cx="8" cy="8" r="4" stroke="none" fill="red" fill-opacity="0.3"/></g><g pointer-events="all" display="none" transform="translate(67, 71)"><circle cx="8" cy="8" r="4" stroke="none" fill="red" fill-opacity="0.3"/></g><g pointer-events="all" display="none" transform="translate(91, 12)"><circle cx="8" cy="8" r="4" stroke="none" fill="red" fill-opacity="0.3"/></g><g pointer-events="all" display="none" transform="translate(91, 32)"><circle cx="8" cy="8" r="4" stroke="none" fill="red" fill-opacity="0.3"/></g><g pointer-events="all" display="none" transform="translate(91, 52)"><circle cx="8" cy="8" r="4" stroke="none" fill="red" fill-opacity="0.3"/></g><g pointer-events="all" display="none" transform="translate(17, -7)"><circle cx="8" cy="8" r="4" stroke="none" fill="red" fill-opacity="0.3"/></g><g pointer-events="all" display="none" transform="translate(42, -7)"><circle cx="8" cy="8" r="4" stroke="none" fill="red" fill-opacity="0.3"/></g><g pointer-events="all" display="none" transform="translate(67, -7)"><circle cx="8" cy="8" r="4" stroke="none" fill="red" fill-opacity="0.3"/></g><g pointer-events="all" display="none" transform="translate(42, 32)"><circle cx="8" cy="8" r="4" stroke="none" fill="red" fill-opacity="0.3"/></g></g></g></g></g><g class="edge"><g id="_6DB6B6DB-8131-4AB5-8B2F-820B1819CD90" bpmn2nodeid="_EF3CBA47-CC4F-4B99-B3D6-E5D7483A5FD1"><g class="stencils"><g class="me"><g pointer-events="painted" bpmn2nodeid="_9745DBE0-3779-44F4-9AD9-1EBB316070DA"><path id="_6DB6B6DB-8131-4AB5-8B2F-820B1819CD90_1" d="M375.6484375 180L434.1953125 180 " stroke="#000000" fill="none" stroke-width="2" stroke-linecap="round" stroke-linejoin="round" marker-start="url(#_6DB6B6DB-8131-4AB5-8B2F-820B1819CD90start)" marker-end="url(#_6DB6B6DB-8131-4AB5-8B2F-820B1819CD90end)"/></g><text id="_6DB6B6DB-8131-4AB5-8B2F-820B1819CD90text_name" font-size="12" x="389.6484375" y="166" oryx:edgePosition="startTop" stroke-width="0pt" letter-spacing="-0.01px" fill="#000000" text-anchor="start" transform="rotate(360 375.6484375 180)" visibility="inherit" oryx:fontSize="12"/></g><g class="children" style="overflow:hidden"/><g class="edge"/></g><g class="controls"><g class="dockers"/><g class="magnets"/></g></g><g id="_5A255F51-8537-413E-9852-241632FAADAC" bpmn2nodeid="_6FDAA35B-D985-463C-B191-3993937F264C"><g class="stencils"><g class="me"><g pointer-events="painted" bpmn2nodeid="_B9CD1EDB-9F0B-4E0C-91D7-A57265ED6813"><path id="_5A255F51-8537-413E-9852-241632FAADAC_1" d="M535.390625 180L579.375 180 " stroke="#000000" fill="none" stroke-width="2" stroke-linecap="round" stroke-linejoin="round" marker-start="url(#_5A255F51-8537-413E-9852-241632FAADACstart)" marker-end="url(#_5A255F51-8537-413E-9852-241632FAADACend)"/></g><text id="_5A255F51-8537-413E-9852-241632FAADACtext_name" font-size="12" x="549.390625" y="166" oryx:edgePosition="startTop" stroke-width="0pt" letter-spacing="-0.01px" fill="#000000" text-anchor="start" transform="rotate(360 535.390625 180)" visibility="inherit" oryx:fontSize="12"/></g><g class="children" style="overflow:hidden"/><g class="edge"/></g><g class="controls"><g class="dockers"/><g class="magnets"/></g></g><g id="_5934B33D-4641-4D8E-B772-1D3BE84D5F65" bpmn2nodeid="_5AE1057B-F15B-41CE-B38C-15CB4AC5BF19"><g class="stencils"><g class="me"><g pointer-events="painted" bpmn2nodeid="_5AE1057B-F15B-41CE-B38C-15CB4AC5BF19"><path id="_5934B33D-4641-4D8E-B772-1D3BE84D5F65_1" d="M150.609375 180L194.15625 180 " stroke="#000000" fill="none" stroke-width="2" stroke-linecap="round" stroke-linejoin="round" marker-start="url(#_5934B33D-4641-4D8E-B772-1D3BE84D5F65start)" marker-end="url(#_5934B33D-4641-4D8E-B772-1D3BE84D5F65end)"/></g><text id="_5934B33D-4641-4D8E-B772-1D3BE84D5F65text_name" font-size="12" x="164.609375" y="166" oryx:edgePosition="startTop" stroke-width="0pt" letter-spacing="-0.01px" fill="#000000" text-anchor="start" transform="rotate(360 150.609375 180)" visibility="inherit" oryx:fontSize="12"/></g><g class="children" style="overflow:hidden"/><g class="edge"/></g><g class="controls"><g class="dockers"/><g class="magnets"/></g></g><g id="_06E272FF-62B1-4E16-80FE-9A8A54CF2E5F" bpmn2nodeid="_5C242C62-8F32-4BFA-93DB-A758491E72EC"><g class="stencils"><g class="me"><g pointer-events="painted" bpmn2nodeid="_5C242C62-8F32-4BFA-93DB-A758491E72EC"><path id="_06E272FF-62B1-4E16-80FE-9A8A54CF2E5F_1" d="M295.4140625 180L344.625 180 " stroke="#000000" fill="none" stroke-width="2" stroke-linecap="round" stroke-linejoin="round" marker-start="url(#_06E272FF-62B1-4E16-80FE-9A8A54CF2E5Fstart)" marker-end="url(#_06E272FF-62B1-4E16-80FE-9A8A54CF2E5Fend)"/></g><text id="_06E272FF-62B1-4E16-80FE-9A8A54CF2E5Ftext_name" font-size="12" x="309.4140625" y="166" oryx:edgePosition="startTop" stroke-width="0pt" letter-spacing="-0.01px" fill="#000000" text-anchor="start" transform="rotate(360 295.4140625 180)" visibility="inherit" oryx:fontSize="12"/></g><g class="children" style="overflow:hidden"/><g class="edge"/></g><g class="controls"><g class="dockers"/><g class="magnets"/></g></g></g><text id="_110FDC30-0F74-4A1B-AC15-8A01FE8D57FB" style="stroke-width:1;fill:rgb(177,194,214);font-family:arial;font-weight:bold" font-size="12" onclick="ORYX.Plugins.CanvasTitle.openTextualAnalysis()" onmouseover="ORYX.Plugins.CanvasTitle.addToolTip('_110FDC30-0F74-4A1B-AC15-8A01FE8D57FB')" transform="translate(10, 20)"/></g></g></svg>