<svg xmlns="http://www.w3.org/2000/svg" xmlns:oryx="http://oryx-editor.org" id="_3DC19808-B392-47E5-8DF4-3470777A0B12" width="538" height="130" xmlns:xlink="http://www.w3.org/1999/xlink" xmlns:svg="http://www.w3.org/2000/svg"><defs><marker id="_D448C069-15E3-41DC-9A8A-098D3CE12D97start" refX="1" refY="5" markerUnits="userSpaceOnUse" markerWidth="17" markerHeight="11" orient="auto" fill="#000000" stroke="#000000">
	  		<path id="_D448C069-15E3-41DC-9A8A-098D3CE12D97conditional" d="M 0 5 L 8 0 L 16 5 L 8 10 L 0 5" fill="white" stroke="#000000" stroke-width="1" display="none"/>
			<path id="_D448C069-15E3-41DC-9A8A-098D3CE12D97default" d="M 5 0 L 11 10" fill="white" stroke="#000000" stroke-width="1" display="none"/>
	  	</marker><marker id="_D448C069-15E3-41DC-9A8A-098D3CE12D97end" refX="15" refY="6" markerUnits="userSpaceOnUse" markerWidth="15" markerHeight="12" orient="auto" fill="#000000" stroke="#000000">
	  		<path id="_D448C069-15E3-41DC-9A8A-098D3CE12D97frame2" d="M 0 1 L 15 6 L 0 11z" fill="#000000" stroke="#000000" stroke-linejoin="round" stroke-width="2"/>
	  	</marker><marker id="_339E780F-E88B-42C0-87F2-71A878E80F5Bstart" refX="1" refY="5" markerUnits="userSpaceOnUse" markerWidth="17" markerHeight="11" orient="auto" fill="#000000" stroke="#000000">
	  		<path id="_339E780F-E88B-42C0-87F2-71A878E80F5Bconditional" d="M 0 5 L 8 0 L 16 5 L 8 10 L 0 5" fill="white" stroke="#000000" stroke-width="1" display="none"/>
			<path id="_339E780F-E88B-42C0-87F2-71A878E80F5Bdefault" d="M 5 0 L 11 10" fill="white" stroke="#000000" stroke-width="1" display="none"/>
	  	</marker><marker id="_339E780F-E88B-42C0-87F2-71A878E80F5Bend" refX="15" refY="6" markerUnits="userSpaceOnUse" markerWidth="15" markerHeight="12" orient="auto" fill="#000000" stroke="#000000">
	  		<path id="_339E780F-E88B-42C0-87F2-71A878E80F5Bframe2" d="M 0 1 L 15 6 L 0 11z" fill="#000000" stroke="#000000" stroke-linejoin="round" stroke-width="2"/>
	  	</marker><marker id="_2A914214-5407-459A-B1A1-58CF029904B8start" refX="1" refY="5" markerUnits="userSpaceOnUse" markerWidth="17" markerHeight="11" orient="auto" fill="#000000" stroke="#000000">
	  		<path id="_2A914214-5407-459A-B1A1-58CF029904B8conditional" d="M 0 5 L 8 0 L 16 5 L 8 10 L 0 5" fill="white" stroke="#000000" stroke-width="1" display="none"/>
			<path id="_2A914214-5407-459A-B1A1-58CF029904B8default" d="M 5 0 L 11 10" fill="white" stroke="#000000" stroke-width="1" display="none"/>
	  	</marker><marker id="_2A914214-5407-459A-B1A1-58CF029904B8end" refX="15" refY="6" markerUnits="userSpaceOnUse" markerWidth="15" markerHeight="12" orient="auto" fill="#000000" stroke="#000000">
	  		<path id="_2A914214-5407-459A-B1A1-58CF029904B8frame2" d="M 0 1 L 15 6 L 0 11z" fill="#000000" stroke="#000000" stroke-linejoin="round" stroke-width="2"/>
	  	</marker><marker id="_70E43D06-0991-457C-9B37-9234C273181Cstart" refX="1" refY="5" markerUnits="userSpaceOnUse" markerWidth="17" markerHeight="11" orient="auto" fill="#000000" stroke="#000000">
	  		<path id="_70E43D06-0991-457C-9B37-9234C273181Cconditional" d="M 0 5 L 8 0 L 16 5 L 8 10 L 0 5" fill="white" stroke="#000000" stroke-width="1" display="none"/>
			<path id="_70E43D06-0991-457C-9B37-9234C273181Cdefault" d="M 5 0 L 11 10" fill="white" stroke="#000000" stroke-width="1" display="none"/>
	  	</marker><marker id="_70E43D06-0991-457C-9B37-9234C273181Cend" refX="15" refY="6" markerUnits="userSpaceOnUse" markerWidth="15" markerHeight="12" orient="auto" fill="#000000" stroke="#000000">
	  		<path id="_70E43D06-0991-457C-9B37-9234C273181Cframe2" d="M 0 1 L 15 6 L 0 11z" fill="#000000" stroke="#000000" stroke-linejoin="round" stroke-width="2"/>
	  	</marker></defs><g stroke="none" font-family="Verdana, sans-serif" font-size-adjust="none" font-style="normal" font-variant="normal" font-weight="normal" line-heigth="normal" font-size="12"><g class="stencils" transform="translate(-95, -115)"><g class="me"/><g class="children"><g id="_4AFC3BE6-39B5-436A-92F6-E8CDA35C32DC" bpmn2nodeid="processStartEvent"><g class="stencils" transform="translate(120, 165)"><g class="me"><g pointer-events="fill" id="_4AFC3BE6-39B5-436A-92F6-E8CDA35C32DC">
  
    <defs id="_4AFC3BE6-39B5-436A-92F6-E8CDA35C32DC__4AFC3BE6-39B5-436A-92F6-E8CDA35C32DC_5">
		<radialGradient id="_4AFC3BE6-39B5-436A-92F6-E8CDA35C32DCbackground" cx="10%" cy="10%" r="100%" fx="10%" fy="10%">
			<stop offset="0%" stop-color="#ffffff" stop-opacity="1" id="_4AFC3BE6-39B5-436A-92F6-E8CDA35C32DC__4AFC3BE6-39B5-436A-92F6-E8CDA35C32DC_6"/>
			<stop id="_4AFC3BE6-39B5-436A-92F6-E8CDA35C32DCfill_el" offset="100%" stop-color="#9acd32" stop-opacity="1"/>
		</radialGradient>
	</defs>
	
    <circle id="_4AFC3BE6-39B5-436A-92F6-E8CDA35C32DCbg_frame" cx="15" cy="15" r="15" stroke="#000000" fill="url(#_4AFC3BE6-39B5-436A-92F6-E8CDA35C32DCbackground) white" stroke-width="1" style="stroke-dasharray: 5.5, 3"/>

    <circle id="_4AFC3BE6-39B5-436A-92F6-E8CDA35C32DCframe" cx="15" cy="15" r="15" stroke="#000000" fill="none" stroke-width="1"/>

	<text font-size="11" id="_4AFC3BE6-39B5-436A-92F6-E8CDA35C32DCtext_name" x="15" y="32" oryx:align="top center" stroke="black" stroke-width="0pt" letter-spacing="-0.01px" fill="#000000" text-anchor="middle" transform="rotate(0 15 32)" visibility="inherit" oryx:fontSize="11"/>
  </g></g><g class="children" style="overflow:hidden"/><g class="edge"/></g><g class="controls"><g class="dockers"/><g class="magnets" transform="translate(120, 165)"><g pointer-events="all" display="none" transform="translate(7, 7)"><circle cx="8" cy="8" r="4" stroke="none" fill="red" fill-opacity="0.3"/></g></g></g></g><g id="_EBAC87DC-F9EA-436C-A430-25AD8ABB3416" bpmn2nodeid="_6604534C-DD3E-494F-BB17-FD2D58F4E0F9"><g class="stencils" transform="translate(345, 165)"><g class="me"><g pointer-events="fill" id="_EBAC87DC-F9EA-436C-A430-25AD8ABB3416">

    <defs id="_EBAC87DC-F9EA-436C-A430-25AD8ABB3416__EBAC87DC-F9EA-436C-A430-25AD8ABB3416_6">
		<radialGradient id="_EBAC87DC-F9EA-436C-A430-25AD8ABB3416background" cx="10%" cy="10%" r="100%" fx="10%" fy="10%">
			<stop offset="0%" stop-color="#ffffff" stop-opacity="1" id="_EBAC87DC-F9EA-436C-A430-25AD8ABB3416__EBAC87DC-F9EA-436C-A430-25AD8ABB3416_7"/>
			<stop id="_EBAC87DC-F9EA-436C-A430-25AD8ABB3416fill_el" offset="100%" stop-color="#f5deb3" stop-opacity="1"/>
		</radialGradient>
	</defs>
	
    <circle id="_EBAC87DC-F9EA-436C-A430-25AD8ABB3416bg_frame" cx="15" cy="15" r="15" stroke="#a0522d" fill="url(#_EBAC87DC-F9EA-436C-A430-25AD8ABB3416background) white" stroke-width="1" style="stroke-dasharray: 5.5, 3"/>
    	
    <circle id="_EBAC87DC-F9EA-436C-A430-25AD8ABB3416frame" cx="15" cy="15" r="12" stroke="#a0522d" fill="none" stroke-width="1" style="stroke-dasharray: 4.5, 3" display="inherit"/>
    
    <circle id="_EBAC87DC-F9EA-436C-A430-25AD8ABB3416frame2" cx="15" cy="15" r="15" stroke="#a0522d" fill="none" stroke-width="1" display="inherit"/>
    <circle id="_EBAC87DC-F9EA-436C-A430-25AD8ABB3416frame3" cx="15" cy="15" r="12" stroke="#a0522d" fill="none" stroke-width="1"/>
	<path id="_EBAC87DC-F9EA-436C-A430-25AD8ABB3416frame4" stroke="#a0522d" d=" M7.7124971 20.247342  L22.333334 20.247342  L15.022915000000001 7.575951200000001  L7.7124971 20.247342  z" style="fill:none;stroke-width:1.4;stroke-miterlimit:4;stroke-dasharray:none"/>
	<text font-size="11" id="_EBAC87DC-F9EA-436C-A430-25AD8ABB3416text_name" x="15" y="32" oryx:align="top center" stroke="black" stroke-width="0pt" letter-spacing="-0.01px" fill="#000000" text-anchor="middle" transform="rotate(0 15 32)" visibility="inherit" oryx:fontSize="11"/>
  </g></g><g class="children" style="overflow:hidden"/><g class="edge"/></g><g class="controls"><g class="dockers"/><g class="magnets" transform="translate(345, 165)"><g pointer-events="all" display="none" transform="translate(7, 7)"><circle cx="8" cy="8" r="4" stroke="none" fill="red" fill-opacity="0.3"/></g></g></g></g><g id="_7DA1D2B7-1441-4B09-A3F0-6462DB5635F8" bpmn2nodeid="_06CD7F85-D811-4DB9-9EA5-91DC6127B53E"><g class="stencils" transform="translate(435, 140)"><g class="me"><g pointer-events="fill" oryx:minimumSize="50 40" id="_7DA1D2B7-1441-4B09-A3F0-6462DB5635F8">
  	<defs id="_7DA1D2B7-1441-4B09-A3F0-6462DB5635F8__7DA1D2B7-1441-4B09-A3F0-6462DB5635F8_17">
		<radialGradient id="_7DA1D2B7-1441-4B09-A3F0-6462DB5635F8background" cx="10%" cy="10%" r="100%" fx="10%" fy="10%">
			<stop offset="0%" stop-color="#ffffff" stop-opacity="1" id="_7DA1D2B7-1441-4B09-A3F0-6462DB5635F8__7DA1D2B7-1441-4B09-A3F0-6462DB5635F8_18"/>
			<stop id="_7DA1D2B7-1441-4B09-A3F0-6462DB5635F8fill_el" offset="100%" stop-color="#fafad2" stop-opacity="1"/>
		</radialGradient>
		<radialGradient id="_7DA1D2B7-1441-4B09-A3F0-6462DB5635F8borderbackground" cx="10%" cy="10%" r="100%" fx="10%" fy="10%">
			<stop offset="0%" stop-color="#ffffff" stop-opacity="1" id="_7DA1D2B7-1441-4B09-A3F0-6462DB5635F8__7DA1D2B7-1441-4B09-A3F0-6462DB5635F8_19"/>
			<stop id="_7DA1D2B7-1441-4B09-A3F0-6462DB5635F8fill_border" offset="100%" stop-color="#000000" stop-opacity="1" stroke="#000000"/>
		</radialGradient>
	</defs>
	
	<rect id="_7DA1D2B7-1441-4B09-A3F0-6462DB5635F8text_frame" oryx:anchors="bottom top right left" x="1" y="1" width="94" height="79" rx="10" ry="10" stroke="none" stroke-width="0" fill="none"/>
	<rect id="_7DA1D2B7-1441-4B09-A3F0-6462DB5635F8bg_frame" oryx:resize="vertical horizontal" x="0" y="0" width="100" height="80" rx="10" ry="10" stroke="#000000" stroke-width="1" fill="url(#_7DA1D2B7-1441-4B09-A3F0-6462DB5635F8background) #ffffcc"/>
		<text font-size="12" id="_7DA1D2B7-1441-4B09-A3F0-6462DB5635F8text_name" x="50" y="40" oryx:align="middle center" oryx:fittoelem="text_frame" stroke="black" text-anchor="middle" stroke-width="0pt" letter-spacing="-0.01px" fill="#000000" transform="rotate(0 50 40)" visibility="inherit" oryx:fontSize="12"><tspan x="50" y="40" dy="-7" id="ext-gen3736">Set Signal </tspan><tspan x="50" y="40" dy="5">Data on Parent </tspan><tspan x="50" y="40" dy="17" id="ext-gen608">Process</tspan></text>
    <g id="_7DA1D2B7-1441-4B09-A3F0-6462DB5635F8manualTask" transform="scale(0.7,0.7) translate(8,8)" display="none">
    	<path oryx:anchors="top left" id="_7DA1D2B7-1441-4B09-A3F0-6462DB5635F8frame" style="opacity:1;fill:none;fill-opacity:1;stroke-width:1" d="M0.5,3.751l4.083-3.25c0,0,11.166,0.083,12.083,0.083s-2.417,2.917-1.5,2.917     s11.667,0,12.584,0c1.166,1.708-0.168,3.167-0.834,3.667s0.875,1.917-1,4.417c-0.75,0.25,0.75,1.875-1.333,3.333     c-1.167,0.583,0.583,1.542-1.25,2.833c-1.167,0-20.833,0.083-20.833,0.083l-2-1.333V3.751z" stroke="#000000"/>
		<path id="_7DA1D2B7-1441-4B09-A3F0-6462DB5635F8frame2" oryx:anchors="top left" style="opacity:1;fill:none;stroke-width:2" d="M 13.5 7 L 27 7" stroke="#000000"/>
		<path id="_7DA1D2B7-1441-4B09-A3F0-6462DB5635F8frame3" oryx:anchors="top left" style="opacity:1;fill:none;stroke-width:2" d="M 13.5 11 L 26 11" stroke="#000000"/>
		<path id="_7DA1D2B7-1441-4B09-A3F0-6462DB5635F8frame4" oryx:anchors="top left" style="opacity:1;fill:none;stroke-width:1.5" d="M 14 14.5 L 25 14.5" stroke="#000000"/>
		<path id="_7DA1D2B7-1441-4B09-A3F0-6462DB5635F8frame5" oryx:anchors="top left" style="opacity:1;fill:none;stroke-width:1.5" d="M 8.2 3.1 L 15 3.1" stroke="#000000"/>
	</g>
	
	<g id="_7DA1D2B7-1441-4B09-A3F0-6462DB5635F8businessRuleTask" transform="scale(0.7,0.7) translate(8,8)" display="none">
		<rect id="_7DA1D2B7-1441-4B09-A3F0-6462DB5635F8frame6" oryx:anchors="top left" x="0" y="0" width="22" height="4" style="opacity:1;fill:#B3B1B3;fill-opacity:1;" stroke="#000000"/>
		<rect id="_7DA1D2B7-1441-4B09-A3F0-6462DB5635F8frame7" oryx:anchors="top left" x="0" y="4" style="opacity:1;fill:none;" width="22" height="12" stroke="#000000"/>
		<path id="_7DA1D2B7-1441-4B09-A3F0-6462DB5635F8frame8" oryx:anchors="top left" style="opacity:1;fill:none;" d="M 0 10 L 22 10" stroke="#000000"/>
		<path id="_7DA1D2B7-1441-4B09-A3F0-6462DB5635F8frame9" oryx:anchors="top left" style="opacity:1; fill:none;" d="M 7 4 L 7 16" stroke="#000000"/>
	</g>
	
	<g id="_7DA1D2B7-1441-4B09-A3F0-6462DB5635F8scriptTask" transform="scale(0.7,0.7) translate(8,8)" display="inherit">
		<path oryx:anchors="top left" id="_7DA1D2B7-1441-4B09-A3F0-6462DB5635F8frame10" style="opacity:1;fill:none;" stroke="#000000" d="M6.402,0.5h14.5c0,0-5.833,2.833-5.833,5.583s4.417,6,4.417,9.167    s-4.167,5.083-4.167,5.083H0.235c0,0,5-2.667,5-5s-4.583-6.75-4.583-9.25S6.402,0.5,6.402,0.5z"/>
		<path oryx:anchors="top left" id="_7DA1D2B7-1441-4B09-A3F0-6462DB5635F8frame11" style="opacity:1;fill:none;stroke-width:1.5" d="M 3.5 4.5 L 13.5 4.5" stroke="#000000"/>
		<path oryx:anchors="top left" id="_7DA1D2B7-1441-4B09-A3F0-6462DB5635F8frame12" style="opacity:1;fill:none;stroke-width:1.5" d="M 3.8 8.5 L 13.8 8.5" stroke="#000000"/>
		<path oryx:anchors="top left" id="_7DA1D2B7-1441-4B09-A3F0-6462DB5635F8frame13" style="opacity:1;fill:none;stroke-width:1.5" d="M 6.3 12.5 L 16.3 12.5" stroke="#000000"/>
		<path oryx:anchors="top left" id="_7DA1D2B7-1441-4B09-A3F0-6462DB5635F8frame14" style="opacity:1;fill:none;stroke-width:1.5" d="M 6.5 16.5 L 16.5 16.5" stroke="#000000"/>
	</g>
	
	<g id="_7DA1D2B7-1441-4B09-A3F0-6462DB5635F8userTask" transform="scale(0.7,0.7) translate(8,8)" display="none">
		<path id="_7DA1D2B7-1441-4B09-A3F0-6462DB5635F8frame15" oryx:anchors="top left" style="opacity:1;fill:#F4F6F7" stroke="#000000" d="M0.585,24.167h24.083v-7.833c0,0-2.333-3.917-7.083-5.167h-9.25    c-4.417,1.333-7.833,5.75-7.833,5.75L0.585,24.167z"/>
		<path id="_7DA1D2B7-1441-4B09-A3F0-6462DB5635F8frame16" oryx:anchors="top left" style="opacity:1;fill:none" d="M 6 20 L 6 24" stroke="#000000"/>
		<path id="_7DA1D2B7-1441-4B09-A3F0-6462DB5635F8frame17" oryx:anchors="top left" style="opacity:1;fill:none" d="M 20 20 L 20 24" stroke="#000000"/>
		<circle id="_7DA1D2B7-1441-4B09-A3F0-6462DB5635F8frame18" oryx:anchors="top left" fill="black" cx="13.002" cy="5.916" r="5.417" stroke="#000000"/>
		<path id="_7DA1D2B7-1441-4B09-A3F0-6462DB5635F8frame19" oryx:anchors="top left" style="opacity:1;fill:#F0EFF0;" stroke="#000000" d="M8.043,7.083c0,0,2.814-2.426,5.376-1.807s4.624-0.693,4.624-0.693    c0.25,1.688,0.042,3.75-1.458,5.584c0,0,1.083,0.75,1.083,1.5s0.125,1.875-1,3s-5.5,1.25-6.75,0S8.668,12.834,8.668,12    s0.583-1.25,1.25-1.917C8.835,9.5,7.419,7.708,8.043,7.083z"/>
	</g>
	
	<g id="_7DA1D2B7-1441-4B09-A3F0-6462DB5635F8serviceTask" transform="scale(0.7,0.7) translate(8,8)" display="none">
		<polygon oryx:anchors="top left" id="_7DA1D2B7-1441-4B09-A3F0-6462DB5635F8frame20" style="opacity:1;fill:#ffffff" stroke="#000000" points="15.392,5.064 17.954,2.502 20.347,4.895 17.786,7.455     18.729,9.732 22.353,9.732 22.353,13.115 18.731,13.115 17.788,15.392 20.351,17.955 17.958,20.347 15.397,17.786 13.12,18.729     13.12,22.353 9.737,22.353 9.737,18.731 7.46,17.788 4.897,20.35 2.506,17.958 5.066,15.397 4.124,13.12 0.5,13.12 0.5,9.737     4.121,9.737 5.065,7.461 2.503,4.898 4.895,2.506 7.455,5.066 9.732,4.125 9.732,0.5 13.116,0.5 13.116,4.121 "/>
		<circle oryx:anchors="top left" id="_7DA1D2B7-1441-4B09-A3F0-6462DB5635F8frame21" style="opacity:1;fill:none" stroke="#000000" cx="11.427" cy="11.426" r="3.714"/>
		<polygon oryx:anchors="top left" id="_7DA1D2B7-1441-4B09-A3F0-6462DB5635F8frame22" style="opacity:1;fill:#ffffff" stroke="#000000" points="21.392,11.064 23.954,8.502 26.347,10.895 23.786,13.455     24.729,15.732 28.353,15.732 28.353,19.115 24.731,19.115 23.788,21.392 26.351,23.955 23.958,26.347 21.397,23.786 19.12,24.729     19.12,28.353 15.737,28.353 15.737,24.731 13.46,23.788 10.897,26.35 8.506,23.958 11.066,21.397 10.124,19.12 6.5,19.12     6.5,15.737 10.121,15.737 11.065,13.461 8.503,10.898 10.895,8.506 13.455,11.066 15.732,10.125 15.732,6.5 19.116,6.5     19.116,10.121 "/>
		<circle oryx:anchors="top left" id="_7DA1D2B7-1441-4B09-A3F0-6462DB5635F8frame23" style="opacity:1;fill:none;" stroke="#000000" cx="17.427" cy="17.426" r="3.714"/>
	</g>
	
	<g id="_7DA1D2B7-1441-4B09-A3F0-6462DB5635F8sendTask" display="none">
		<path id="_7DA1D2B7-1441-4B09-A3F0-6462DB5635F8stframe24" oryx:anchors="left top" stroke="#FFFFFF" fill="black" stroke-width="1" d="M8,11 L8,21 L24,21 L24,11 L16,17z"/>
		<path id="_7DA1D2B7-1441-4B09-A3F0-6462DB5635F8stframe25" oryx:anchors="left top" stroke="#FFFFFF" fill="black" stroke-width="1" d="M7,10 L16,17 L25 10z"/>
	</g>
	
	<g id="_7DA1D2B7-1441-4B09-A3F0-6462DB5635F8receiveTask" display="none">
		<path id="_7DA1D2B7-1441-4B09-A3F0-6462DB5635F8frame26" oryx:anchors="left top" stroke="#000000" fill="none" stroke-width="1" d="M8,11 L8,21 L24,21 L24,11z M8,11 L16,17 L24,11"/>
	</g>
	
	<g id="_7DA1D2B7-1441-4B09-A3F0-6462DB5635F8none" display="none"/>

	<g id="_7DA1D2B7-1441-4B09-A3F0-6462DB5635F8sequential">
        <path oryx:anchors="bottom" fill="none" stroke="#000000" stroke-width="2" d="M46,76h10M46,72h10 M46,68h10" id="_7DA1D2B7-1441-4B09-A3F0-6462DB5635F8__7DA1D2B7-1441-4B09-A3F0-6462DB5635F8_20"/>
    </g>
  </g></g><g class="children" style="overflow:hidden"/><g class="edge"/></g><g class="controls"><g class="dockers"/><g class="magnets" transform="translate(435, 140)"><g pointer-events="all" display="none" transform="translate(-7, 12)"><circle cx="8" cy="8" r="4" stroke="none" fill="red" fill-opacity="0.3"/></g><g pointer-events="all" display="none" transform="translate(-7, 32)"><circle cx="8" cy="8" r="4" stroke="none" fill="red" fill-opacity="0.3"/></g><g pointer-events="all" display="none" transform="translate(-7, 52)"><circle cx="8" cy="8" r="4" stroke="none" fill="red" fill-opacity="0.3"/></g><g pointer-events="all" display="none" transform="translate(17, 71)"><circle cx="8" cy="8" r="4" stroke="none" fill="red" fill-opacity="0.3"/></g><g pointer-events="all" display="none" transform="translate(42, 71)"><circle cx="8" cy="8" r="4" stroke="none" fill="red" fill-opacity="0.3"/></g><g pointer-events="all" display="none" transform="translate(67, 71)"><circle cx="8" cy="8" r="4" stroke="none" fill="red" fill-opacity="0.3"/></g><g pointer-events="all" display="none" transform="translate(91, 12)"><circle cx="8" cy="8" r="4" stroke="none" fill="red" fill-opacity="0.3"/></g><g pointer-events="all" display="none" transform="translate(91, 32)"><circle cx="8" cy="8" r="4" stroke="none" fill="red" fill-opacity="0.3"/></g><g pointer-events="all" display="none" transform="translate(91, 52)"><circle cx="8" cy="8" r="4" stroke="none" fill="red" fill-opacity="0.3"/></g><g pointer-events="all" display="none" transform="translate(17, -7)"><circle cx="8" cy="8" r="4" stroke="none" fill="red" fill-opacity="0.3"/></g><g pointer-events="all" display="none" transform="translate(42, -7)"><circle cx="8" cy="8" r="4" stroke="none" fill="red" fill-opacity="0.3"/></g><g pointer-events="all" display="none" transform="translate(67, -7)"><circle cx="8" cy="8" r="4" stroke="none" fill="red" fill-opacity="0.3"/></g><g pointer-events="all" display="none" transform="translate(42, 32)"><circle cx="8" cy="8" r="4" stroke="none" fill="red" fill-opacity="0.3"/></g></g></g></g><g id="_FDDAA3C8-A89C-4DA6-9CE5-54B02F4B0A60" bpmn2nodeid="_CE9917B1-4332-4006-B5F4-052D56F3C25F"><g class="stencils" transform="translate(580, 166)"><g class="me"><g pointer-events="fill" id="_FDDAA3C8-A89C-4DA6-9CE5-54B02F4B0A60">

    <defs id="_FDDAA3C8-A89C-4DA6-9CE5-54B02F4B0A60__FDDAA3C8-A89C-4DA6-9CE5-54B02F4B0A60_5">
		<radialGradient id="_FDDAA3C8-A89C-4DA6-9CE5-54B02F4B0A60background" cx="10%" cy="10%" r="100%" fx="10%" fy="10%">
			<stop offset="0%" stop-color="#ffffff" stop-opacity="1" id="_FDDAA3C8-A89C-4DA6-9CE5-54B02F4B0A60__FDDAA3C8-A89C-4DA6-9CE5-54B02F4B0A60_6"/>
			<stop id="_FDDAA3C8-A89C-4DA6-9CE5-54B02F4B0A60fill_el" offset="100%" stop-color="#ff6347" stop-opacity="1"/>
		</radialGradient>
	</defs>
	
    <circle id="_FDDAA3C8-A89C-4DA6-9CE5-54B02F4B0A60bg_frame" cx="14" cy="14" r="14" stroke="#000000" fill="url(#_FDDAA3C8-A89C-4DA6-9CE5-54B02F4B0A60background) white" stroke-width="3"/>
	<text font-size="11" id="_FDDAA3C8-A89C-4DA6-9CE5-54B02F4B0A60text_name" x="14" y="30" oryx:align="top center" stroke="black" stroke-width="0pt" letter-spacing="-0.01px" fill="#000000" text-anchor="middle" transform="rotate(0 14 30)" visibility="inherit" oryx:fontSize="11"/>
  </g></g><g class="children" style="overflow:hidden"/><g class="edge"/></g><g class="controls"><g class="dockers"/><g class="magnets" transform="translate(580, 166)"><g pointer-events="all" display="none" transform="translate(6, 6)"><circle cx="8" cy="8" r="4" stroke="none" fill="red" fill-opacity="0.3"/></g></g></g></g><g id="_CEABF7C4-144F-46C6-85FB-280D897A0738" bpmn2nodeid="_B1E8E858-C1E9-4728-80A6-8BEB9BEB6E79"><g class="stencils" transform="translate(195, 140)"><g class="me"><g pointer-events="fill" oryx:minimumSize="50 40" id="_CEABF7C4-144F-46C6-85FB-280D897A0738">
  	<defs id="_CEABF7C4-144F-46C6-85FB-280D897A0738__CEABF7C4-144F-46C6-85FB-280D897A0738_17">
		<radialGradient id="_CEABF7C4-144F-46C6-85FB-280D897A0738background" cx="10%" cy="10%" r="100%" fx="10%" fy="10%">
			<stop offset="0%" stop-color="#ffffff" stop-opacity="1" id="_CEABF7C4-144F-46C6-85FB-280D897A0738__CEABF7C4-144F-46C6-85FB-280D897A0738_18"/>
			<stop id="_CEABF7C4-144F-46C6-85FB-280D897A0738fill_el" offset="100%" stop-color="#fafad2" stop-opacity="1"/>
		</radialGradient>
		<radialGradient id="_CEABF7C4-144F-46C6-85FB-280D897A0738borderbackground" cx="10%" cy="10%" r="100%" fx="10%" fy="10%">
			<stop offset="0%" stop-color="#ffffff" stop-opacity="1" id="_CEABF7C4-144F-46C6-85FB-280D897A0738__CEABF7C4-144F-46C6-85FB-280D897A0738_19"/>
			<stop id="_CEABF7C4-144F-46C6-85FB-280D897A0738fill_border" offset="100%" stop-color="#000000" stop-opacity="1" stroke="#000000"/>
		</radialGradient>
	</defs>
	
	<rect id="_CEABF7C4-144F-46C6-85FB-280D897A0738text_frame" oryx:anchors="bottom top right left" x="1" y="1" width="94" height="79" rx="10" ry="10" stroke="none" stroke-width="0" fill="none"/>
	<rect id="_CEABF7C4-144F-46C6-85FB-280D897A0738bg_frame" oryx:resize="vertical horizontal" x="0" y="0" width="100" height="80" rx="10" ry="10" stroke="#000000" stroke-width="1" fill="url(#_CEABF7C4-144F-46C6-85FB-280D897A0738background) #ffffcc"/>
		<text font-size="12" id="_CEABF7C4-144F-46C6-85FB-280D897A0738text_name" x="50" y="40" oryx:align="middle center" oryx:fittoelem="text_frame" stroke="black" text-anchor="middle" stroke-width="0pt" letter-spacing="-0.01px" fill="#000000" transform="rotate(0 50 40)" visibility="inherit" oryx:fontSize="12"><tspan x="50" y="40" dy="-13" id="ext-gen3461">Set Signal </tspan><tspan x="50" y="40" dy="-1">Name With </tspan><tspan x="50" y="40" dy="11">Parent Process </tspan><tspan x="50" y="40" dy="23">ID</tspan></text>
    <g id="_CEABF7C4-144F-46C6-85FB-280D897A0738manualTask" transform="scale(0.7,0.7) translate(8,8)" display="none">
    	<path oryx:anchors="top left" id="_CEABF7C4-144F-46C6-85FB-280D897A0738frame" style="opacity:1;fill:none;fill-opacity:1;stroke-width:1" d="M0.5,3.751l4.083-3.25c0,0,11.166,0.083,12.083,0.083s-2.417,2.917-1.5,2.917     s11.667,0,12.584,0c1.166,1.708-0.168,3.167-0.834,3.667s0.875,1.917-1,4.417c-0.75,0.25,0.75,1.875-1.333,3.333     c-1.167,0.583,0.583,1.542-1.25,2.833c-1.167,0-20.833,0.083-20.833,0.083l-2-1.333V3.751z" stroke="#000000"/>
		<path id="_CEABF7C4-144F-46C6-85FB-280D897A0738frame2" oryx:anchors="top left" style="opacity:1;fill:none;stroke-width:2" d="M 13.5 7 L 27 7" stroke="#000000"/>
		<path id="_CEABF7C4-144F-46C6-85FB-280D897A0738frame3" oryx:anchors="top left" style="opacity:1;fill:none;stroke-width:2" d="M 13.5 11 L 26 11" stroke="#000000"/>
		<path id="_CEABF7C4-144F-46C6-85FB-280D897A0738frame4" oryx:anchors="top left" style="opacity:1;fill:none;stroke-width:1.5" d="M 14 14.5 L 25 14.5" stroke="#000000"/>
		<path id="_CEABF7C4-144F-46C6-85FB-280D897A0738frame5" oryx:anchors="top left" style="opacity:1;fill:none;stroke-width:1.5" d="M 8.2 3.1 L 15 3.1" stroke="#000000"/>
	</g>
	
	<g id="_CEABF7C4-144F-46C6-85FB-280D897A0738businessRuleTask" transform="scale(0.7,0.7) translate(8,8)" display="none">
		<rect id="_CEABF7C4-144F-46C6-85FB-280D897A0738frame6" oryx:anchors="top left" x="0" y="0" width="22" height="4" style="opacity:1;fill:#B3B1B3;fill-opacity:1;" stroke="#000000"/>
		<rect id="_CEABF7C4-144F-46C6-85FB-280D897A0738frame7" oryx:anchors="top left" x="0" y="4" style="opacity:1;fill:none;" width="22" height="12" stroke="#000000"/>
		<path id="_CEABF7C4-144F-46C6-85FB-280D897A0738frame8" oryx:anchors="top left" style="opacity:1;fill:none;" d="M 0 10 L 22 10" stroke="#000000"/>
		<path id="_CEABF7C4-144F-46C6-85FB-280D897A0738frame9" oryx:anchors="top left" style="opacity:1; fill:none;" d="M 7 4 L 7 16" stroke="#000000"/>
	</g>
	
	<g id="_CEABF7C4-144F-46C6-85FB-280D897A0738scriptTask" transform="scale(0.7,0.7) translate(8,8)" display="inherit">
		<path oryx:anchors="top left" id="_CEABF7C4-144F-46C6-85FB-280D897A0738frame10" style="opacity:1;fill:none;" stroke="#000000" d="M6.402,0.5h14.5c0,0-5.833,2.833-5.833,5.583s4.417,6,4.417,9.167    s-4.167,5.083-4.167,5.083H0.235c0,0,5-2.667,5-5s-4.583-6.75-4.583-9.25S6.402,0.5,6.402,0.5z"/>
		<path oryx:anchors="top left" id="_CEABF7C4-144F-46C6-85FB-280D897A0738frame11" style="opacity:1;fill:none;stroke-width:1.5" d="M 3.5 4.5 L 13.5 4.5" stroke="#000000"/>
		<path oryx:anchors="top left" id="_CEABF7C4-144F-46C6-85FB-280D897A0738frame12" style="opacity:1;fill:none;stroke-width:1.5" d="M 3.8 8.5 L 13.8 8.5" stroke="#000000"/>
		<path oryx:anchors="top left" id="_CEABF7C4-144F-46C6-85FB-280D897A0738frame13" style="opacity:1;fill:none;stroke-width:1.5" d="M 6.3 12.5 L 16.3 12.5" stroke="#000000"/>
		<path oryx:anchors="top left" id="_CEABF7C4-144F-46C6-85FB-280D897A0738frame14" style="opacity:1;fill:none;stroke-width:1.5" d="M 6.5 16.5 L 16.5 16.5" stroke="#000000"/>
	</g>
	
	<g id="_CEABF7C4-144F-46C6-85FB-280D897A0738userTask" transform="scale(0.7,0.7) translate(8,8)" display="none">
		<path id="_CEABF7C4-144F-46C6-85FB-280D897A0738frame15" oryx:anchors="top left" style="opacity:1;fill:#F4F6F7" stroke="#000000" d="M0.585,24.167h24.083v-7.833c0,0-2.333-3.917-7.083-5.167h-9.25    c-4.417,1.333-7.833,5.75-7.833,5.75L0.585,24.167z"/>
		<path id="_CEABF7C4-144F-46C6-85FB-280D897A0738frame16" oryx:anchors="top left" style="opacity:1;fill:none" d="M 6 20 L 6 24" stroke="#000000"/>
		<path id="_CEABF7C4-144F-46C6-85FB-280D897A0738frame17" oryx:anchors="top left" style="opacity:1;fill:none" d="M 20 20 L 20 24" stroke="#000000"/>
		<circle id="_CEABF7C4-144F-46C6-85FB-280D897A0738frame18" oryx:anchors="top left" fill="black" cx="13.002" cy="5.916" r="5.417" stroke="#000000"/>
		<path id="_CEABF7C4-144F-46C6-85FB-280D897A0738frame19" oryx:anchors="top left" style="opacity:1;fill:#F0EFF0;" stroke="#000000" d="M8.043,7.083c0,0,2.814-2.426,5.376-1.807s4.624-0.693,4.624-0.693    c0.25,1.688,0.042,3.75-1.458,5.584c0,0,1.083,0.75,1.083,1.5s0.125,1.875-1,3s-5.5,1.25-6.75,0S8.668,12.834,8.668,12    s0.583-1.25,1.25-1.917C8.835,9.5,7.419,7.708,8.043,7.083z"/>
	</g>
	
	<g id="_CEABF7C4-144F-46C6-85FB-280D897A0738serviceTask" transform="scale(0.7,0.7) translate(8,8)" display="none">
		<polygon oryx:anchors="top left" id="_CEABF7C4-144F-46C6-85FB-280D897A0738frame20" style="opacity:1;fill:#ffffff" stroke="#000000" points="15.392,5.064 17.954,2.502 20.347,4.895 17.786,7.455     18.729,9.732 22.353,9.732 22.353,13.115 18.731,13.115 17.788,15.392 20.351,17.955 17.958,20.347 15.397,17.786 13.12,18.729     13.12,22.353 9.737,22.353 9.737,18.731 7.46,17.788 4.897,20.35 2.506,17.958 5.066,15.397 4.124,13.12 0.5,13.12 0.5,9.737     4.121,9.737 5.065,7.461 2.503,4.898 4.895,2.506 7.455,5.066 9.732,4.125 9.732,0.5 13.116,0.5 13.116,4.121 "/>
		<circle oryx:anchors="top left" id="_CEABF7C4-144F-46C6-85FB-280D897A0738frame21" style="opacity:1;fill:none" stroke="#000000" cx="11.427" cy="11.426" r="3.714"/>
		<polygon oryx:anchors="top left" id="_CEABF7C4-144F-46C6-85FB-280D897A0738frame22" style="opacity:1;fill:#ffffff" stroke="#000000" points="21.392,11.064 23.954,8.502 26.347,10.895 23.786,13.455     24.729,15.732 28.353,15.732 28.353,19.115 24.731,19.115 23.788,21.392 26.351,23.955 23.958,26.347 21.397,23.786 19.12,24.729     19.12,28.353 15.737,28.353 15.737,24.731 13.46,23.788 10.897,26.35 8.506,23.958 11.066,21.397 10.124,19.12 6.5,19.12     6.5,15.737 10.121,15.737 11.065,13.461 8.503,10.898 10.895,8.506 13.455,11.066 15.732,10.125 15.732,6.5 19.116,6.5     19.116,10.121 "/>
		<circle oryx:anchors="top left" id="_CEABF7C4-144F-46C6-85FB-280D897A0738frame23" style="opacity:1;fill:none;" stroke="#000000" cx="17.427" cy="17.426" r="3.714"/>
	</g>
	
	<g id="_CEABF7C4-144F-46C6-85FB-280D897A0738sendTask" display="none">
		<path id="_CEABF7C4-144F-46C6-85FB-280D897A0738stframe24" oryx:anchors="left top" stroke="#FFFFFF" fill="black" stroke-width="1" d="M8,11 L8,21 L24,21 L24,11 L16,17z"/>
		<path id="_CEABF7C4-144F-46C6-85FB-280D897A0738stframe25" oryx:anchors="left top" stroke="#FFFFFF" fill="black" stroke-width="1" d="M7,10 L16,17 L25 10z"/>
	</g>
	
	<g id="_CEABF7C4-144F-46C6-85FB-280D897A0738receiveTask" display="none">
		<path id="_CEABF7C4-144F-46C6-85FB-280D897A0738frame26" oryx:anchors="left top" stroke="#000000" fill="none" stroke-width="1" d="M8,11 L8,21 L24,21 L24,11z M8,11 L16,17 L24,11"/>
	</g>
	
	<g id="_CEABF7C4-144F-46C6-85FB-280D897A0738none" display="none"/>

	<g id="_CEABF7C4-144F-46C6-85FB-280D897A0738sequential">
        <path oryx:anchors="bottom" fill="none" stroke="#000000" stroke-width="2" d="M46,76h10M46,72h10 M46,68h10" id="_CEABF7C4-144F-46C6-85FB-280D897A0738__CEABF7C4-144F-46C6-85FB-280D897A0738_20"/>
    </g>
  </g></g><g class="children" style="overflow:hidden"/><g class="edge"/></g><g class="controls"><g class="dockers"/><g class="magnets" transform="translate(195, 140)"><g pointer-events="all" display="none" transform="translate(-7, 12)"><circle cx="8" cy="8" r="4" stroke="none" fill="red" fill-opacity="0.3"/></g><g pointer-events="all" display="none" transform="translate(-7, 32)"><circle cx="8" cy="8" r="4" stroke="none" fill="red" fill-opacity="0.3"/></g><g pointer-events="all" display="none" transform="translate(-7, 52)"><circle cx="8" cy="8" r="4" stroke="none" fill="red" fill-opacity="0.3"/></g><g pointer-events="all" display="none" transform="translate(17, 71)"><circle cx="8" cy="8" r="4" stroke="none" fill="red" fill-opacity="0.3"/></g><g pointer-events="all" display="none" transform="translate(42, 71)"><circle cx="8" cy="8" r="4" stroke="none" fill="red" fill-opacity="0.3"/></g><g pointer-events="all" display="none" transform="translate(67, 71)"><circle cx="8" cy="8" r="4" stroke="none" fill="red" fill-opacity="0.3"/></g><g pointer-events="all" display="none" transform="translate(91, 12)"><circle cx="8" cy="8" r="4" stroke="none" fill="red" fill-opacity="0.3"/></g><g pointer-events="all" display="none" transform="translate(91, 32)"><circle cx="8" cy="8" r="4" stroke="none" fill="red" fill-opacity="0.3"/></g><g pointer-events="all" display="none" transform="translate(91, 52)"><circle cx="8" cy="8" r="4" stroke="none" fill="red" fill-opacity="0.3"/></g><g pointer-events="all" display="none" transform="translate(17, -7)"><circle cx="8" cy="8" r="4" stroke="none" fill="red" fill-opacity="0.3"/></g><g pointer-events="all" display="none" transform="translate(42, -7)"><circle cx="8" cy="8" r="4" stroke="none" fill="red" fill-opacity="0.3"/></g><g pointer-events="all" display="none" transform="translate(67, -7)"><circle cx="8" cy="8" r="4" stroke="none" fill="red" fill-opacity="0.3"/></g><g pointer-events="all" display="none" transform="translate(42, 32)"><circle cx="8" cy="8" r="4" stroke="none" fill="red" fill-opacity="0.3"/></g></g></g></g></g><g class="edge"><g id="_D448C069-15E3-41DC-9A8A-098D3CE12D97" bpmn2nodeid="_EF3CBA47-CC4F-4B99-B3D6-E5D7483A5FD1"><g class="stencils"><g class="me"><g pointer-events="painted" bpmn2nodeid="_DFC87506-801A-4E99-B453-87FCF1EE5F46"><path id="_D448C069-15E3-41DC-9A8A-098D3CE12D97_1" d="M375.6484375 180L434.1953125 180 " stroke="#000000" fill="none" stroke-width="2" stroke-linecap="round" stroke-linejoin="round" marker-start="url(#_D448C069-15E3-41DC-9A8A-098D3CE12D97start)" marker-end="url(#_D448C069-15E3-41DC-9A8A-098D3CE12D97end)"/></g><text id="_D448C069-15E3-41DC-9A8A-098D3CE12D97text_name" font-size="12" x="389.6484375" y="166" oryx:edgePosition="startTop" stroke-width="0pt" letter-spacing="-0.01px" fill="#000000" text-anchor="start" transform="rotate(360 375.6484375 180)" visibility="inherit" oryx:fontSize="12"/></g><g class="children" style="overflow:hidden"/><g class="edge"/></g><g class="controls"><g class="dockers"/><g class="magnets"/></g></g><g id="_339E780F-E88B-42C0-87F2-71A878E80F5B" bpmn2nodeid="_6FDAA35B-D985-463C-B191-3993937F264C"><g class="stencils"><g class="me"><g pointer-events="painted" bpmn2nodeid="_EE187C5C-7746-49E6-8D49-AC3630B4FDDA"><path id="_339E780F-E88B-42C0-87F2-71A878E80F5B_1" d="M535.390625 180L579.375 180 " stroke="#000000" fill="none" stroke-width="2" stroke-linecap="round" stroke-linejoin="round" marker-start="url(#_339E780F-E88B-42C0-87F2-71A878E80F5Bstart)" marker-end="url(#_339E780F-E88B-42C0-87F2-71A878E80F5Bend)"/></g><text id="_339E780F-E88B-42C0-87F2-71A878E80F5Btext_name" font-size="12" x="549.390625" y="166" oryx:edgePosition="startTop" stroke-width="0pt" letter-spacing="-0.01px" fill="#000000" text-anchor="start" transform="rotate(360 535.390625 180)" visibility="inherit" oryx:fontSize="12"/></g><g class="children" style="overflow:hidden"/><g class="edge"/></g><g class="controls"><g class="dockers"/><g class="magnets"/></g></g><g id="_2A914214-5407-459A-B1A1-58CF029904B8" bpmn2nodeid="_5AE1057B-F15B-41CE-B38C-15CB4AC5BF19"><g class="stencils"><g class="me"><g pointer-events="painted" bpmn2nodeid="_6B21F2C6-E2AB-4244-A1B7-A733ACF4F137"><path id="_2A914214-5407-459A-B1A1-58CF029904B8_1" d="M150.609375 180L194.15625 180 " stroke="#000000" fill="none" stroke-width="2" stroke-linecap="round" stroke-linejoin="round" marker-start="url(#_2A914214-5407-459A-B1A1-58CF029904B8start)" marker-end="url(#_2A914214-5407-459A-B1A1-58CF029904B8end)"/></g><text id="_2A914214-5407-459A-B1A1-58CF029904B8text_name" font-size="12" x="164.609375" y="166" oryx:edgePosition="startTop" stroke-width="0pt" letter-spacing="-0.01px" fill="#000000" text-anchor="start" transform="rotate(360 150.609375 180)" visibility="inherit" oryx:fontSize="12"/></g><g class="children" style="overflow:hidden"/><g class="edge"/></g><g class="controls"><g class="dockers"/><g class="magnets"/></g></g><g id="_70E43D06-0991-457C-9B37-9234C273181C" bpmn2nodeid="_5C242C62-8F32-4BFA-93DB-A758491E72EC"><g class="stencils"><g class="me"><g pointer-events="painted" bpmn2nodeid="_2A1D8C32-B881-4656-A5A6-A2A7D76F2869"><path id="_70E43D06-0991-457C-9B37-9234C273181C_1" d="M295.4140625 180L344.625 180 " stroke="#000000" fill="none" stroke-width="2" stroke-linecap="round" stroke-linejoin="round" marker-start="url(#_70E43D06-0991-457C-9B37-9234C273181Cstart)" marker-end="url(#_70E43D06-0991-457C-9B37-9234C273181Cend)"/></g><text id="_70E43D06-0991-457C-9B37-9234C273181Ctext_name" font-size="12" x="309.4140625" y="166" oryx:edgePosition="startTop" stroke-width="0pt" letter-spacing="-0.01px" fill="#000000" text-anchor="start" transform="rotate(360 295.4140625 180)" visibility="inherit" oryx:fontSize="12"/></g><g class="children" style="overflow:hidden"/><g class="edge"/></g><g class="controls"><g class="dockers"/><g class="magnets"/></g></g></g><text id="_5C85A263-EB12-4140-AE2E-DF9E9AC27DFD" style="stroke-width:1;fill:rgb(177,194,214);font-family:arial;font-weight:bold" font-size="12" onclick="ORYX.Plugins.CanvasTitle.openTextualAnalysis()" onmouseover="ORYX.Plugins.CanvasTitle.addToolTip('_5C85A263-EB12-4140-AE2E-DF9E9AC27DFD')" transform="translate(10, 20)"/></g></g></svg>